<svg width="27" height="26" viewBox="0 0 27 26" fill="none" xmlns="http://www.w3.org/2000/svg">
<path d="M13.5 0C6.04575 0 0 5.82075 0 13C0 18.7438 3.86775 23.6167 9.23287 25.3359C9.90675 25.4562 10.125 25.0532 10.125 24.7108V22.2907C6.36975 23.0772 5.58788 20.7567 5.58788 20.7567C4.97363 19.2541 4.08825 18.8543 4.08825 18.8543C2.86313 18.0472 4.18163 18.0646 4.18163 18.0646C5.53725 18.1556 6.2505 19.4047 6.2505 19.4047C7.45425 21.3915 9.40838 20.8173 10.179 20.4847C10.2994 19.6452 10.6493 19.071 11.0363 18.7471C8.03813 18.4167 4.88587 17.3019 4.88587 12.3218C4.88587 10.9016 5.4135 9.74242 6.27637 8.83242C6.13687 8.50417 5.6745 7.18142 6.408 5.39175C6.408 5.39175 7.542 5.04292 10.1216 6.72425C11.1982 6.43608 12.3525 6.292 13.5 6.28658C14.6475 6.292 15.8029 6.43608 16.8817 6.72425C19.4591 5.04292 20.5909 5.39175 20.5909 5.39175C21.3255 7.1825 20.8631 8.50525 20.7236 8.83242C21.5899 9.74242 22.113 10.9027 22.113 12.3218C22.113 17.3149 18.9551 18.4145 15.9491 18.7362C16.4329 19.1392 16.875 19.9301 16.875 21.1434V24.7108C16.875 25.0564 17.091 25.4627 17.7761 25.3348C23.1367 23.6134 27 18.7417 27 13C27 5.82075 20.9554 0 13.5 0Z" fill="#FCFCFC"/>
</svg>
