<svg width="22" height="22" viewBox="0 0 22 22" fill="none" xmlns="http://www.w3.org/2000/svg">
<path d="M10.2457 1.46108C10.5023 0.846308 11.3733 0.846308 11.6299 1.46108L13.8315 6.73497C13.934 6.98066 14.1592 7.15356 14.423 7.18927L20.2254 7.97459C20.8756 8.06259 21.1073 8.88408 20.599 9.2989L16.1187 12.9549C15.8972 13.1357 15.7978 13.4266 15.8622 13.7051L17.2946 19.895C17.4497 20.5651 16.6961 21.0731 16.1331 20.6779L11.3687 17.334C11.1101 17.1525 10.7655 17.1525 10.5069 17.334L5.74251 20.678C5.17948 21.0731 4.42588 20.5652 4.58096 19.895L6.01326 13.7051C6.07771 13.4266 5.97823 13.1357 5.75676 12.9549L1.27661 9.29889C0.768289 8.88407 1.00003 8.06259 1.65021 7.9746L7.4526 7.18927C7.71643 7.15356 7.94156 6.98066 8.04412 6.73497L10.2457 1.46108Z" fill="#F4B740" stroke="#F4B740" stroke-width="2" stroke-miterlimit="3.3292" stroke-linecap="round" stroke-linejoin="round"/>
</svg>
