<svg width="23" height="23" viewBox="0 0 23 23" fill="none" xmlns="http://www.w3.org/2000/svg">
<path d="M10.4507 1.65797C10.7073 1.0432 11.5783 1.0432 11.8349 1.65797L14.0365 6.93186C14.1391 7.17755 14.3642 7.35045 14.628 7.38616L20.4304 8.17148C21.0806 8.25948 21.3123 9.08097 20.804 9.49579L16.3237 13.1518C16.1023 13.3326 16.0028 13.6235 16.0672 13.902L17.4996 20.0919C17.6547 20.762 16.9011 21.27 16.3381 20.8748L11.5737 17.5309C11.3151 17.3494 10.9705 17.3494 10.712 17.5309L5.94752 20.8749C5.38449 21.27 4.6309 20.7621 4.78597 20.0919L6.21828 13.902C6.28272 13.6235 6.18324 13.3326 5.96177 13.1518L1.48162 9.49578C0.973299 9.08096 1.20504 8.25948 1.85522 8.17149L7.65761 7.38616C7.92145 7.35045 8.14657 7.17755 8.24914 6.93186L10.4507 1.65797Z" stroke="#F4B740" stroke-width="2" stroke-miterlimit="3.3292" stroke-linecap="round" stroke-linejoin="round"/>
</svg>
