<svg width="300" height="241" viewBox="0 0 300 241" fill="none" xmlns="http://www.w3.org/2000/svg">
<path fill-rule="evenodd" clip-rule="evenodd" d="M172.384 240.486C208.24 240.486 239.706 213.814 222.035 177.587C204.364 141.36 270.023 142.53 289.311 117.492C312.832 86.9579 306.021 -42.6562 155.02 36.3628C130.832 49.0208 68.7112 23.3408 48.1048 36.0827C23.8496 51.0812 -10.2761 81.7936 23.8496 113.253C40.6593 128.751 -19.6073 168.972 6.78831 205.002C32.5437 240.156 50.598 206.644 89.8102 213.814C129.022 220.985 145.755 240.486 172.384 240.486Z" fill="#DED3FF"/>
<path d="M130.767 177.46C130.767 177.46 139.023 173.577 142.105 170.875C145.187 168.173 149.019 161.46 149.019 161.46C149.019 161.46 191.11 191.858 218.554 187.522C224.877 186.523 237.199 182.32 237.984 174.914C240.13 154.692 210.445 149.524 216.929 139.269C220.887 133.01 233.183 142.326 233.183 142.326L284.182 167.411C284.182 167.411 266.563 210.842 223.807 212.582C171.211 214.723 130.767 177.46 130.767 177.46Z" fill="white"/>
<path fill-rule="evenodd" clip-rule="evenodd" d="M90.3332 7.37684C89.8542 7.18892 87.2842 4.04135 84.0202 3.46848C82.5372 3.20815 83.8832 5.09649 82.2512 5.11347C77.3902 5.16407 69.4912 4.25085 68.0272 5.11347C66.9402 5.75253 69.3352 7.98516 68.0272 8.08763C55.69 9.05471 36.8686 21.3732 32.785 27.3495C31.4854 29.2514 41.996 26.0245 40.3214 26.9648C38.4418 28.0201 36.3572 34.9303 35.1108 40.2673C34.248 43.9425 33.7047 48.6722 33.513 53.8174C33.3532 58.2595 33.4171 58.9946 34.0562 61.4233C34.7913 64.1397 35.3665 64.9387 36.3572 64.5555C36.7088 64.4273 36.8686 63.9481 36.8686 63.0535C36.8686 62.3501 37.252 60.2412 37.7314 58.3555L38.5623 54.9679L38.9139 56.3743C39.3613 58.004 41.9818 63.0535 44.3467 66.7283C44.4743 66.9233 45.023 66.6753 45.5179 65.4793C45.9688 64.3892 45.7858 62.6481 46.5518 60.7823C48.2967 56.5313 51.7227 51.004 55.6901 46.5801C61.5534 40.0417 63.4985 32.4747 68.9952 26.4005C79.2522 15.0648 92.1252 8.08031 90.3332 7.37684Z" fill="white"/>
<path fill-rule="evenodd" clip-rule="evenodd" d="M40.4671 28.5072C38.8218 29.8302 36.3795 40.562 36.3376 40.7414C35.4747 44.4166 34.6429 57.1792 35.4931 59.5956C36.3433 62.0119 38.724 53.3015 38.724 53.3015C38.724 53.3015 42.3224 62.6451 45.5019 65.207C45.6377 65.3164 41.7226 53.6471 40.4671 46.8344C38.8099 37.8415 41.4036 27.7541 40.4671 28.5072Z" fill="#E7EAEE"/>
<path fill-rule="evenodd" clip-rule="evenodd" d="M101.794 216.459C104.862 215.788 110.038 213.451 112.021 212.652C114.002 211.852 120.042 203.324 122.215 193.705C123.781 186.61 124.58 176.511 123.685 174.817C123.553 174.577 123.07 169.985 124.356 171.484C127.217 174.817 130.612 180.05 141.325 170.674C144.243 168.12 148.111 164.824 147.093 161.91C144.243 153.758 131.892 137.342 130.01 136.099C127.758 134.611 116.379 135.875 99.4452 130.877C80.2402 125.208 72.2442 108.517 64.7282 110.69C58.6509 112.447 44.089 123.245 40.4344 130.083C23.1813 162.366 44.089 184.987 48.8504 191.484L53.4737 193.481L53.6331 197.604L53.8569 200.192C54.2727 205.146 54.4321 205.593 56.6692 207.255C62.2618 211.505 73.2872 215.468 83.2582 216.874C87.8922 217.513 97.9592 217.29 101.794 216.459Z" fill="white"/>
<path fill-rule="evenodd" clip-rule="evenodd" d="M55.292 196.095L55.5153 198.683C55.9311 203.637 56.0905 204.084 58.3277 205.746C61.6272 208.253 66.8172 210.66 72.5662 212.502C76.5622 213.782 80.8282 214.789 84.9172 215.365C89.5512 216.004 99.6182 215.78 103.452 214.95C105.348 214.539 89.7562 202.289 80.5702 205.746C73.5162 208.4 56.8905 188.153 63.6502 182.863C71.2332 176.929 57.3381 153.525 56.8905 148.444C56.443 143.363 54.6811 142.149 54.6296 142.327C54.5782 142.506 54.5782 143.114 54.7168 144.579C55.3128 150.892 55.292 196.095 55.292 196.095Z" fill="#E7EAEE"/>
<path fill-rule="evenodd" clip-rule="evenodd" d="M53.6272 146.994C54.298 146.863 54.948 147.301 55.0782 147.972C57.49 160.363 67.6922 168.753 85.9362 173.139C104.287 177.552 116.788 177.314 123.374 172.604C123.93 172.206 123.516 175.611 123.109 175.872C118.813 178.627 104.207 182.738 86.7772 179.022C64.4922 174.272 54.0287 155.534 52.6485 148.445C52.5183 147.774 52.9559 147.124 53.6272 146.994Z" fill="#5F2EEA"/>
<path fill-rule="evenodd" clip-rule="evenodd" d="M44.3337 124.636C44.927 124.297 67.0612 149.665 97.4372 155.407C127.814 161.149 135.168 157.497 136.35 149.665C136.452 148.989 137.083 148.524 137.759 148.626C138.434 148.728 138.9 149.358 138.798 150.034C137.299 159.961 123.244 162.322 97.0212 157.847C71.1272 153.428 53.3752 142.93 43.8741 126.325C43.5347 125.732 43.7404 124.976 44.3337 124.636Z" fill="#5F2EEA"/>
<path fill-rule="evenodd" clip-rule="evenodd" d="M171.827 123.23C170.996 122.942 170.101 122.303 169.526 121.568L168.567 120.385L171.955 117.03C177.164 111.916 181.159 106.675 184.61 100.444C185.761 98.3669 188.669 91.4322 188.669 90.7609C188.669 90.5372 189.021 89.6421 189.436 88.7154C190.075 87.3733 190.554 86.8619 191.928 86.0951C193.558 85.1362 195.412 84.8169 196.211 85.3599C197.745 86.3827 197.745 89.6104 196.211 95.1708C194.517 101.274 192.248 105.653 187.55 111.949C186.815 112.907 185.441 114.793 184.45 116.103C181.798 119.618 180.072 121.312 177.739 122.622C175.438 123.901 174.096 124.06 171.827 123.23ZM194.773 120.353L197.074 121.376C197.551 121.596 202.815 124.125 209.137 127.163C219.33 132.061 232.276 138.282 232.355 138.282C232.483 138.282 233.083 136.895 233.218 135.278C233.538 131.795 234.72 127.064 236.094 123.773C236.733 122.303 237.245 120.465 237.245 120.306C237.245 120.233 236.725 120.023 235.875 119.68C234.862 119.272 233.381 118.674 231.748 117.893C223.695 114.026 207.939 106.132 205.99 104.95C204.073 103.831 203.689 103.735 203.689 104.47C203.689 105.429 201.74 109.871 200.237 112.268C199.439 113.578 197.873 115.943 196.754 117.509L194.773 120.353ZM231.812 132.529C232.728 133.06 231.141 133.84 230.758 133.967C228.499 134.159 225.841 133.735 223.663 132.465C222.524 131.658 213.556 126.676 207.608 123.371C204.888 121.86 202.8 120.7 202.379 120.45C201.036 119.651 199.758 118.788 199.534 118.532C198.864 117.669 199.503 117.286 201.388 117.445C202.522 117.541 229.832 131.382 231.812 132.529ZM101.903 216.196C104.368 215.656 108.195 214.041 110.631 213.013C111.227 212.761 111.74 212.545 112.129 212.388C114.112 211.589 120.151 203.061 122.324 193.441C123.89 186.347 124.689 176.248 123.794 174.554C123.255 173.573 126.46 176.864 128.847 179.315C129.571 180.057 130.219 180.723 130.665 181.169C144.599 195.007 165.339 206.129 186.879 211.338C197.617 213.958 205.255 214.885 215.514 214.885C232.739 214.885 246.321 211.498 258.657 204.052C259.243 203.698 259.792 203.373 260.315 203.063C264.615 200.517 267.177 199 274.188 191.108C282.053 182.256 289.049 161.707 291.382 154.612C292.404 151.416 294.897 138.705 294.897 135.534C294.897 131.778 293.587 130.005 291.797 128.183C288.633 125.083 284.351 123.965 280.804 125.307L279.142 125.946L278.63 124.252C277.895 121.696 276.362 119.651 273.997 118.116C270.481 115.784 269.97 115.624 266.806 115.624C264.345 115.624 263.674 115.752 262.108 116.487L260.286 117.317L259.903 116.167C259.168 113.802 256.703 110.505 254.79 109.552C253.093 108.706 250.157 108.628 248.111 109.008C243.636 109.839 240.441 111.916 239.13 114.825C238.747 115.719 238.268 116.423 238.076 116.423C237.916 116.423 231.621 114.664 224.11 111.341C222.843 110.778 221.653 110.251 220.536 109.755C207.05 103.778 204.126 102.482 204.392 100.859C204.616 99.4852 204.552 98.7183 204.169 97.5362C203.497 95.5545 202.73 95.0114 200.557 95.0114C198.831 95.0114 198.831 95.0114 199.023 94.1486C200.046 89.2589 200.014 86.4466 198.927 84.657C198.192 83.4743 197.329 82.9951 195.348 82.7075C194.197 82.5476 193.654 82.6436 192.376 83.3466C191.513 83.7941 190.778 84.1134 190.714 84.0495C190.65 83.9857 190.874 82.2282 191.226 80.151C193.846 64.7792 191.822 51.5347 185.142 37.4732C185.078 37.3387 185.004 37.1795 184.92 36.9974C182.889 32.6381 174.724 15.1089 151.374 6.26393C150.317 5.86358 149.317 5.4765 148.356 5.10452V5.10443C140.402 2.02565 135.114 -0.0210753 122.356 0.000163741C108.056 0.0239707 103.213 2.04547 93.7852 6.35982C92.4752 6.967 91.3252 7.31853 91.2292 7.19071C91.1332 7.03091 90.5262 6.6474 89.9192 6.32784C89.3122 6.00824 88.0012 5.20933 87.0422 4.57015C84.2942 2.71659 82.6002 1.9496 81.7372 2.14135C80.7472 2.39701 80.7472 3.22792 81.7372 3.61141C82.1532 3.7712 82.6322 4.31448 82.8242 4.85777C83.2392 6.00824 83.7192 6.13611 84.0062 5.17735C84.1342 4.82582 84.3262 4.57015 84.4222 4.63407C84.4582 4.65225 84.5802 4.70921 84.7662 4.79612V4.79616C85.2332 5.01482 86.1052 5.42309 87.0422 5.88041C88.3532 6.51957 89.7912 7.19071 90.1742 7.35051C90.8772 7.60616 90.6542 7.79789 87.6182 9.58754C75.7612 16.5544 66.1102 27.3882 60.7093 39.7239C59.8782 41.5775 59.1435 42.728 58.3762 43.3672C56.4267 44.997 52.592 49.6307 51.697 51.4525C51.2178 52.4431 50.195 53.9773 49.396 54.8718C48.6291 55.7669 47.7982 56.9174 47.5105 57.3966C47.2549 57.908 46.9992 58.2594 46.9034 58.1956C46.8394 58.1 46.9353 56.5337 47.159 54.7124C47.6384 50.4619 47.6384 49.3433 47.2549 49.2474C46.6796 49.0876 45.8488 51.3248 45.4972 54.105C45.2415 55.799 45.1776 58.3555 45.3374 60.9758L45.5291 65.1307L43.2601 61.4555C42.4799 60.2263 41.7116 58.9976 41.1659 58.1248L41.1657 58.1243H41.1655L41.1652 58.1238L41.1641 58.1218L41.1636 58.1213L41.1633 58.1208L41.1631 58.1203L41.1628 58.1198L41.1619 58.1184C40.8156 57.5644 40.5595 57.155 40.4479 56.9812C39.6169 55.7669 39.1376 53.9451 39.4891 53.3382C39.6808 52.9867 39.6489 52.8268 39.3293 52.8268C38.6582 52.8268 37.3479 54.9679 36.485 57.4287C36.0696 58.5792 35.6541 59.5377 35.5263 59.5377C35.0469 59.5377 35.2706 48.097 35.782 44.4218C36.8366 37.1673 39.6169 28.2191 40.8633 28.2191C41.119 28.2191 41.3427 28.0912 41.3427 27.8995C41.3427 27.3242 40.5118 27.548 39.8406 28.283C38.3386 29.9129 36.3572 34.9302 35.1109 40.2672C34.248 43.9424 33.7047 48.6722 33.513 53.8174C33.3532 58.2594 33.4171 58.9946 34.0562 61.4233C34.7913 64.1396 35.3665 64.9387 36.3572 64.5555C36.7088 64.4273 36.8686 63.9481 36.8686 63.0535C36.8686 62.35 37.2521 60.2411 37.7314 58.3555L38.5623 54.9679L38.9139 56.3743C39.3613 58.004 41.9818 63.0535 44.3467 66.7282C45.9766 69.2213 46.0086 69.3807 46.5518 73.2797C46.8394 75.4847 47.7342 80.8485 49.8113 89.099C51.647 96.3891 61.9648 103.62 64.5412 105.426L64.5432 105.427C64.8812 105.664 65.0862 105.807 65.1192 105.845C65.4392 106.196 65.8862 106.388 66.1422 106.292C66.4292 106.196 66.5892 106.324 66.5892 106.675C66.5892 106.995 66.8132 107.41 67.0692 107.602C67.3882 107.826 67.6122 108.689 67.6762 110.191C67.8362 113.195 70.0732 118.947 71.7982 120.833C72.9172 122.047 75.2502 122.558 77.8382 122.111C79.5322 121.855 80.0122 121.664 79.8522 121.28C79.7562 121.025 80.3632 121.344 81.1942 121.983C90.9092 129.398 100.752 133.84 111.81 135.757C116.092 136.492 123.187 136.907 127.054 136.62C130.474 136.397 130.473 136.397 130.314 137.067C130.09 137.962 130.377 138.505 135.075 146.463C138.814 152.759 139.134 153.174 143.288 157.425C152.109 166.533 161.728 173.596 172.626 179.06C182.884 184.173 199.263 188.424 214.235 189.766C229.208 191.108 239.961 177.366 239.929 173.851C239.866 169.025 239.194 165.861 237.565 162.794C235.967 159.821 234.912 158.799 230.118 155.603C224.781 152.056 221.49 149.148 219.317 146.048C217.942 144.098 217.431 141.893 217.431 140.71C217.431 139.944 218.422 138.218 219.892 137.866C221.234 137.515 221.49 137.547 222.992 138.282C223.886 138.698 226.22 139.784 228.137 140.71C230.086 141.605 231.972 142.501 232.355 142.692C233.486 143.006 233.964 145.219 234.223 146.419C234.281 146.687 234.328 146.904 234.369 147.038C234.816 148.7 236.933 150.846 238.3 151.576C240.698 152.859 246.609 153.031 248.239 151.273C248.655 150.826 250.032 150.276 250.316 150.442C250.6 150.609 251.626 151.992 251.626 153.11C251.658 155.028 252.649 156.786 254.758 158.543C258.753 161.867 261.853 162.666 264.984 161.196C266.614 160.429 267.95 160.129 267.95 160.129C267.95 160.129 269.282 161.829 269.363 162.41C269.99 166.951 276.713 168.854 278.503 169.046C278.913 169.087 279.711 168.911 280.522 168.733C281.606 168.495 282.712 168.252 282.945 168.514C283.401 169.029 275.307 182.416 274.188 184.109C263.546 200.089 242.837 209.868 217.495 210.891C201.036 211.561 180.807 206.959 163.262 198.587C152.045 193.186 142.106 186.57 131.464 177.302C129.611 175.704 127.469 173.883 126.702 173.244C125.935 172.637 124.114 170.559 122.708 168.642C120.343 165.446 119 164.296 119 165.382C119 165.861 120.534 168.802 122.292 171.71C122.995 172.86 123.442 173.659 123.283 173.532C123.123 173.403 122.612 175.704 122.132 178.645C120.566 188.072 117.978 197.372 115.357 203.156C113.919 206.289 111.162 208.627 110.33 209.266C107.263 211.6 102.67 212.648 96.3102 213.287C88.2572 214.086 76.4002 212.297 67.3562 208.909C64.9602 208.014 58.7915 205.426 58.3762 205.138C58.3514 205.113 58.2098 204.194 58.0123 202.91C57.9564 202.549 57.8965 202.158 57.8331 201.751C56.6826 193.857 55.0846 163.465 55.0846 149.403C55.0846 143.587 55.0207 142.308 54.6371 142.308C53.8381 142.308 53.5188 143.076 53.1673 145.824C52.3683 152.088 52.5282 184.781 53.391 191.651L53.5826 193.218L52.496 192.61C50.8341 191.652 44.5065 185.228 42.3014 182.256C40.4346 179.715 39.3251 176.461 38.495 174.026C38.3019 173.46 38.1239 172.938 37.9551 172.48C33.3212 159.633 34.9511 145.217 41.3427 132.242C46.7755 121.184 53.4549 115.049 63.2341 112.076C64.8312 111.597 66.2382 111.086 66.3982 110.958C67.0052 110.383 63.1059 110.67 60.9648 111.341C53.998 113.483 46.7116 119.331 41.7581 126.809C34.7913 137.291 31.6594 152.759 33.8645 165.957C34.3758 169.089 36.4531 175.864 37.0284 176.344C37.0792 176.395 37.3421 176.946 37.7396 177.78C38.8388 180.086 40.9676 184.552 42.4932 186.57C44.3467 189.095 49.9395 194.592 52.2722 196.286L53.7425 197.34L53.9663 199.929C54.3816 204.882 54.5415 205.33 56.7782 206.992C62.3712 211.242 73.3962 215.204 83.3672 216.611C88.0012 217.25 98.0682 217.026 101.903 216.196ZM209.921 186.187C191.353 184.557 168.919 175.704 152.684 162.026C145.845 156.242 136.961 144.993 133.445 138.761C132.71 137.483 132.167 136.876 131.528 136.716C130.857 136.524 131.432 136.332 134.18 135.885C145.781 133.903 157.062 129.078 166.171 122.207L167.513 121.216L167.896 122.143C168.759 124.22 172.082 126.33 174.543 126.33C175.534 126.33 178.858 124.828 180.871 123.453L182.245 122.527L183.364 123.645C184.386 124.668 184.578 124.732 186.496 124.732C188.701 124.732 191.353 123.741 192.824 122.335L193.622 121.6L195.891 123.102C197.106 123.965 200.493 125.85 203.401 127.352C207.748 129.589 212.35 132.178 216.728 134.862L217.431 135.31L216.76 136.204C216.057 137.163 214.747 138.985 214.747 141.765C214.747 144.897 218.004 150.524 224.238 154.389C229.136 157.425 237.565 163.397 237.245 172.125C237.206 173.18 236.03 175.801 234.465 178.165C233.442 179.667 230.598 181.904 228.009 183.215C223.599 185.42 215.833 186.698 209.921 186.187ZM39.5211 42.728C40.3839 42.9197 40.9591 43.2074 40.8313 43.3352C40.4159 43.7506 38.2108 43.5589 37.6994 43.0476C36.9005 42.2806 37.0923 41.7373 38.2108 41.5136C38.786 41.4177 39.6489 40.9384 40.1283 40.459C40.6076 39.9796 41.0231 39.7559 41.0231 39.9157C41.0231 40.3312 39.4252 41.8012 38.6262 42.1208C38.1149 42.3445 38.2747 42.4404 39.5211 42.728ZM52.2405 43.2393C53.1673 42.728 52.9752 42.3765 51.8891 42.5363C50.8024 42.696 50.7386 42.5682 51.4415 41.4816C51.7291 41.0662 51.889 40.459 51.8247 40.1394C51.7291 39.7239 51.5054 39.9157 50.994 40.9384C50.6103 41.6734 50.0673 42.2806 49.8113 42.2806C49.0126 42.2806 48.9487 42.9197 49.7158 43.2074C50.7064 43.6228 51.4732 43.6228 52.2405 43.2393ZM41.1829 25.7903C40.4159 25.9181 38.019 26.8768 35.9098 27.9315C33.7686 28.9541 31.947 29.817 31.8192 29.785C28.5595 29.4335 33.0975 24.0006 41.3427 18.4399C49.2361 13.103 54.5732 10.2906 59.5267 8.85254C62.6267 7.95769 66.1102 7.82987 67.1012 8.56492C67.6442 8.98037 67.4522 9.0123 65.0872 9.04428C59.9742 9.04428 54.0618 11.6648 44.4426 18.0884C39.4572 21.412 33.6728 26.1738 33.6728 26.9408C33.6728 27.1005 34.5995 26.781 35.75 26.2696C38.2108 25.1511 40.7355 24.5759 41.854 24.8315C43.0364 25.1511 42.7808 25.5666 41.1829 25.7903ZM53.5504 28.5387C56.5549 27.9315 56.6826 27.8995 56.6826 27.5799C56.6826 27.4201 55.5321 27.2603 54.094 27.1964L51.5054 27.1005L53.9019 24.3841C55.2123 22.8821 56.7465 21.3801 57.2895 21.0286C58.4722 20.2615 58.5361 19.7183 57.5772 19.3987L56.8425 19.175L57.641 18.8874C58.0886 18.7276 58.9197 18.6637 59.495 18.7595C60.3579 18.8874 60.5494 18.8235 60.4534 18.376C60.3579 17.9286 60.0064 17.8327 58.44 17.8647C53.8702 17.9286 51.9207 19.143 55.4999 19.7183C56.4905 19.8781 57.3217 20.1337 57.3217 20.2935C57.3217 20.4213 57.1618 20.5491 56.9702 20.5491C56.3628 20.5491 51.2178 25.7583 50.5787 27.0366C49.5881 28.9222 50.1311 29.2098 53.5504 28.5387ZM74.6432 16.1389C73.7162 16.2029 73.4922 16.3627 73.5562 16.8101L73.5662 16.8752C73.6022 17.1116 73.6232 17.2474 73.5702 17.2886C73.4982 17.3443 73.2922 17.2276 72.8092 16.9535L72.7252 16.9059C72.1182 16.5864 72.0542 16.4266 72.4062 16.1709C72.6292 15.9791 73.2362 15.6915 73.7162 15.5957L74.6112 15.372L73.9402 14.6689C73.5882 14.2535 73.3962 13.8699 73.4922 13.7421C73.7482 13.4864 76.8802 13.838 77.3272 14.1895C77.5192 14.3493 77.8072 14.3174 77.9982 14.1256C78.4462 13.6782 79.0532 14.0297 79.0532 14.7328C79.0532 15.1163 78.9572 15.1483 78.6702 14.8606C78.4142 14.605 78.1902 14.605 77.9022 14.8287C77.6472 15.0524 77.4552 15.0524 77.2952 14.7967C77.1992 14.6369 76.5922 14.4772 75.9532 14.4772C75.3632 14.4772 75.0842 14.4772 75.0272 14.5895C74.9762 14.6903 75.1042 14.8815 75.3462 15.2441C75.8562 16.0406 75.8252 16.0431 74.6542 16.1381L74.6432 16.1389ZM69.7852 7.63814C69.7852 7.22264 69.4022 6.48764 68.9222 6.00824L68.0272 5.11344L72.8212 5.30517C75.4742 5.43304 78.4772 5.72066 79.5322 6.00824C80.5872 6.26393 81.8012 6.45566 82.2492 6.45566C82.9202 6.45566 82.7922 6.32784 81.5462 5.6567C79.3732 4.53819 76.5922 3.99491 71.2552 3.61141C64.8642 3.164 61.6361 3.7712 62.243 5.36908C62.339 5.68868 62.8504 5.84848 63.6172 5.84848C65.1832 5.84848 67.7402 6.77527 68.6032 7.63814C69.5292 8.56492 69.7852 8.56492 69.7852 7.63814ZM54.1895 92.2629C56.7782 95.5867 60.198 99.3575 61.796 100.635C62.7544 101.403 63.5852 102.042 63.6492 102.042C63.6812 102.042 62.9782 100.571 62.0836 98.7822C58.4722 91.5916 56.3628 84.4332 55.3722 76.1882C55.1485 74.3664 54.797 72.8322 54.4133 72.1931C53.6465 70.9149 53.6465 69.253 54.4455 67.6872C54.8608 66.8565 55.0846 65.8015 55.0846 64.651V62.8936L53.5504 64.4916C52.0485 66.0575 50.6103 66.6966 50.6103 65.7377C50.6103 65.0347 52.9752 61.6471 54.2217 60.5926C55.2123 59.7614 55.34 59.4738 55.6598 56.9812C55.8836 55.4792 56.395 52.8268 56.8103 51.0688C57.2579 49.3113 57.5133 47.8093 57.4494 47.7454C57.2257 47.5217 49.7158 56.1471 48.693 58.8985C48.4685 59.503 47.8621 60.5604 47.3827 61.1995L46.5518 62.2664C46.5518 62.2664 46.8099 63.7604 47.0951 65.6382C47.3832 67.5347 47.5184 68.8387 47.6389 70C47.7999 71.554 47.9345 72.852 48.3734 74.9738C48.8847 77.5941 49.396 79.8634 49.5237 80.0228C49.6197 80.2149 50.0351 81.6847 50.4509 83.3144C51.3455 86.9258 52.8475 90.505 54.1895 92.2629ZM183.875 122.495L183.204 121.823C183.204 121.823 194.343 107.671 196.339 102.457C197.862 98.4782 198.758 97.3495 199.968 97.3495C200.644 97.3495 201.196 97.504 201.452 97.8877C201.899 98.5584 202.33 99.3896 201.755 102.233C200.797 106.835 199.326 109.871 194.916 116.423C193.894 117.925 192.583 119.587 192.008 120.162C190.666 121.408 187.646 122.686 185.888 122.974C184.77 123.134 184.45 123.07 183.875 122.495Z" fill="#00160A"/>
<path d="M272.367 153.759C276.343 142.925 275.741 140.617 275.051 140.391C275.051 140.391 273.533 141.254 272.862 143.076C271.616 146.495 267.349 155.444 265.752 157.042C263.866 158.928 263.866 158.928 261.948 158.928C260.031 158.928 254.501 156.039 253.748 153.193C252.543 148.639 257.73 132.817 257.858 131.922L256.995 131.316C256.42 131.859 248.937 154.55 239.099 148.637C237.972 147.96 235.583 144.769 235.391 143.076C234.326 138.154 239.213 120.945 240.043 117.41C240.787 114.246 244.659 111.309 249.421 111.309C256.739 111.309 255.756 117.706 259.034 119.961C260.487 120.959 262.874 119.149 263.61 119.011C267.733 118.244 269.313 119.137 272.335 121.536C274.668 123.387 276.394 127.053 278.294 128.344C279.349 129.061 280.469 128.08 280.836 127.896C282.339 127.141 285.566 127.705 286.46 128.344C287.772 128.916 290.987 132.006 291.494 133.803C293.796 141.949 286.528 160.007 283.784 163.395C279.243 169.002 268.391 164.592 272.367 153.759Z" fill="white"/>
<path fill-rule="evenodd" clip-rule="evenodd" d="M88.6402 124.075C97.3972 129.604 106.426 133.215 116.716 134.206C124.833 134.973 135.778 133.918 143.64 131.361C150.255 129.22 159.204 123.289 165.179 118.271C176.78 108.556 184.099 93.3812 187.295 77.2748C187.742 75.0055 188.424 69.302 188.392 63.6456C188.392 57.0619 185.495 39.0716 176.717 28.6984C158.611 7.30373 128.848 -2.33397 103.835 5.90081C94.8132 8.87136 85.2062 14.2534 77.9512 21.2842C68.8112 30.2005 62.0683 42.3445 59.3836 54.7441C56.5717 67.8471 60.2296 83.5065 66.5892 96.3535C71.6712 106.58 80.0442 118.61 88.6402 124.075ZM173.968 85.456C167.96 103.511 152.301 116.998 132.615 121.089C129.611 121.696 127.533 121.919 123.315 121.983C120.343 122.079 117.371 122.047 116.763 121.983C102.989 120.321 92.5072 115.24 82.8562 105.589C78.6372 101.339 76.8482 99.0381 74.2272 94.5C70.1052 87.3094 67.9002 79.9589 67.2282 71.1065C64.9272 40.7785 86.6272 15.4998 117.179 12.8792C129.163 11.8566 142.458 15.5318 152.556 22.6903C156.295 25.3429 163.071 32.054 165.179 35.1859C166.042 36.4323 174.416 48.6722 175.885 55.703C177.771 64.8431 177.036 76.2837 173.968 85.456Z" fill="white"/>
<path fill-rule="evenodd" clip-rule="evenodd" d="M188.404 63.6456C188.404 85.0961 178.257 108.547 165.162 118.562C158.915 123.34 150.75 129.126 143.64 131.361C133.221 134.637 116.716 134.206 116.716 134.206C116.716 134.206 133.554 131.955 139.793 129.444C157.686 122.243 167.454 111.19 173.485 100.584C185.39 79.649 188.404 63.1243 188.404 63.6456Z" fill="#E7EAEE"/>
<path fill-rule="evenodd" clip-rule="evenodd" d="M117.083 118.149C108.55 117.062 100.081 114.026 93.2422 109.52C89.1832 106.867 83.0482 100.635 80.0752 96.1936C75.8252 89.802 73.0132 82.9629 71.6392 75.6129C70.6482 70.2758 70.6802 62.0624 71.6712 57.3011C72.6932 52.4431 74.0042 48.7362 76.3362 44.0383C79.0532 38.6055 81.9292 34.6107 86.2432 30.2964C93.5942 22.9461 102.126 18.2802 112.289 16.0431C115.581 15.34 127.501 14.7648 127.917 15.3081C128.013 15.4679 128.652 15.8833 129.323 16.2349C129.994 16.6183 131.783 17.9606 133.254 19.2709C135.459 21.1883 136.449 22.4027 138.367 25.4068C139.677 27.4521 140.732 29.3057 140.732 29.4655C140.732 29.817 141.754 30.4562 142.329 30.4562C143.128 30.4562 143.672 28.0593 143.832 23.8409C143.927 21.5079 144.12 19.5905 144.247 19.5905C144.695 19.5905 149.616 22.3069 151.917 23.8409C156.423 26.8449 160.929 31.0634 164.253 35.4736C165.755 37.455 165.978 37.9663 165.978 39.1807C165.978 40.2992 166.298 41.1621 167.289 42.8878C169.781 47.2341 171.731 52.6991 172.914 58.7392C173.68 62.7976 173.68 70.4674 172.881 74.7179C170.708 86.4144 164.253 98.0471 155.848 105.429C148.722 111.661 141.147 115.496 132.199 117.381C129.131 118.053 119.927 118.5 117.083 118.149ZM94.2332 96.2897C94.5212 95.9699 94.7122 95.4907 94.6172 95.2669C94.5882 95.1996 94.1872 95.0115 93.6022 94.7362C92.2362 94.0946 89.8632 92.9783 88.8342 91.8154C84.7432 87.1496 83.2412 83.6664 82.3152 76.4758C81.4202 69.4768 82.1722 64.7456 83.7842 57.1412C84.5722 53.4317 86.6632 50.3674 87.9642 48.4611C88.8492 47.1649 89.3692 46.404 88.8642 46.3393C87.6182 46.1475 87.4262 46.2434 86.1162 47.4898C83.3032 50.1743 82.0252 52.3154 80.6832 56.4382C78.6062 62.8936 78.2042 80.3397 82.3152 88.204C86.4242 96.0689 93.4982 97.1204 94.2332 96.2897ZM139.677 69.4451C139.134 74.4095 136.833 81.5892 134.148 84.7209C132.902 86.1907 128.327 88.7154 124.465 88.204C120.735 87.7105 117.818 85.9674 115.325 82.2283C113.184 79.0006 112.078 75.0822 111.33 70.1481C110.039 61.6273 115.677 51.708 118.106 49.2474C120.566 46.7228 122.324 45.8279 124.561 45.796C126.734 45.796 128.14 46.2754 130.345 47.8413C134.372 50.6535 140.732 59.7976 139.677 69.4451ZM96.5982 43.0157C97.2372 42.2806 97.3332 41.9291 97.1412 40.5549C97.0132 39.2766 96.7582 38.7653 96.0862 38.2219C94.9042 37.2632 93.4342 37.2632 92.3472 38.2859C91.5802 39.0209 91.4842 39.2765 91.5802 41.0343C91.6762 42.9198 91.7402 43.0476 92.7952 43.6228C94.2012 44.3899 95.5752 44.1662 96.5982 43.0157ZM116.54 23.2976C110.787 27.4202 108.294 29.1139 105.706 30.7118C103.661 31.9902 103.022 32.0221 103.022 30.8716C103.022 30.2644 103.469 29.5933 104.619 28.5387L106.217 27.0686L103.117 26.6532C99.6342 26.2058 96.2462 25.247 95.5112 24.512C94.2972 23.2656 95.3512 22.978 98.8032 23.6171C100.337 23.8728 103.309 24.1924 105.418 24.2563L109.253 24.4161L112.033 22.4027C118.137 17.9925 124.465 15.4998 127.501 16.2668C129.387 16.7142 129.163 17.2256 127.022 17.4812C124.561 17.7688 123.059 18.5998 116.54 23.2976Z" fill="white"/>
<path d="M124.753 83.8258C124.753 83.6664 124.944 83.5065 125.2 83.5065C125.456 83.5065 125.775 83.6664 125.872 83.8258C125.967 84.0179 125.775 84.1456 125.424 84.1456C125.04 84.1456 124.753 84.0179 124.753 83.8258Z" fill="white"/>
<path d="M126.67 83.5381C126.67 83.1866 127.469 82.8673 128.364 82.8673C129.067 82.899 129.067 82.899 128.46 83.3465C127.757 83.8896 126.67 83.9857 126.67 83.5381Z" fill="white"/>
<path d="M121.717 82.7074C121.621 82.452 121.493 82.0045 121.397 81.7485C121.301 81.4292 121.461 81.2693 121.876 81.2693C122.228 81.2693 122.516 81.4609 122.516 81.7168C122.516 81.9723 122.612 82.3876 122.708 82.6752C122.835 83.0272 122.739 83.1866 122.388 83.1866C122.1 83.1866 121.781 82.9629 121.717 82.7074Z" fill="white"/>
<path d="M123.411 81.9085C123.251 80.9496 123.602 80.6303 124.753 80.6303C125.104 80.6303 125.392 80.9496 125.52 81.4931C125.776 82.4199 125.36 82.8674 124.241 82.8674C123.73 82.8674 123.506 82.6436 123.411 81.9085Z" fill="white"/>
<path d="M120.151 82.0683C119.544 81.5891 119.544 81.5891 120.215 81.5891C120.63 81.5891 120.918 81.7807 120.918 82.0683C120.918 82.6436 120.918 82.6436 120.151 82.0683Z" fill="white"/>
<path d="M126.575 82.0362C126.159 81.6209 126.351 80.3744 126.862 80.1828C127.789 79.8313 128.204 79.9912 128.396 80.8219C128.524 81.3016 128.588 81.7169 128.524 81.7486C128.268 82.0362 126.766 82.2283 126.575 82.0362Z" fill="white"/>
<path d="M129.419 81.3654C129.323 81.2694 129.227 80.854 129.227 80.4703C129.227 79.9273 129.482 79.7035 130.25 79.5436C130.921 79.4159 131.336 79.4797 131.528 79.7352C131.847 80.2466 131.847 80.8857 131.56 81.0456C130.984 81.3654 129.642 81.557 129.419 81.3654Z" fill="white"/>
<path d="M118.681 80.3743C118.681 79.9911 118.969 79.6713 119.384 79.5758C120.215 79.352 120.183 79.3199 120.343 80.151C120.407 80.6302 120.247 80.8218 119.575 80.8857C118.873 80.9817 118.681 80.854 118.681 80.3743Z" fill="white"/>
<path d="M121.11 80.4065C120.662 79.9273 120.95 79.0322 121.557 79.0322C121.973 79.0322 122.196 79.256 122.196 79.6397C122.196 80.2466 121.461 80.758 121.11 80.4065Z" fill="white"/>
<path d="M123.027 79.4475C122.772 78.8406 123.315 78.3931 124.369 78.3931C124.849 78.3931 125.073 78.5847 125.073 79.0005C125.073 79.352 124.785 79.6713 124.369 79.799C123.315 80.055 123.251 80.055 123.027 79.4475Z" fill="white"/>
<path d="M132.263 79.352C132.359 79.1921 132.519 79.0322 132.615 79.0322C132.71 79.0322 132.678 79.1921 132.582 79.352C132.487 79.5436 132.327 79.6713 132.231 79.6713C132.135 79.6713 132.167 79.5436 132.263 79.352Z" fill="white"/>
<path d="M125.903 78.8084C125.648 78.1693 125.967 77.85 126.99 77.6901C127.565 77.6263 127.821 77.754 127.885 78.2015C128.108 79.2559 126.287 79.8312 125.903 78.8084Z" fill="white"/>
<path d="M118.233 78.2654C117.946 77.2104 118.01 77.1149 118.841 77.1149C119.288 77.1149 119.639 77.2426 119.639 77.4025C119.639 77.5624 119.735 77.9139 119.831 78.1693C119.927 78.4891 119.735 78.6807 119.192 78.7768C118.585 78.9045 118.361 78.7768 118.233 78.2654Z" fill="white"/>
<path d="M128.907 77.9139C128.907 77.3387 129.131 77.0827 129.738 76.9228C130.633 76.6995 131.144 77.1466 131.144 78.1694C131.144 78.5847 130.889 78.7129 130.026 78.7129C129.035 78.7129 128.907 78.6169 128.907 77.9139Z" fill="white"/>
<path d="M117.274 77.9139C117.179 77.658 117.243 77.4342 117.402 77.4342C117.594 77.4342 117.722 77.658 117.722 77.9139C117.722 78.1694 117.658 78.3931 117.594 78.3931C117.53 78.3931 117.402 78.1694 117.274 77.9139Z" fill="white"/>
<path d="M120.502 78.1693C120.055 77.7539 120.311 76.8589 120.886 76.6995C121.237 76.6034 121.589 76.6351 121.685 76.7312C122.069 77.0827 121.845 78.0094 121.365 78.2015C120.758 78.4252 120.758 78.4252 120.502 78.1693Z" fill="white"/>
<path d="M131.912 77.9456C131.56 77.0188 131.943 76.3159 132.838 76.2198C133.509 76.1243 133.701 76.252 133.701 76.7634C133.701 77.8178 133.35 78.3931 132.71 78.3931C132.359 78.3931 132.007 78.2015 131.912 77.9456Z" fill="white"/>
<path d="M122.739 77.5302C122.356 77.1787 122.484 76.5396 123.027 76.3475C123.634 76.1243 124.913 76.7634 124.561 77.1149C124.114 77.498 122.963 77.7857 122.739 77.5302Z" fill="white"/>
<path d="M125.52 76.7312C125.232 76.2837 126.255 75.5169 127.086 75.5169C127.469 75.5169 127.629 75.7084 127.565 76.0599C127.437 76.6995 125.807 77.2104 125.52 76.7312Z" fill="white"/>
<path d="M116.763 76.5074C116.763 76.3475 116.668 75.996 116.572 75.7084C116.475 75.4208 116.508 75.197 116.699 75.197C117.115 75.197 117.434 76.4119 117.051 76.6673C116.891 76.7634 116.763 76.6995 116.763 76.5074Z" fill="white"/>
<path d="M117.626 75.7724C117.434 75.0694 117.818 74.558 118.553 74.558C118.969 74.558 119.384 75.8045 119.128 76.2199C118.776 76.7635 117.786 76.4437 117.626 75.7724Z" fill="white"/>
<path d="M119.863 75.9322C119.384 75.453 119.672 74.3025 120.311 74.1426C120.79 74.0148 121.046 74.1747 121.301 74.75C121.493 75.1653 121.589 75.5807 121.525 75.6445C121.206 75.9322 120.055 76.1559 119.863 75.9322Z" fill="white"/>
<path d="M128.492 75.9322C128.076 75.5168 128.268 75.2614 129.227 74.9099C130.026 74.654 130.25 74.6861 130.409 75.0693C130.697 75.8366 129.099 76.5713 128.492 75.9322Z" fill="white"/>
<path d="M131.304 75.1976C130.985 74.6862 131.432 74.2387 132.263 74.2387C133.254 74.2387 133.541 75.0694 132.646 75.3253C131.688 75.5807 131.528 75.5491 131.304 75.1976Z" fill="white"/>
<path d="M134.021 74.4302C134.021 73.951 134.596 73.4396 134.852 73.6951C135.076 73.9188 134.628 74.8777 134.308 74.8777C134.148 74.8777 134.021 74.6862 134.021 74.4302Z" fill="white"/>
<path d="M116.348 74.0149C116.22 73.9188 116.124 73.5035 116.156 73.152C116.156 72.5446 116.188 72.5446 116.475 73.248C116.795 74.0149 116.731 74.3985 116.348 74.0149Z" fill="white"/>
<path d="M116.955 73.5357C116.668 72.4169 116.699 72.3213 117.53 72.3213C118.457 72.3213 119.032 73.5035 118.329 73.951C117.594 74.3985 117.179 74.2703 116.955 73.5357Z" fill="white"/>
<path d="M127.949 74.1748C127.949 74.0787 128.109 73.5674 128.3 72.9921C128.748 71.7139 129.738 71.65 129.962 72.8966C130.058 73.3758 130.09 73.7911 130.058 73.8233C129.898 74.0149 127.949 74.3025 127.949 74.1748Z" fill="white"/>
<path d="M119.224 73.3758C119.096 73.2797 119 72.8966 119 72.5446C119 72.0337 119.096 72.0015 119.48 72.3213C119.735 72.5446 119.959 72.9283 119.959 73.152C119.959 73.6312 119.575 73.7594 119.224 73.3758Z" fill="white"/>
<path d="M130.729 72.7366C130.537 71.746 130.953 71.2985 131.943 71.4262C132.422 71.4901 132.582 71.7777 132.582 72.4807C132.582 73.2797 132.455 73.4718 131.752 73.5357C131.049 73.6312 130.889 73.4718 130.729 72.7366Z" fill="white"/>
<path d="M133.861 72.8644C133.445 71.5862 133.573 71.2025 134.436 71.1065C135.203 71.0109 135.299 71.1065 135.299 71.9377C135.299 72.6406 135.107 72.9283 134.628 73.056C134.276 73.152 133.925 73.056 133.861 72.8644Z" fill="white"/>
<path d="M115.869 71.0426C115.869 70.4357 115.932 70.1798 116.028 70.4996C116.092 70.7872 116.092 71.2986 116.028 71.6179C115.932 71.9055 115.869 71.6501 115.869 71.0426Z" fill="white"/>
<path d="M116.668 71.4584C116.252 71.0748 116.444 69.8282 116.955 69.6367C117.69 69.349 118.042 69.7005 118.042 70.755C118.042 71.4263 117.882 71.6817 117.467 71.6817C117.147 71.6817 116.763 71.5862 116.668 71.4584Z" fill="white"/>
<path d="M118.585 70.5956C118.457 70.1159 118.393 69.6045 118.521 69.5089C118.84 69.1891 119.032 69.7005 118.936 70.6273L118.84 71.5223L118.585 70.5956Z" fill="white"/>
<path d="M128.907 70.3718C128.907 70.0204 129.067 69.8283 129.227 69.9243C129.419 70.0204 129.546 70.3397 129.546 70.5956C129.546 70.851 129.419 71.0426 129.227 71.0426C129.067 71.0426 128.907 70.755 128.907 70.3718Z" fill="white"/>
<path d="M130.345 70.7872C129.898 70.308 130.25 69.4451 130.984 69.2531C131.912 69.0293 131.943 69.0293 132.231 69.956C132.423 70.5313 132.295 70.6595 131.464 70.7872C130.953 70.8833 130.441 70.8511 130.345 70.7872Z" fill="white"/>
<path d="M133.285 70.1798C132.934 69.8605 133.03 68.8055 133.381 68.8055C133.573 68.8055 133.701 68.6778 133.701 68.4862C133.701 68.3263 133.509 68.1664 133.254 68.1664C132.71 68.1664 132.263 66.6006 132.71 66.153C133.285 65.5778 133.924 66.1852 134.308 67.751C134.532 68.5822 134.756 69.5406 134.852 69.8604C134.979 70.2758 134.852 70.4035 134.244 70.4035C133.829 70.4035 133.381 70.308 133.285 70.1798Z" fill="white"/>
<path d="M135.011 68.4861C134.788 67.5272 134.213 65.6099 133.797 64.204C133.158 62.1584 133.094 61.647 133.445 61.4233C133.669 61.2634 133.957 61.1356 134.053 61.1356C134.404 61.1356 135.682 67.6871 135.555 68.9653L135.459 70.2435L135.011 68.4861Z" fill="white"/>
<path d="M115.549 68.3263C115.549 67.8149 115.613 67.6233 115.709 67.9426C115.773 68.2302 115.773 68.6778 115.709 68.9015C115.613 69.0931 115.549 68.8698 115.549 68.3263Z" fill="white"/>
<path d="M116.188 68.2624C116.316 67.1441 117.243 66.8881 117.498 67.9109C117.722 68.7416 117.786 68.646 116.827 68.9653C116.156 69.1574 116.092 69.0931 116.188 68.2624Z" fill="white"/>
<path d="M129.675 67.9748C129.419 67.0481 129.962 66.505 130.984 66.6328C131.752 66.7283 132.039 68.1026 131.4 68.5179C130.601 69.0293 129.866 68.8055 129.675 67.9748Z" fill="white"/>
<path d="M118.042 67.7194C118.042 67.1758 118.201 66.8882 118.553 66.8882C118.873 66.8882 119 67.112 118.936 67.5912C118.776 68.6139 118.042 68.71 118.042 67.7194Z" fill="white"/>
<path d="M115.197 66.3768C115.197 66.0253 115.293 65.9297 115.389 66.1852C115.485 66.4089 115.453 66.6966 115.357 66.7926C115.261 66.9203 115.166 66.7282 115.197 66.3768Z" fill="white"/>
<path d="M115.805 66.2812C115.805 65.8015 115.996 65.6099 116.475 65.6099C116.923 65.6099 117.083 65.7698 117.019 66.1529C116.859 66.9841 115.805 67.0797 115.805 66.2812Z" fill="white"/>
<path d="M117.562 65.9936C117.338 65.4183 117.338 65.4183 118.297 65.1624C118.873 64.9708 119 65.0669 119 65.5461C119 66.3129 117.85 66.6966 117.562 65.9936Z" fill="white"/>
<path d="M129.131 65.546C128.907 64.747 129.323 64.3317 130.441 64.3317C130.984 64.3317 131.144 64.5233 131.144 65.1307C131.144 65.6099 130.953 65.9292 130.697 65.9292C130.441 65.9292 130.026 66.0252 129.77 66.1213C129.482 66.2168 129.259 66.0252 129.131 65.546Z" fill="white"/>
<path d="M131.912 64.811C131.656 64.1719 132.039 63.6926 132.774 63.6926C133.222 63.6926 133.381 63.9164 133.381 64.4916C133.381 65.0669 133.222 65.2902 132.742 65.2902C132.391 65.2902 132.007 65.0669 131.912 64.811Z" fill="white"/>
<path d="M115.485 64.3634C115.485 63.6926 116.22 62.9253 116.54 63.2768C116.668 63.3728 116.763 63.8203 116.763 64.2357C116.763 64.747 116.572 64.9708 116.124 64.9708C115.709 64.9708 115.485 64.7471 115.485 64.3634Z" fill="white"/>
<path d="M117.243 63.9802C116.987 63.1812 117.275 62.8297 118.361 62.6698C119.352 62.5421 119.672 63.5965 118.809 64.2357C117.978 64.8431 117.467 64.747 117.243 63.9802Z" fill="white"/>
<path d="M128.812 63.7882C128.588 63.5966 128.492 62.414 128.684 62.414C128.716 62.414 129.195 62.2862 129.77 62.1263C130.729 61.8387 130.793 61.8709 130.761 62.7338C130.729 63.3729 130.537 63.6927 130.058 63.8204C129.195 64.0442 129.067 64.0442 128.812 63.7882Z" fill="white"/>
<path d="M127.629 63.0535C127.629 62.8297 127.725 62.7337 127.853 62.8297C127.949 62.9574 127.949 63.149 127.853 63.2767C127.725 63.3728 127.629 63.2767 127.629 63.0535Z" fill="white"/>
<path d="M131.208 62.5421C131.304 61.9986 132.295 61.1995 132.519 61.4555C132.615 61.551 132.774 61.9347 132.87 62.35C133.094 62.9892 132.998 63.0535 132.103 63.0535C131.336 63.0535 131.113 62.9253 131.208 62.5421Z" fill="white"/>
<path d="M115.805 62.51C115.805 62.3501 115.965 62.0308 116.124 61.7748C116.38 61.3917 116.444 61.4234 116.444 62.0308C116.444 62.414 116.316 62.7338 116.124 62.7338C115.965 62.7338 115.805 62.6377 115.805 62.51Z" fill="white"/>
<path d="M116.763 61.807C116.763 60.9119 117.434 60.6243 117.946 61.2956C118.265 61.7748 118.265 61.9347 117.946 62.1585C117.274 62.5738 116.763 62.4461 116.763 61.807Z" fill="white"/>
<path d="M126.478 61.3916C125.903 60.7525 125.903 60.7203 126.447 60.9119C126.766 61.0401 127.181 61.1357 127.341 61.1357C127.501 61.1357 127.629 61.3594 127.629 61.6154C127.629 62.2862 127.181 62.2223 126.478 61.3916Z" fill="white"/>
<path d="M119.608 61.3595C118.233 60.305 118.042 57.9402 119.32 57.9402C120.183 57.9402 120.982 59.2823 120.854 60.5288C120.758 61.6793 120.375 61.9348 119.608 61.3595Z" fill="white"/>
<path d="M128.364 61.551C128.492 61.4555 128.683 61.4555 128.812 61.551C128.907 61.6793 128.812 61.7748 128.588 61.7748C128.364 61.7748 128.268 61.6793 128.364 61.551Z" fill="white"/>
<path d="M133.19 60.3049C133.285 60.0173 133.381 59.7297 133.381 59.6658C133.381 59.602 133.541 59.5376 133.701 59.5376C133.893 59.5376 134.021 59.8252 134.021 60.1772C134.021 60.5604 133.797 60.8163 133.509 60.8163C133.158 60.8163 133.062 60.6564 133.19 60.3049Z" fill="white"/>
<path d="M116.444 60.2089C116.444 59.4738 117.115 58.2594 117.498 58.2594C118.17 58.2594 117.69 60.305 116.987 60.4327C116.699 60.4965 116.444 60.4005 116.444 60.2089Z" fill="white"/>
<path d="M123.634 59.8574L122.675 59.6337L123.538 59.4099C124.433 59.1545 125.073 59.3461 125.073 59.8896C125.073 60.2089 125.04 60.2089 123.634 59.8574Z" fill="white"/>
<path d="M122.516 58.3232C122.516 57.0133 123.251 56.8213 123.922 57.9718C124.37 58.7391 124.401 58.8985 123.986 58.8985C123.73 58.8985 123.315 58.9945 123.027 59.0906C122.644 59.25 122.516 59.0584 122.516 58.3232Z" fill="white"/>
<path d="M128.076 58.7708C126.638 58.1317 125.712 56.4382 125.712 54.4248C125.712 52.9867 125.839 52.6352 126.702 51.8362C127.245 51.3248 127.789 50.9094 127.949 50.9094C128.652 50.9094 131.24 53.3698 132.103 54.904L133.094 56.6619L132.039 57.7802C130.825 59.0584 129.482 59.4099 128.076 58.7708Z" fill="white"/>
<path d="M121.397 57.9402C121.301 57.7803 121.365 57.6204 121.525 57.6204C121.717 57.6204 121.876 57.7803 121.876 57.9402C121.876 58.1318 121.813 58.2595 121.749 58.2595C121.653 58.2595 121.493 58.1318 121.397 57.9402Z" fill="white"/>
<path d="M117.211 57.4287C117.307 57.1411 117.403 56.8535 117.403 56.7896C117.403 56.7257 117.69 56.6619 118.042 56.6619C118.841 56.6619 118.873 57.1728 118.073 57.6203C117.211 58.0678 116.987 58.0356 117.211 57.4287Z" fill="white"/>
<path d="M119.735 57.0451C119 56.9496 118.776 56.5337 119.256 56.2461C119.384 56.1506 119.959 55.9906 120.534 55.8629C121.397 55.6708 121.557 55.7347 121.557 56.2783C121.557 56.9496 120.886 57.2372 119.735 57.0451Z" fill="white"/>
<path d="M122.196 55.9584C122.196 55.5753 122.228 55.3515 122.292 55.4154C122.324 55.4792 122.579 55.799 122.803 56.1183C123.187 56.5659 123.155 56.6619 122.708 56.6619C122.388 56.6619 122.196 56.406 122.196 55.9584Z" fill="white"/>
<path d="M117.722 55.7347C117.722 55.5431 117.882 55.3194 118.042 55.2238C118.233 55.1278 118.361 55.2555 118.361 55.5115C118.361 55.7991 118.233 56.0224 118.042 56.0224C117.882 56.0224 117.722 55.8946 117.722 55.7347Z" fill="white"/>
<path d="M118.905 55.2554C118.649 54.6163 120.918 53.9133 121.301 54.5203C121.589 55.0317 121.301 55.2554 120.087 55.5114C119.352 55.6708 119.032 55.6069 118.905 55.2554Z" fill="white"/>
<path d="M121.909 54.2327C121.909 53.8812 122.004 53.7857 122.1 54.0411C122.196 54.2649 122.164 54.5525 122.069 54.6486C121.973 54.7763 121.876 54.5842 121.909 54.2327Z" fill="white"/>
<path d="M119.192 53.7213C119.575 53.0183 120.694 51.8678 120.982 51.8678C121.301 51.8678 121.333 53.3698 121.014 53.5619C120.854 53.6257 120.343 53.7856 119.863 53.9134C119.16 54.0733 119 54.0411 119.192 53.7213Z" fill="white"/>
<path d="M121.749 52.9867C121.397 52.0277 121.557 51.6124 122.324 51.4847C123.123 51.3248 123.123 51.3248 122.612 52.3154C121.973 53.5936 122.004 53.5936 121.749 52.9867Z" fill="white"/>
<path d="M121.557 51.0688C121.557 51.0049 122.196 50.5574 122.995 50.1104C123.954 49.5351 124.625 49.3433 125.104 49.4711C125.679 49.6629 125.52 49.7906 124.114 50.4619C122.548 51.1648 121.557 51.4203 121.557 51.0688Z" fill="white"/>
<path d="M139.294 22.7543C138.431 21.508 136.609 19.4946 135.299 18.2802C133.989 17.0658 133.126 16.0751 133.381 16.0751C134.084 16.0751 139.454 17.5451 140.796 18.1204C141.914 18.5998 141.946 18.6637 141.659 19.6544C141.499 20.2296 141.371 21.6678 141.371 22.8502C141.371 24.0646 141.275 25.0233 141.147 25.0233C140.987 25.0233 140.188 24.0007 139.294 22.7543Z" fill="white"/>
<path d="M74.2592 119.555C72.9492 118.883 72.6612 118.5 71.0002 115.209C68.6032 110.543 68.5392 109.457 70.8082 112.109C71.7032 113.163 73.7802 115.336 75.4102 116.934C78.1902 119.618 78.3182 119.81 77.3912 119.682C76.7202 119.587 76.4642 119.651 76.6242 119.906C77.0082 120.481 75.7932 120.321 74.2592 119.555Z" fill="white"/>
<path fill-rule="evenodd" clip-rule="evenodd" d="M127.817 177.779C127.552 177.149 127.848 176.423 128.477 176.158L129.166 175.866C135.86 173.002 139.703 171.281 142.314 168.549C144.925 165.817 145.237 161.804 145.727 159.362C145.862 158.692 147.379 159.869 148.049 160.004C148.72 160.138 149.154 160.791 149.019 161.46C148.429 164.397 146.841 167.196 144.284 169.853C141.736 172.501 136.803 175.339 129.438 178.44C128.808 178.705 128.082 178.409 127.817 177.779Z" fill="#00160A"/>
<path fill-rule="evenodd" clip-rule="evenodd" d="M158.089 50.2673C158.677 49.9178 159.436 50.1104 159.786 50.6975C163.287 56.5782 165.162 63.301 165.162 70.2951C165.162 91.4842 147.985 108.661 126.796 108.661C121.165 108.661 115.704 107.447 110.704 105.133C110.083 104.846 107.74 102.56 110.1 103.49C112.46 104.419 121.592 106.505 126.862 106.505C146.683 106.505 160.707 90.1173 160.707 70.2951C160.707 63.7495 158.089 57.9401 157.659 51.9639C157.609 51.2708 157.502 50.6168 158.089 50.2673Z" fill="#00160A"/>
<path fill-rule="evenodd" clip-rule="evenodd" d="M35.5182 143.936C35.9556 143.411 36.736 142.35 37.2612 142.787C39.4157 144.582 41.7149 146.661 44.1743 147.063C46.7335 147.481 49.7698 147.48 53.2787 147.055C53.9574 146.973 54.5737 147.456 54.6559 148.136C54.7381 148.814 54.2549 149.431 53.5762 149.513C49.8495 149.964 46.5842 149.964 43.7756 149.506C40.8672 149.03 38.1625 147.75 35.677 145.68C35.1518 145.242 35.0807 144.461 35.5182 143.936Z" fill="#00160A"/>
<path d="M61.796 100.635C60.198 99.3575 56.7782 95.5867 54.1895 92.2629C52.8475 90.505 51.3455 86.9258 50.4504 83.3144C50.0351 81.6847 49.6197 80.2149 49.5237 80.0228C49.396 79.8634 48.8847 77.5941 48.3734 74.9738C47.6064 71.2664 47.7686 70.0723 47.0951 65.6381C46.8099 63.7604 46.5518 62.2664 46.5518 62.2664L47.3827 61.1995C47.8621 60.5604 48.4685 59.503 48.693 58.8985C49.7158 56.1471 57.2257 47.5217 57.4494 47.7454C57.5133 47.8093 57.2579 49.3113 56.8103 51.0688C56.395 52.8268 55.8836 55.4792 55.6598 56.9812C55.34 59.4738 55.2123 59.7614 54.2217 60.5926C52.9752 61.6471 50.6103 65.0347 50.6103 65.7377C50.6103 66.6966 52.0484 66.0575 53.5504 64.4916L55.0846 62.8936V64.651C55.0846 65.8015 54.8608 66.8565 54.4455 67.6872C53.6465 69.253 53.6465 70.9149 54.4133 72.1931C54.797 72.8322 55.1484 74.3664 55.3722 76.1882C56.3628 84.4332 58.4722 91.5916 62.0836 98.7822C62.9782 100.571 63.6812 102.042 63.6492 102.042C63.5852 102.042 62.7544 101.403 61.796 100.635Z" fill="white"/>
<path fill-rule="evenodd" clip-rule="evenodd" d="M194.773 120.353L197.074 121.376C197.551 121.596 202.815 124.125 209.137 127.163C219.33 132.061 232.276 138.282 232.355 138.282C232.483 138.282 233.083 136.895 233.218 135.278C233.538 131.795 234.72 127.064 236.094 123.773C236.733 122.303 237.245 120.465 237.245 120.306C237.245 120.233 236.725 120.023 235.875 119.68C234.862 119.272 233.381 118.674 231.748 117.893C223.695 114.026 207.939 106.132 205.99 104.95C204.073 103.831 203.689 103.735 203.689 104.47C203.689 105.429 201.739 109.871 200.237 112.268C199.439 113.578 197.873 115.943 196.754 117.509L194.773 120.353ZM231.812 132.529C232.728 133.06 231.141 133.84 230.758 133.967C228.499 134.159 225.841 133.735 223.663 132.465C222.524 131.658 213.556 126.676 207.608 123.371C204.888 121.86 202.8 120.7 202.379 120.45C201.036 119.651 199.758 118.788 199.534 118.532C198.864 117.669 199.503 117.286 201.388 117.445C202.522 117.541 229.832 131.382 231.812 132.529Z" fill="white"/>
<path d="M171.827 123.23C170.996 122.942 170.101 122.303 169.526 121.568L168.567 120.385L171.955 117.03C177.164 111.916 180.999 106.328 184.45 100.097C185.601 98.0199 189.02 89.6422 189.436 88.7154C190.075 87.3734 190.554 86.862 191.928 86.0951C193.558 85.1362 195.412 84.8169 196.211 85.36C197.745 86.3828 197.745 89.6105 196.211 95.1709C194.517 101.274 192.248 105.653 187.55 111.949C186.815 112.908 185.441 114.793 184.45 116.103C181.798 119.618 180.072 121.312 177.739 122.622C175.438 123.901 174.096 124.06 171.827 123.23Z" fill="white"/>
<path d="M183.875 122.495L183.204 121.823C183.204 121.823 194.343 107.671 196.339 102.457C197.862 98.4782 198.758 97.3495 199.968 97.3495C200.644 97.3495 201.196 97.504 201.452 97.8876C201.899 98.5584 202.33 99.3896 201.755 102.233C200.796 106.835 199.326 109.871 194.916 116.423C193.894 117.925 192.583 119.587 192.008 120.162C190.666 121.408 187.646 122.686 185.888 122.974C184.77 123.134 184.45 123.07 183.875 122.495Z" fill="white"/>
<path fill-rule="evenodd" clip-rule="evenodd" d="M202.585 107.696C203.23 106.222 203.689 104.936 203.689 104.47C203.689 103.735 204.073 103.831 205.99 104.95C207.939 106.132 223.695 114.026 231.748 117.893C234.752 119.331 237.245 120.146 237.245 120.306C237.245 120.465 201.902 109.259 202.585 107.696Z" fill="#E7EAEE"/>
<path fill-rule="evenodd" clip-rule="evenodd" d="M93.2422 109.521C89.1832 106.868 83.0482 100.636 80.0752 96.1936C75.8252 89.802 73.0132 82.9629 71.6392 75.6129C70.6482 70.2758 70.6802 62.0624 71.6712 57.301C72.6932 52.4431 74.0042 48.736 76.3362 44.0382C79.0532 38.6054 81.9292 34.6107 86.2432 30.2963C90.4742 26.0656 71.6712 43.5615 76.3362 74.8659C80.0752 101.099 96.1452 111.433 93.2422 109.521Z" fill="#E7EAEE"/>
</svg>
