<svg width="378" height="327" viewBox="0 0 378 327" fill="none" xmlns="http://www.w3.org/2000/svg">
<path fill-rule="evenodd" clip-rule="evenodd" d="M206.094 285C241.889 285 273.302 258.361 255.661 222.179C238.019 185.997 303.568 187.165 322.823 162.158C346.305 131.661 339.505 2.20662 188.759 81.1286C164.612 93.7709 102.595 68.1223 82.0238 80.8487C57.8093 95.8288 23.7413 126.503 57.8093 157.925C74.5908 173.402 14.4258 213.575 40.7768 249.559C66.4887 284.671 84.5127 251.199 123.658 258.361C162.805 265.523 179.509 285 206.094 285Z" fill="#DED3FF"/>
<path d="M169.384 214.388C169.384 214.388 177.914 210.931 181.099 208.526C184.283 206.121 188.242 200.145 188.242 200.145C188.242 200.145 231.732 227.205 260.089 223.345C266.622 222.456 279.353 218.714 280.164 212.122C282.381 194.119 251.71 189.519 258.41 180.39C262.499 174.818 275.203 183.111 275.203 183.111L327.897 205.442C327.897 205.442 309.693 244.105 265.516 245.654C211.172 247.56 169.384 214.388 169.384 214.388Z" fill="white"/>
<path fill-rule="evenodd" clip-rule="evenodd" d="M127.606 62.9766C127.111 62.8096 124.456 60.0071 121.083 59.4973C119.551 59.2654 120.942 60.9467 119.256 60.9617C114.233 61.0066 106.071 60.194 104.559 60.9617C103.435 61.5306 105.91 63.5182 104.559 63.6094C91.8116 64.4701 72.3648 75.4365 68.1454 80.7567C66.8027 82.4498 77.6624 79.5769 75.932 80.4142C73.9898 81.3538 71.8364 87.5051 70.5484 92.2563C69.6569 95.5281 69.0958 99.7385 68.8973 104.319C68.7321 108.273 68.7986 108.928 69.4589 111.09C70.218 113.508 70.8124 114.219 71.8364 113.878C72.1995 113.764 72.3648 113.337 72.3648 112.541C72.3648 111.915 72.7607 110.037 73.2558 108.359L74.1146 105.343L74.4778 106.595C74.9402 108.046 77.6476 112.541 80.091 115.812C80.223 115.986 80.7902 115.765 81.3012 114.7C81.7672 113.73 81.5779 112.18 82.3697 110.519C84.1723 106.735 87.7124 101.814 91.8116 97.8761C97.8698 92.0554 99.8795 85.3192 105.559 79.9118C116.156 69.8207 129.458 63.6028 127.606 62.9766Z" fill="white"/>
<path fill-rule="evenodd" clip-rule="evenodd" d="M76.0829 81.787C74.3826 82.965 71.8594 92.5185 71.8159 92.6785C70.9244 95.9498 70.065 107.312 70.9433 109.463C71.822 111.614 74.2819 103.86 74.2819 103.86C74.2819 103.86 77.9995 112.177 81.2848 114.458C81.425 114.555 77.38 104.167 76.0829 98.1022C74.3704 90.0969 77.0501 81.1167 76.0829 81.787Z" fill="#E7EAEE"/>
<path fill-rule="evenodd" clip-rule="evenodd" d="M139.448 249.105C142.618 248.508 147.966 246.427 150.014 245.716C152.062 245.004 158.302 237.412 160.548 228.849C162.166 222.533 162.991 213.543 162.066 212.035C161.93 211.822 161.431 207.733 162.76 209.068C165.715 212.035 169.224 216.693 180.293 208.347C183.308 206.073 187.304 203.139 186.252 200.545C183.308 193.288 170.547 178.674 168.601 177.567C166.275 176.243 154.518 177.368 137.021 172.919C117.178 167.873 108.916 153.014 101.151 154.948C94.8708 156.512 79.825 166.125 76.0491 172.212C58.2222 200.951 79.825 221.089 84.7446 226.872L89.5215 228.65L89.6863 232.32L89.9174 234.624C90.3466 239.034 90.5118 239.432 92.8233 240.912C98.6017 244.695 109.994 248.223 120.296 249.475C125.084 250.044 135.485 249.845 139.448 249.105Z" fill="white"/>
<path fill-rule="evenodd" clip-rule="evenodd" d="M91.4003 230.977L91.631 233.281C92.0606 237.691 92.2253 238.089 94.5368 239.568C97.946 241.8 103.309 243.943 109.248 245.583C113.377 246.722 117.785 247.618 122.01 248.131C126.798 248.7 137.199 248.501 141.161 247.762C143.12 247.396 127.01 236.491 117.519 239.568C110.23 241.931 93.0519 223.907 100.036 219.198C107.872 213.915 93.5143 193.081 93.0519 188.557C92.5895 184.034 90.7691 182.953 90.7159 183.112C90.6627 183.271 90.6627 183.812 90.8059 185.116C91.4218 190.736 91.4003 230.977 91.4003 230.977Z" fill="#E7EAEE"/>
<path fill-rule="evenodd" clip-rule="evenodd" d="M89.6801 187.266C90.3732 187.15 91.0443 187.54 91.1793 188.137C93.6714 199.168 104.213 206.636 123.063 210.541C142.024 214.47 154.94 214.258 161.745 210.065C162.32 209.711 161.891 212.742 161.47 212.974C157.032 215.427 141.941 219.086 123.932 215.779C100.906 211.55 90.0944 194.869 88.6689 188.558C88.5344 187.961 88.9865 187.382 89.6801 187.266Z" fill="#5F2EEA"/>
<path fill-rule="evenodd" clip-rule="evenodd" d="M80.0777 167.364C80.691 167.061 103.561 189.644 134.947 194.756C166.332 199.867 173.931 196.617 175.153 189.644C175.258 189.043 175.91 188.628 176.608 188.719C177.306 188.81 177.787 189.371 177.681 189.973C176.133 198.81 161.611 200.911 134.516 196.928C107.762 192.995 89.4198 183.649 79.603 168.867C79.2521 168.339 79.4649 167.665 80.0777 167.364Z" fill="#5F2EEA"/>
<path fill-rule="evenodd" clip-rule="evenodd" d="M211.808 166.111C210.95 165.855 210.025 165.286 209.431 164.632L208.44 163.579L211.94 160.592C217.323 156.04 221.45 151.374 225.016 145.827C226.205 143.977 229.21 137.804 229.21 137.206C229.21 137.007 229.573 136.21 230.003 135.385C230.663 134.191 231.158 133.735 232.578 133.053C234.262 132.199 236.177 131.915 237.002 132.398C238.588 133.309 238.588 136.182 237.002 141.132C235.253 146.567 232.908 150.464 228.054 156.068C227.295 156.922 225.875 158.6 224.851 159.767C222.111 162.896 220.327 164.404 217.917 165.57C215.54 166.709 214.153 166.851 211.808 166.111ZM235.517 163.551L237.894 164.461C238.387 164.657 243.825 166.908 250.358 169.613C260.891 173.973 274.267 179.511 274.348 179.511C274.48 179.511 275.1 178.276 275.24 176.836C275.57 173.736 276.792 169.525 278.212 166.595C278.872 165.286 279.4 163.65 279.4 163.508C279.4 163.443 278.864 163.257 277.984 162.951C276.938 162.588 275.408 162.056 273.721 161.36C265.4 157.918 249.121 150.891 247.107 149.838C245.126 148.842 244.729 148.757 244.729 149.411C244.729 150.265 242.715 154.219 241.163 156.353C240.337 157.519 238.72 159.624 237.564 161.019L235.517 163.551ZM273.787 174.39C274.734 174.863 273.093 175.556 272.697 175.67C270.364 175.841 267.617 175.463 265.367 174.333C264.19 173.614 254.924 169.179 248.778 166.237C245.969 164.892 243.811 163.859 243.376 163.636C241.989 162.925 240.668 162.157 240.437 161.929C239.743 161.161 240.404 160.82 242.352 160.962C243.523 161.047 271.742 173.369 273.787 174.39ZM139.56 248.871C142.108 248.39 146.061 246.953 148.579 246.038C149.195 245.814 149.724 245.621 150.127 245.481C152.175 244.77 158.415 237.178 160.66 228.615C162.278 222.299 163.104 213.309 162.179 211.801C161.622 210.928 164.933 213.857 167.4 216.039C168.148 216.7 168.818 217.293 169.279 217.69C183.675 230.009 205.105 239.909 227.361 244.546C238.456 246.879 246.347 247.704 256.947 247.704C274.745 247.704 288.778 244.689 301.524 238.06C302.129 237.745 302.697 237.456 303.237 237.18C307.68 234.913 310.327 233.563 317.572 226.538C325.697 218.657 332.926 200.364 335.337 194.048C336.393 191.204 338.969 179.888 338.969 177.064C338.969 173.721 337.615 172.143 335.766 170.521C332.497 167.761 328.072 166.766 324.407 167.96L322.69 168.529L322.161 167.022C321.402 164.745 319.817 162.925 317.374 161.559C313.741 159.483 313.213 159.34 309.944 159.34C307.401 159.34 306.708 159.454 305.09 160.108L303.208 160.848L302.812 159.824C302.052 157.718 299.505 154.784 297.528 153.935C295.776 153.182 292.741 153.113 290.627 153.451C286.004 154.191 282.703 156.04 281.349 158.629C280.952 159.425 280.457 160.052 280.259 160.052C280.094 160.052 273.589 158.486 265.829 155.527C264.52 155.027 263.291 154.557 262.136 154.116C248.202 148.795 245.181 147.641 245.456 146.196C245.687 144.973 245.621 144.29 245.225 143.238C244.531 141.474 243.739 140.99 241.493 140.99C239.71 140.99 239.71 140.99 239.908 140.222C240.965 135.869 240.932 133.366 239.81 131.773C239.05 130.72 238.158 130.293 236.111 130.037C234.922 129.895 234.361 129.98 233.04 130.606C232.149 131.004 231.389 131.289 231.323 131.232C231.257 131.175 231.488 129.611 231.852 127.761C234.559 114.077 232.467 102.287 225.566 89.769C225.5 89.6491 225.424 89.5076 225.336 89.3455C223.238 85.4647 214.802 69.8599 190.676 61.9859C189.584 61.6294 188.55 61.2852 187.557 60.9538C179.339 58.213 173.875 56.3907 160.693 56.4097C145.918 56.4308 140.914 58.2307 131.173 62.0714C129.819 62.6117 128.63 62.9246 128.532 62.8109C128.433 62.6685 127.805 62.3274 127.178 62.0427C126.55 61.7585 125.197 61.0472 124.206 60.4782C121.366 58.8283 119.616 58.1452 118.725 58.3162C117.701 58.5436 117.701 59.2831 118.725 59.6246C119.154 59.767 119.649 60.2504 119.847 60.7343C120.277 61.7585 120.772 61.8722 121.069 61.0185C121.201 60.7056 121.399 60.4782 121.499 60.5351C121.536 60.5514 121.662 60.6021 121.854 60.6792C122.336 60.874 123.237 61.2376 124.206 61.6443C125.56 62.2137 127.046 62.8109 127.442 62.9532C128.169 63.1806 127.937 63.3516 124.8 64.9447C112.55 71.1467 102.578 80.791 96.9977 91.7724C96.1388 93.4228 95.3793 94.447 94.587 95.016C92.5727 96.4668 88.6106 100.592 87.6858 102.213C87.1906 103.095 86.1339 104.461 85.3083 105.257C84.516 106.054 83.6572 107.078 83.36 107.505C83.0961 107.96 82.8316 108.273 82.7329 108.216C82.6669 108.131 82.7656 106.737 82.9968 105.116C83.4925 101.332 83.4925 100.336 83.0961 100.251C82.5017 100.108 81.6434 102.1 81.2797 104.575C81.0158 106.083 80.9498 108.359 81.115 110.692L81.313 114.39L78.9687 111.118C78.1621 110.024 77.3683 108.93 76.8046 108.153H76.8041V108.152L76.803 108.151L76.802 108.15L76.8015 108.149L76.8005 108.148C76.4424 107.654 76.178 107.29 76.0629 107.135C75.2041 106.054 74.709 104.432 75.0721 103.892C75.2701 103.579 75.2373 103.437 74.9069 103.437C74.2138 103.437 72.8599 105.343 71.9683 107.534C71.5392 108.558 71.1095 109.411 70.9776 109.411C70.4824 109.411 70.7136 99.2264 71.242 95.9547C72.3315 89.4966 75.2041 81.531 76.4921 81.531C76.756 81.531 76.9872 81.4168 76.9872 81.2463C76.9872 80.7342 76.1289 80.9334 75.4353 81.5878C73.8834 83.0386 71.8364 87.5051 70.5484 92.2563C69.6569 95.5281 69.0957 99.7385 68.8973 104.319C68.7321 108.273 68.7986 108.928 69.4589 111.09C70.218 113.508 70.8123 114.219 71.8364 113.878C72.1995 113.764 72.3647 113.337 72.3647 112.541C72.3647 111.915 72.7606 110.037 73.2563 108.359L74.1146 105.343L74.4778 106.595C74.9402 108.046 77.6475 112.541 80.091 115.812C81.7754 118.032 81.8081 118.174 82.3697 121.644C82.6669 123.608 83.5912 128.382 85.7375 135.727C87.6341 142.217 98.2948 148.654 100.957 150.262L100.959 150.263C101.309 150.474 101.52 150.602 101.554 150.635C101.885 150.948 102.347 151.118 102.611 151.033C102.908 150.948 103.073 151.061 103.073 151.374C103.073 151.659 103.304 152.029 103.568 152.199C103.899 152.398 104.13 153.166 104.196 154.504C104.361 157.178 106.672 162.299 108.455 163.977C109.611 165.058 112.021 165.514 114.696 165.115C116.446 164.888 116.942 164.717 116.776 164.376C116.677 164.148 117.305 164.433 118.163 165.001C128.201 171.602 138.372 175.556 149.796 177.263C154.221 177.918 161.552 178.287 165.547 178.031C169.08 177.832 169.08 177.832 168.915 178.43C168.684 179.226 168.981 179.71 173.835 186.794C177.698 192.399 178.029 192.768 182.321 196.552C191.435 204.66 201.374 210.948 212.634 215.813C223.233 220.365 240.156 224.148 255.626 225.343C271.096 226.538 282.207 214.304 282.174 211.175C282.108 206.879 281.415 204.063 279.731 201.332C278.08 198.686 276.99 197.776 272.037 194.93C266.523 191.773 263.121 189.184 260.876 186.424C259.456 184.688 258.928 182.726 258.928 181.673C258.928 180.99 259.951 179.454 261.471 179.141C262.857 178.828 263.121 178.857 264.674 179.511C265.598 179.881 268.009 180.848 269.99 181.673C272.004 182.47 273.952 183.266 274.348 183.437C275.516 183.716 276.011 185.687 276.278 186.754C276.338 186.993 276.387 187.186 276.428 187.306C276.891 188.785 279.079 190.696 280.49 191.346C282.969 192.488 289.076 192.64 290.76 191.076C291.189 190.678 292.612 190.188 292.905 190.336C293.199 190.485 294.259 191.716 294.259 192.711C294.293 194.418 295.316 195.983 297.495 197.548C301.623 200.507 304.826 201.218 308.062 199.909C309.746 199.226 311.126 198.96 311.126 198.96C311.126 198.96 312.503 200.473 312.586 200.99C313.234 205.033 320.18 206.727 322.029 206.898C322.453 206.934 323.277 206.778 324.115 206.619C325.235 206.407 326.379 206.191 326.619 206.424C327.091 206.883 318.727 218.8 317.572 220.307C306.576 234.532 285.179 243.238 258.994 244.148C241.989 244.745 221.087 240.649 202.959 233.195C191.369 228.387 181.1 222.498 170.104 214.248C168.189 212.825 165.976 211.204 165.184 210.635C164.392 210.094 162.509 208.245 161.057 206.538C158.613 203.693 157.226 202.669 157.226 203.636C157.226 204.063 158.811 206.68 160.627 209.269C161.354 210.293 161.816 211.004 161.651 210.891C161.486 210.777 160.957 212.825 160.462 215.442C158.844 223.835 156.169 232.114 153.462 237.263C151.976 240.051 149.127 242.133 148.268 242.702C145.098 244.779 140.353 245.713 133.782 246.282C125.461 246.993 113.21 245.4 103.866 242.384C101.389 241.588 95.0161 239.283 94.587 239.027C94.5614 239.005 94.4151 238.186 94.211 237.044C94.1532 236.722 94.0908 236.374 94.0258 236.012C92.8371 228.985 91.186 201.929 91.186 189.411C91.186 184.234 91.12 183.095 90.7236 183.095C89.898 183.095 89.5681 183.778 89.2049 186.225C88.3794 191.801 88.5446 220.905 89.4361 227.021L89.6341 228.416L88.5113 227.875C86.7942 227.021 80.2562 221.303 77.978 218.657C76.0491 216.396 74.9028 213.498 74.045 211.331C73.8455 210.827 73.6614 210.362 73.487 209.954C68.6993 198.518 70.3832 185.684 76.9872 174.134C82.6009 164.29 89.5021 158.828 99.6058 156.182C101.257 155.756 102.71 155.3 102.875 155.187C103.502 154.675 99.4738 154.931 97.2616 155.528C90.0632 157.434 82.5344 162.64 77.4163 169.297C70.218 178.629 66.9822 192.399 69.2604 204.148C69.7888 206.936 71.9351 212.967 72.5294 213.394C72.5821 213.439 72.8537 213.93 73.2645 214.673C74.4 216.726 76.6 220.701 78.1759 222.498C80.091 224.746 85.8699 229.639 88.2801 231.147L89.7993 232.085L90.0305 234.39C90.4596 238.799 90.6249 239.198 92.9358 240.677C98.7148 244.461 110.106 247.989 120.409 249.241C125.197 249.809 135.598 249.61 139.56 248.871ZM251.168 222.157C231.984 220.706 208.803 212.825 192.029 200.648C184.963 195.499 175.783 185.485 172.151 179.938C171.392 178.799 170.83 178.259 170.17 178.117C169.476 177.946 170.071 177.775 172.911 177.377C184.897 175.613 196.553 171.317 205.964 165.201L207.351 164.319L207.747 165.144C208.639 166.993 212.072 168.871 214.615 168.871C215.639 168.871 219.073 167.534 221.153 166.31L222.573 165.485L223.728 166.481C224.785 167.391 224.983 167.448 226.965 167.448C229.243 167.448 231.984 166.566 233.503 165.314L234.328 164.66L236.672 165.997C237.927 166.766 241.427 168.444 244.432 169.781C248.923 171.772 253.678 174.077 258.202 176.467L258.928 176.865L258.234 177.661C257.508 178.515 256.155 180.137 256.155 182.612C256.155 185.4 259.52 190.409 265.961 193.849C271.022 196.552 279.731 201.868 279.4 209.639C279.36 210.577 278.146 212.91 276.528 215.016C275.471 216.353 272.532 218.344 269.858 219.511C265.301 221.474 257.277 222.612 251.168 222.157ZM75.1054 94.447C75.9969 94.6176 76.5913 94.8736 76.4588 94.9873C76.0297 95.3571 73.7514 95.1865 73.223 94.7313C72.3975 94.0486 72.5954 93.5647 73.7514 93.3655C74.3458 93.2805 75.2373 92.8535 75.7325 92.4269C76.2276 92.0003 76.6573 91.8011 76.6573 91.9434C76.6573 92.3132 75.0061 93.6216 74.1806 93.9063C73.6522 94.1055 73.8174 94.191 75.1054 94.447ZM88.2474 94.9018C89.2049 94.447 89.0065 94.1337 87.8837 94.276C86.7615 94.4184 86.695 94.3047 87.4218 93.3373C87.719 92.9676 87.8837 92.4269 87.8177 92.1426C87.719 91.7724 87.4878 91.9434 86.9594 92.8535C86.563 93.5079 86.0019 94.0486 85.7375 94.0486C84.9119 94.0486 84.8459 94.6176 85.6387 94.8736C86.6622 95.2434 87.4546 95.2434 88.2474 94.9018ZM76.822 79.3684C76.0297 79.4826 73.5535 80.3358 71.374 81.2749C69.1617 82.185 67.2794 82.9531 67.1474 82.9249C63.7792 82.612 68.4681 77.7753 76.9872 72.8254C85.1431 68.0742 90.6576 65.5705 95.7757 64.2903C98.9787 63.494 102.578 63.3798 103.602 64.0343C104.163 64.404 103.965 64.4326 101.521 64.4609C96.2381 64.4609 90.1292 66.7939 80.1902 72.5125C75.0389 75.4709 69.0625 79.71 69.0625 80.3926C69.0625 80.535 70.02 80.2507 71.2087 79.7955C73.7514 78.7995 76.3601 78.2874 77.5156 78.5152C78.7375 78.7995 78.4731 79.1692 76.822 79.3684ZM89.6008 81.8152C92.7046 81.2749 92.8371 81.2463 92.8371 80.9616C92.8371 80.8197 91.6484 80.6773 90.1625 80.6205L87.4878 80.535L89.964 78.1169C91.3179 76.7798 92.9031 75.4427 93.4642 75.1298C94.6862 74.4467 94.7522 73.9632 93.7614 73.6786L93.0018 73.4794L93.8274 73.2233C94.2898 73.0814 95.1486 73.0246 95.7429 73.1096C96.6345 73.2233 96.8324 73.1665 96.7332 72.7685C96.6345 72.3701 96.2708 72.2846 94.6529 72.3133C89.9313 72.3701 87.917 73.4511 91.6151 73.9632C92.6386 74.1056 93.4974 74.333 93.4974 74.4753C93.4974 74.589 93.3322 74.7027 93.1343 74.7027C92.5067 74.7027 87.1906 79.3402 86.5303 80.4781C85.5063 82.1568 86.0679 82.4128 89.6008 81.8152ZM111.394 70.777C110.437 70.8338 110.206 70.9762 110.272 71.3741L110.282 71.4323C110.319 71.6425 110.34 71.7637 110.285 71.8003C110.211 71.8496 109.999 71.7461 109.5 71.5019L109.413 71.4596C108.786 71.1749 108.72 71.033 109.083 70.8052C109.314 70.6346 109.941 70.3786 110.437 70.2931L111.361 70.0939L110.668 69.4681C110.304 69.0983 110.106 68.7568 110.206 68.6431C110.47 68.4157 113.706 68.7286 114.168 69.0415C114.366 69.1838 114.663 69.1552 114.861 68.9846C115.324 68.5863 115.951 68.8992 115.951 69.5249C115.951 69.8665 115.852 69.8947 115.555 69.6387C115.291 69.4113 115.059 69.4112 114.762 69.6104C114.498 69.8096 114.3 69.8096 114.135 69.5818C114.036 69.4399 113.409 69.2975 112.748 69.2975C112.139 69.2975 111.851 69.2975 111.792 69.3976C111.739 69.487 111.871 69.6576 112.121 69.9802C112.648 70.6893 112.616 70.6915 111.406 70.7761L111.394 70.777ZM106.375 63.2093C106.375 62.8395 105.979 62.1851 105.483 61.7585L104.559 60.9617L109.512 61.1322C112.253 61.2464 115.356 61.5024 116.447 61.7585C117.536 61.9859 118.791 62.1564 119.253 62.1564C119.946 62.1564 119.814 62.0427 118.527 61.4456C116.281 60.4496 113.409 59.9661 107.894 59.6246C101.29 59.2262 97.9552 59.7669 98.5823 61.1895C98.6815 61.4738 99.2099 61.6161 100.002 61.6161C101.62 61.6161 104.262 62.4411 105.154 63.2093C106.111 64.0343 106.375 64.0343 106.375 63.2093ZM90.2612 138.544C92.9358 141.502 96.4693 144.859 98.1204 145.997C99.1107 146.68 99.9695 147.249 100.035 147.249C100.068 147.249 99.3419 145.94 98.4176 144.347C94.6862 137.946 92.5067 131.573 91.4832 124.234C91.252 122.612 90.8888 121.246 90.4924 120.677C89.7001 119.539 89.7001 118.06 90.5256 116.666C90.9548 115.926 91.186 114.987 91.186 113.963V112.399L89.6008 113.821C88.0489 115.215 86.563 115.784 86.563 114.93C86.563 114.305 89.0065 111.289 90.2944 110.35C91.3179 109.61 91.4499 109.354 91.7803 107.135C92.0115 105.798 92.5399 103.437 92.9691 101.872C93.4315 100.307 93.6954 98.9704 93.6294 98.9135C93.3982 98.7143 85.6387 106.393 84.582 108.842C84.3498 109.38 83.7232 110.322 83.228 110.89L82.3697 111.84C82.3697 111.84 82.6362 113.17 82.9308 114.842C83.2285 116.53 83.3682 117.691 83.4925 118.725C83.6592 120.108 83.7984 121.264 84.2515 123.153C84.7799 125.485 85.3083 127.505 85.4403 127.647C85.5395 127.818 85.9687 129.127 86.3978 130.578C87.3226 133.792 88.8745 136.979 90.2612 138.544ZM224.257 165.457L223.563 164.859C223.563 164.859 235.073 152.261 237.135 147.619C238.708 144.077 239.635 143.072 240.884 143.072C241.583 143.072 242.154 143.209 242.418 143.551C242.88 144.148 243.326 144.888 242.731 147.42C241.74 151.516 240.222 154.219 235.665 160.052C234.609 161.389 233.255 162.868 232.66 163.38C231.273 164.489 228.153 165.627 226.337 165.883C225.182 166.026 224.851 165.969 224.257 165.457Z" fill="#00160A"/>
<path d="M315.689 193.288C319.798 183.644 319.176 181.589 318.463 181.388C318.463 181.388 316.894 182.157 316.201 183.778C314.913 186.822 310.505 194.788 308.854 196.211C306.906 197.889 306.906 197.889 304.925 197.889C302.944 197.889 297.23 195.319 296.452 192.785C295.207 188.731 300.566 174.646 300.698 173.849L299.807 173.309C299.212 173.793 291.481 193.992 281.315 188.728C280.152 188.126 277.683 185.286 277.485 183.778C276.385 179.397 281.434 164.077 282.292 160.93C283.061 158.114 287.061 155.5 291.981 155.5C299.543 155.5 298.527 161.194 301.914 163.201C303.415 164.091 305.882 162.478 306.642 162.356C310.902 161.673 312.534 162.468 315.657 164.603C318.067 166.251 319.85 169.514 321.814 170.663C322.904 171.302 324.061 170.429 324.44 170.265C325.994 169.593 329.327 170.094 330.251 170.663C331.607 171.172 334.928 173.923 335.453 175.523C337.831 182.774 330.321 198.85 327.487 201.866C322.794 206.857 311.581 202.931 315.689 193.288Z" fill="white"/>
<path fill-rule="evenodd" clip-rule="evenodd" d="M125.857 166.864C134.905 171.786 144.234 175 154.866 175.882C163.253 176.565 174.562 175.626 182.684 173.35C189.52 171.444 198.766 166.164 204.94 161.697C216.926 153.048 224.488 139.539 227.79 125.201C228.252 123.181 228.957 118.103 228.924 113.068C228.924 107.207 225.931 91.192 216.86 81.9576C198.153 62.9118 167.401 54.3318 141.557 61.6629C132.234 64.3071 122.308 69.0984 114.813 75.3572C105.369 83.2947 98.4017 94.1055 95.6278 105.144C92.7225 116.808 96.502 130.748 103.073 142.185C108.323 151.289 116.974 161.999 125.857 166.864ZM214.021 132.484C207.813 148.558 191.633 160.564 171.293 164.205C168.189 164.745 166.042 164.945 161.684 165.001C158.613 165.087 155.542 165.058 154.914 165.001C140.683 163.522 129.852 158.999 119.88 150.407C115.522 146.623 113.673 144.575 110.965 140.535C106.705 134.134 104.427 127.59 103.734 119.71C101.356 92.7116 123.777 70.2081 155.344 67.875C167.727 66.9645 181.463 70.2363 191.897 76.6088C195.76 78.9705 202.761 84.9446 204.94 87.733C205.831 88.8422 214.483 99.7385 216.002 105.997C217.95 114.134 217.19 124.319 214.021 132.484Z" fill="white"/>
<path fill-rule="evenodd" clip-rule="evenodd" d="M228.936 113.068C228.936 132.164 218.452 153.04 204.922 161.956C198.467 166.209 190.031 171.36 182.685 173.35C171.919 176.266 154.866 175.882 154.866 175.882C154.866 175.882 172.263 173.879 178.71 171.643C197.198 165.233 207.29 155.393 213.521 145.951C225.823 127.315 228.936 112.604 228.936 113.068Z" fill="#E7EAEE"/>
<path fill-rule="evenodd" clip-rule="evenodd" d="M155.245 161.588C146.429 160.62 137.678 157.918 130.612 153.906C126.418 151.545 120.079 145.997 117.008 142.043C112.616 136.353 109.71 130.265 108.29 123.721C107.267 118.97 107.3 111.659 108.323 107.42C109.38 103.095 110.734 99.7954 113.144 95.6131C115.951 90.7769 118.923 87.2209 123.38 83.3802C130.975 76.8366 139.791 72.683 150.292 70.6915C153.693 70.0657 166.01 69.5536 166.439 70.037C166.538 70.1794 167.198 70.5491 167.891 70.862C168.585 71.2036 170.434 72.3983 171.953 73.5649C174.231 75.2717 175.255 76.3527 177.236 79.0273C178.59 80.8479 179.68 82.4979 179.68 82.6402C179.68 82.9531 180.736 83.5221 181.331 83.5221C182.156 83.5221 182.718 81.3886 182.882 77.633C182.982 75.5564 183.18 73.8496 183.312 73.8496C183.774 73.8496 188.859 76.2677 191.237 77.633C195.892 80.3076 200.548 84.0628 203.982 87.989C205.534 89.7527 205.766 90.2079 205.766 91.289C205.766 92.2845 206.096 93.0527 207.119 94.5889C209.695 98.4583 211.709 103.323 212.931 108.7C213.723 112.313 213.723 119.141 212.898 122.925C210.652 133.337 203.982 143.693 195.298 150.265C187.935 155.812 180.109 159.227 170.863 160.905C167.693 161.502 158.184 161.901 155.245 161.588ZM131.636 142.128C131.933 141.844 132.131 141.417 132.032 141.218C132.002 141.158 131.589 140.991 130.983 140.745C129.573 140.174 127.12 139.18 126.057 138.145C121.831 133.992 120.279 130.891 119.321 124.49C118.396 118.259 119.173 114.047 120.84 107.278C121.653 103.975 123.814 101.247 125.158 99.5504C126.072 98.3966 126.61 97.7192 126.088 97.6615C124.8 97.491 124.602 97.5764 123.248 98.6857C120.343 101.076 119.022 102.982 117.635 106.652C115.488 112.399 115.074 127.929 119.321 134.93C123.568 141.932 130.876 142.868 131.636 142.128ZM178.59 118.231C178.029 122.65 175.651 129.042 172.877 131.829C171.59 133.138 166.863 135.386 162.872 134.93C159.018 134.491 156.005 132.939 153.429 129.611C151.216 126.737 150.074 123.249 149.301 118.857C147.967 111.271 153.792 102.441 156.302 100.251C158.844 98.003 160.66 97.2063 162.972 97.1781C165.217 97.1781 166.67 97.6047 168.948 98.9986C173.109 101.502 179.68 109.643 178.59 118.231ZM134.079 94.7031C134.739 94.0486 134.839 93.7357 134.64 92.5124C134.508 91.3745 134.244 90.9192 133.551 90.4353C132.329 89.5821 130.81 89.5821 129.687 90.4922C128.895 91.1466 128.796 91.3745 128.895 92.939C128.994 94.6176 129.06 94.7313 130.15 95.2434C131.602 95.926 133.022 95.7273 134.079 94.7031ZM154.683 77.1495C148.74 80.8197 146.164 82.3273 143.49 83.7499C141.377 84.8878 140.716 84.9164 140.716 83.8922C140.716 83.3515 141.178 82.7539 142.367 81.8152L144.018 80.5068L140.815 80.1366C137.216 79.7386 133.716 78.885 132.956 78.2306C131.702 77.1209 132.791 76.8648 136.357 77.4342C137.942 77.6616 141.013 77.9463 143.192 78.0032L147.155 78.1451L150.028 76.3527C156.334 72.427 162.872 70.208 166.01 70.8907C167.958 71.2891 167.727 71.7443 165.514 71.9717C162.972 72.2278 161.42 72.9673 154.683 77.1495Z" fill="white"/>
<path d="M163.17 131.033C163.17 130.891 163.368 130.748 163.632 130.748C163.896 130.748 164.226 130.891 164.326 131.033C164.424 131.204 164.226 131.317 163.863 131.317C163.467 131.317 163.17 131.204 163.17 131.033Z" fill="white"/>
<path d="M165.151 130.777C165.151 130.464 165.976 130.179 166.901 130.179C167.627 130.208 167.627 130.208 167 130.606C166.273 131.09 165.151 131.175 165.151 130.777Z" fill="white"/>
<path d="M160.033 130.037C159.934 129.81 159.801 129.411 159.703 129.183C159.603 128.899 159.769 128.757 160.198 128.757C160.561 128.757 160.858 128.927 160.858 129.155C160.858 129.383 160.957 129.752 161.057 130.009C161.189 130.322 161.089 130.464 160.726 130.464C160.429 130.464 160.099 130.265 160.033 130.037Z" fill="white"/>
<path d="M161.783 129.326C161.618 128.472 161.981 128.188 163.17 128.188C163.533 128.188 163.83 128.472 163.962 128.956C164.226 129.781 163.797 130.18 162.641 130.18C162.113 130.18 161.882 129.98 161.783 129.326Z" fill="white"/>
<path d="M158.415 129.468C157.788 129.042 157.788 129.042 158.481 129.042C158.91 129.042 159.207 129.212 159.207 129.468C159.207 129.98 159.207 129.98 158.415 129.468Z" fill="white"/>
<path d="M165.052 129.44C164.622 129.07 164.821 127.96 165.349 127.79C166.307 127.477 166.736 127.619 166.934 128.359C167.066 128.786 167.132 129.155 167.066 129.183C166.802 129.44 165.25 129.611 165.052 129.44Z" fill="white"/>
<path d="M167.991 128.842C167.891 128.757 167.793 128.387 167.793 128.046C167.793 127.562 168.057 127.363 168.849 127.221C169.542 127.107 169.972 127.164 170.17 127.391C170.5 127.846 170.5 128.415 170.203 128.558C169.608 128.842 168.222 129.013 167.991 128.842Z" fill="white"/>
<path d="M156.896 127.96C156.896 127.619 157.193 127.334 157.622 127.249C158.481 127.05 158.448 127.021 158.613 127.761C158.679 128.188 158.514 128.359 157.82 128.415C157.094 128.501 156.896 128.387 156.896 127.96Z" fill="white"/>
<path d="M159.406 127.989C158.943 127.562 159.24 126.765 159.868 126.765C160.297 126.765 160.528 126.965 160.528 127.306C160.528 127.846 159.769 128.302 159.406 127.989Z" fill="white"/>
<path d="M161.387 127.135C161.123 126.595 161.684 126.196 162.773 126.196C163.269 126.196 163.5 126.367 163.5 126.737C163.5 127.05 163.203 127.334 162.773 127.448C161.684 127.676 161.618 127.676 161.387 127.135Z" fill="white"/>
<path d="M170.93 127.05C171.028 126.908 171.194 126.765 171.293 126.765C171.392 126.765 171.359 126.908 171.26 127.05C171.16 127.221 170.996 127.334 170.896 127.334C170.797 127.334 170.83 127.221 170.93 127.05Z" fill="white"/>
<path d="M164.358 126.566C164.094 125.997 164.424 125.713 165.481 125.571C166.076 125.514 166.339 125.627 166.405 126.026C166.637 126.965 164.755 127.477 164.358 126.566Z" fill="white"/>
<path d="M156.434 126.083C156.137 125.144 156.202 125.059 157.061 125.059C157.523 125.059 157.886 125.172 157.886 125.315C157.886 125.457 157.986 125.77 158.085 125.997C158.184 126.282 157.986 126.452 157.424 126.538C156.797 126.652 156.566 126.538 156.434 126.083Z" fill="white"/>
<path d="M167.462 125.77C167.462 125.258 167.693 125.03 168.321 124.888C169.245 124.689 169.774 125.087 169.774 125.997C169.774 126.367 169.51 126.481 168.618 126.481C167.595 126.481 167.462 126.396 167.462 125.77Z" fill="white"/>
<path d="M155.443 125.77C155.344 125.542 155.41 125.343 155.575 125.343C155.773 125.343 155.905 125.542 155.905 125.77C155.905 125.997 155.839 126.196 155.773 126.196C155.707 126.196 155.575 125.997 155.443 125.77Z" fill="white"/>
<path d="M158.778 125.997C158.316 125.627 158.58 124.831 159.174 124.689C159.537 124.603 159.901 124.632 160 124.717C160.396 125.03 160.165 125.855 159.669 126.026C159.042 126.225 159.042 126.225 158.778 125.997Z" fill="white"/>
<path d="M170.566 125.798C170.203 124.973 170.599 124.347 171.524 124.262C172.217 124.177 172.416 124.29 172.416 124.746C172.416 125.684 172.052 126.196 171.392 126.196C171.028 126.196 170.665 126.026 170.566 125.798Z" fill="white"/>
<path d="M161.089 125.428C160.693 125.115 160.825 124.546 161.387 124.376C162.014 124.177 163.335 124.746 162.972 125.059C162.509 125.4 161.321 125.656 161.089 125.428Z" fill="white"/>
<path d="M163.962 124.717C163.665 124.319 164.722 123.636 165.58 123.636C165.976 123.636 166.142 123.807 166.076 124.12C165.944 124.689 164.259 125.144 163.962 124.717Z" fill="white"/>
<path d="M154.915 124.518C154.915 124.376 154.816 124.063 154.717 123.807C154.617 123.55 154.651 123.352 154.849 123.352C155.278 123.352 155.608 124.433 155.212 124.66C155.047 124.746 154.915 124.689 154.915 124.518Z" fill="white"/>
<path d="M155.806 123.864C155.608 123.238 156.005 122.782 156.764 122.782C157.193 122.782 157.622 123.892 157.358 124.262C156.995 124.746 155.971 124.461 155.806 123.864Z" fill="white"/>
<path d="M158.118 124.006C157.622 123.579 157.92 122.555 158.58 122.413C159.075 122.299 159.34 122.441 159.603 122.953C159.802 123.323 159.901 123.693 159.835 123.75C159.505 124.006 158.316 124.205 158.118 124.006Z" fill="white"/>
<path d="M167.033 124.006C166.604 123.636 166.802 123.409 167.793 123.096C168.618 122.868 168.849 122.896 169.014 123.238C169.311 123.921 167.661 124.575 167.033 124.006Z" fill="white"/>
<path d="M169.939 123.352C169.608 122.896 170.071 122.498 170.93 122.498C171.953 122.498 172.25 123.238 171.326 123.465C170.335 123.693 170.17 123.665 169.939 123.352Z" fill="white"/>
<path d="M172.745 122.669C172.745 122.242 173.34 121.787 173.604 122.014C173.835 122.213 173.373 123.067 173.043 123.067C172.877 123.067 172.745 122.896 172.745 122.669Z" fill="white"/>
<path d="M154.485 122.299C154.353 122.213 154.254 121.844 154.287 121.531C154.287 120.99 154.32 120.99 154.617 121.616C154.948 122.299 154.882 122.64 154.485 122.299Z" fill="white"/>
<path d="M155.113 121.872C154.816 120.876 154.849 120.791 155.707 120.791C156.665 120.791 157.259 121.844 156.533 122.242C155.773 122.64 155.344 122.526 155.113 121.872Z" fill="white"/>
<path d="M166.472 122.441C166.472 122.356 166.637 121.901 166.835 121.388C167.297 120.251 168.321 120.194 168.552 121.303C168.651 121.73 168.684 122.1 168.651 122.128C168.486 122.299 166.472 122.555 166.472 122.441Z" fill="white"/>
<path d="M157.457 121.73C157.325 121.644 157.226 121.303 157.226 120.99C157.226 120.535 157.325 120.507 157.722 120.791C157.986 120.99 158.217 121.332 158.217 121.531C158.217 121.957 157.82 122.071 157.457 121.73Z" fill="white"/>
<path d="M169.345 121.161C169.147 120.279 169.576 119.881 170.599 119.994C171.094 120.051 171.26 120.307 171.26 120.933C171.26 121.644 171.128 121.815 170.401 121.872C169.675 121.957 169.51 121.815 169.345 121.161Z" fill="white"/>
<path d="M172.58 121.275C172.151 120.137 172.283 119.795 173.175 119.71C173.968 119.625 174.066 119.71 174.066 120.45C174.066 121.075 173.868 121.332 173.373 121.445C173.01 121.531 172.646 121.445 172.58 121.275Z" fill="white"/>
<path d="M153.99 119.653C153.99 119.113 154.056 118.885 154.155 119.169C154.221 119.426 154.221 119.881 154.155 120.165C154.056 120.421 153.99 120.194 153.99 119.653Z" fill="white"/>
<path d="M154.816 120.023C154.387 119.682 154.585 118.572 155.113 118.401C155.872 118.145 156.236 118.458 156.236 119.397C156.236 119.994 156.071 120.222 155.641 120.222C155.311 120.222 154.915 120.137 154.816 120.023Z" fill="white"/>
<path d="M156.797 119.255C156.665 118.828 156.599 118.373 156.731 118.288C157.061 118.003 157.259 118.458 157.16 119.283L157.061 120.08L156.797 119.255Z" fill="white"/>
<path d="M167.462 119.056C167.462 118.743 167.627 118.572 167.793 118.657C167.991 118.743 168.123 119.027 168.123 119.255C168.123 119.482 167.991 119.653 167.793 119.653C167.627 119.653 167.462 119.397 167.462 119.056Z" fill="white"/>
<path d="M168.948 119.426C168.486 118.999 168.849 118.231 169.608 118.06C170.566 117.861 170.599 117.861 170.896 118.686C171.094 119.198 170.962 119.312 170.104 119.426C169.576 119.511 169.047 119.482 168.948 119.426Z" fill="white"/>
<path d="M171.986 118.885C171.623 118.601 171.722 117.662 172.085 117.662C172.283 117.662 172.416 117.548 172.416 117.377C172.416 117.235 172.217 117.092 171.953 117.092C171.392 117.092 170.93 115.699 171.392 115.3C171.986 114.788 172.646 115.329 173.043 116.723C173.274 117.463 173.505 118.316 173.604 118.601C173.736 118.97 173.604 119.084 172.977 119.084C172.548 119.084 172.085 118.999 171.986 118.885Z" fill="white"/>
<path d="M173.769 117.377C173.538 116.524 172.943 114.817 172.514 113.565C171.854 111.744 171.788 111.289 172.151 111.09C172.382 110.948 172.679 110.834 172.779 110.834C173.142 110.834 174.463 116.666 174.331 117.804L174.231 118.942L173.769 117.377Z" fill="white"/>
<path d="M153.66 117.235C153.66 116.78 153.726 116.609 153.825 116.894C153.89 117.15 153.89 117.548 153.825 117.747C153.726 117.918 153.66 117.719 153.66 117.235Z" fill="white"/>
<path d="M154.32 117.178C154.453 116.182 155.41 115.955 155.674 116.865C155.905 117.605 155.971 117.519 154.98 117.804C154.287 117.975 154.221 117.918 154.32 117.178Z" fill="white"/>
<path d="M168.255 116.922C167.991 116.097 168.552 115.613 169.608 115.727C170.401 115.812 170.698 117.036 170.038 117.406C169.213 117.861 168.453 117.662 168.255 116.922Z" fill="white"/>
<path d="M156.236 116.694C156.236 116.211 156.4 115.955 156.764 115.955C157.094 115.955 157.226 116.154 157.16 116.58C156.995 117.491 156.236 117.576 156.236 116.694Z" fill="white"/>
<path d="M153.297 115.499C153.297 115.186 153.396 115.101 153.495 115.329C153.593 115.528 153.56 115.784 153.461 115.869C153.362 115.983 153.264 115.812 153.297 115.499Z" fill="white"/>
<path d="M153.924 115.414C153.924 114.987 154.122 114.817 154.617 114.817C155.08 114.817 155.245 114.959 155.179 115.3C155.014 116.04 153.924 116.126 153.924 115.414Z" fill="white"/>
<path d="M155.74 115.158C155.509 114.646 155.509 114.646 156.5 114.418C157.094 114.248 157.226 114.333 157.226 114.76C157.226 115.442 156.037 115.784 155.74 115.158Z" fill="white"/>
<path d="M167.693 114.76C167.462 114.049 167.892 113.679 169.047 113.679C169.608 113.679 169.774 113.849 169.774 114.39C169.774 114.817 169.576 115.101 169.311 115.101C169.047 115.101 168.618 115.186 168.354 115.272C168.057 115.357 167.825 115.186 167.693 114.76Z" fill="white"/>
<path d="M170.566 114.105C170.302 113.536 170.698 113.11 171.458 113.11C171.92 113.11 172.085 113.309 172.085 113.821C172.085 114.333 171.92 114.532 171.425 114.532C171.062 114.532 170.665 114.333 170.566 114.105Z" fill="white"/>
<path d="M153.594 113.707C153.594 113.11 154.353 112.427 154.683 112.74C154.816 112.825 154.915 113.224 154.915 113.593C154.915 114.049 154.717 114.248 154.254 114.248C153.825 114.248 153.594 114.049 153.594 113.707Z" fill="white"/>
<path d="M155.41 113.366C155.146 112.655 155.443 112.342 156.566 112.199C157.589 112.086 157.92 113.024 157.028 113.593C156.169 114.134 155.641 114.049 155.41 113.366Z" fill="white"/>
<path d="M167.363 113.195C167.132 113.024 167.033 111.971 167.231 111.971C167.264 111.971 167.759 111.858 168.354 111.715C169.345 111.459 169.411 111.488 169.378 112.256C169.345 112.825 169.147 113.11 168.651 113.224C167.759 113.423 167.627 113.423 167.363 113.195Z" fill="white"/>
<path d="M166.141 112.541C166.141 112.342 166.24 112.256 166.372 112.342C166.471 112.455 166.471 112.626 166.372 112.74C166.24 112.825 166.141 112.74 166.141 112.541Z" fill="white"/>
<path d="M169.84 112.086C169.939 111.602 170.962 110.89 171.194 111.118C171.293 111.203 171.458 111.545 171.557 111.915C171.788 112.484 171.689 112.541 170.764 112.541C169.972 112.541 169.741 112.427 169.84 112.086Z" fill="white"/>
<path d="M153.924 112.057C153.924 111.915 154.089 111.63 154.254 111.403C154.519 111.061 154.585 111.09 154.585 111.63C154.585 111.972 154.453 112.256 154.254 112.256C154.089 112.256 153.924 112.171 153.924 112.057Z" fill="white"/>
<path d="M154.915 111.431C154.915 110.634 155.608 110.378 156.137 110.976C156.466 111.403 156.466 111.545 156.137 111.744C155.443 112.114 154.915 112 154.915 111.431Z" fill="white"/>
<path d="M164.953 111.061C164.358 110.492 164.358 110.464 164.92 110.634C165.25 110.749 165.679 110.834 165.844 110.834C166.01 110.834 166.141 111.033 166.141 111.261C166.141 111.858 165.679 111.801 164.953 111.061Z" fill="white"/>
<path d="M157.854 111.033C156.434 110.094 156.236 107.989 157.556 107.989C158.448 107.989 159.274 109.184 159.141 110.293C159.042 111.318 158.646 111.545 157.854 111.033Z" fill="white"/>
<path d="M166.901 111.203C167.033 111.118 167.231 111.118 167.363 111.203C167.462 111.317 167.363 111.403 167.132 111.403C166.901 111.403 166.802 111.317 166.901 111.203Z" fill="white"/>
<path d="M171.887 110.094C171.986 109.838 172.085 109.582 172.085 109.525C172.085 109.468 172.25 109.411 172.416 109.411C172.614 109.411 172.746 109.668 172.746 109.98C172.746 110.322 172.514 110.549 172.217 110.549C171.854 110.549 171.755 110.407 171.887 110.094Z" fill="white"/>
<path d="M154.585 110.009C154.585 109.354 155.278 108.273 155.674 108.273C156.368 108.273 155.872 110.094 155.146 110.208C154.849 110.265 154.585 110.18 154.585 110.009Z" fill="white"/>
<path d="M162.014 109.696L161.023 109.497L161.915 109.297C162.84 109.07 163.5 109.24 163.5 109.724C163.5 110.009 163.467 110.009 162.014 109.696Z" fill="white"/>
<path d="M160.858 108.33C160.858 107.164 161.618 106.993 162.311 108.017C162.773 108.7 162.806 108.842 162.377 108.842C162.113 108.842 161.684 108.928 161.387 109.013C160.991 109.155 160.858 108.984 160.858 108.33Z" fill="white"/>
<path d="M166.604 108.728C165.118 108.159 164.16 106.652 164.16 104.859C164.16 103.579 164.292 103.266 165.184 102.555C165.745 102.1 166.307 101.73 166.472 101.73C167.198 101.73 169.873 103.92 170.764 105.286L171.788 106.851L170.698 107.847C169.444 108.984 168.057 109.297 166.604 108.728Z" fill="white"/>
<path d="M159.703 107.989C159.603 107.847 159.669 107.704 159.835 107.704C160.033 107.704 160.198 107.847 160.198 107.989C160.198 108.159 160.132 108.273 160.066 108.273C159.967 108.273 159.801 108.159 159.703 107.989Z" fill="white"/>
<path d="M155.377 107.534C155.476 107.278 155.575 107.022 155.575 106.965C155.575 106.908 155.872 106.851 156.236 106.851C157.061 106.851 157.094 107.306 156.268 107.704C155.377 108.103 155.146 108.074 155.377 107.534Z" fill="white"/>
<path d="M157.986 107.192C157.226 107.107 156.995 106.737 157.49 106.481C157.622 106.396 158.217 106.253 158.811 106.14C159.703 105.969 159.868 106.026 159.868 106.509C159.868 107.107 159.174 107.363 157.986 107.192Z" fill="white"/>
<path d="M160.528 106.225C160.528 105.884 160.561 105.684 160.627 105.741C160.66 105.798 160.924 106.083 161.155 106.367C161.552 106.766 161.519 106.851 161.057 106.851C160.726 106.851 160.528 106.623 160.528 106.225Z" fill="white"/>
<path d="M155.905 106.026C155.905 105.855 156.071 105.656 156.236 105.571C156.434 105.485 156.566 105.599 156.566 105.827C156.566 106.083 156.434 106.282 156.236 106.282C156.071 106.282 155.905 106.168 155.905 106.026Z" fill="white"/>
<path d="M157.127 105.599C156.863 105.03 159.208 104.404 159.603 104.945C159.901 105.4 159.603 105.599 158.349 105.827C157.589 105.969 157.259 105.912 157.127 105.599Z" fill="white"/>
<path d="M160.231 104.688C160.231 104.376 160.33 104.291 160.428 104.518C160.527 104.717 160.494 104.973 160.395 105.059C160.297 105.172 160.198 105.001 160.231 104.688Z" fill="white"/>
<path d="M157.424 104.234C157.82 103.607 158.976 102.583 159.274 102.583C159.604 102.583 159.637 103.92 159.306 104.091C159.141 104.148 158.613 104.291 158.118 104.404C157.391 104.547 157.226 104.518 157.424 104.234Z" fill="white"/>
<path d="M160.066 103.579C159.703 102.726 159.868 102.356 160.66 102.242C161.486 102.1 161.486 102.1 160.957 102.982C160.297 104.12 160.33 104.12 160.066 103.579Z" fill="white"/>
<path d="M159.868 101.872C159.868 101.815 160.528 101.417 161.354 101.019C162.344 100.507 163.038 100.336 163.533 100.45C164.127 100.62 163.962 100.734 162.509 101.332C160.891 101.957 159.868 102.185 159.868 101.872Z" fill="white"/>
<path d="M178.194 76.6661C177.302 75.5564 175.42 73.7641 174.066 72.683C172.713 71.602 171.821 70.7201 172.085 70.7201C172.811 70.7201 178.359 72.0286 179.746 72.5407C180.901 72.9673 180.935 73.0246 180.637 73.9064C180.472 74.4185 180.34 75.6987 180.34 76.7511C180.34 77.8322 180.241 78.6858 180.109 78.6858C179.944 78.6858 179.118 77.7753 178.194 76.6661Z" fill="white"/>
<path d="M110.998 162.839C109.644 162.242 109.347 161.901 107.63 158.97C105.154 154.817 105.088 153.849 107.432 156.211C108.357 157.149 110.503 159.084 112.187 160.507C115.059 162.896 115.192 163.067 114.234 162.953C113.541 162.868 113.276 162.925 113.441 163.152C113.838 163.664 112.583 163.522 110.998 162.839Z" fill="white"/>
<path fill-rule="evenodd" clip-rule="evenodd" d="M166.336 214.672C166.062 214.111 166.368 213.465 167.018 213.229L167.73 212.969C174.646 210.419 178.617 208.887 181.314 206.455C184.012 204.023 184.335 200.451 184.841 198.277C184.98 197.68 186.548 198.728 187.24 198.848C187.933 198.968 188.382 199.548 188.243 200.145C187.633 202.758 185.992 205.25 183.35 207.615C180.718 209.973 175.62 212.5 168.011 215.26C167.36 215.496 166.61 215.233 166.336 214.672Z" fill="#00160A"/>
<path fill-rule="evenodd" clip-rule="evenodd" d="M197.614 101.158C198.221 100.847 199.006 101.019 199.367 101.541C202.984 106.777 204.922 112.761 204.922 118.987C204.922 137.85 187.174 153.142 165.281 153.142C159.463 153.142 153.82 152.061 148.654 150.001C148.012 149.745 145.591 147.711 148.03 148.539C150.469 149.366 159.904 151.223 165.349 151.223C185.829 151.223 200.319 136.634 200.319 118.987C200.319 113.161 197.614 107.989 197.17 102.669C197.118 102.052 197.008 101.47 197.614 101.158Z" fill="#00160A"/>
<path fill-rule="evenodd" clip-rule="evenodd" d="M70.9694 184.544C71.421 184.077 72.2277 183.132 72.7704 183.521C74.9964 185.119 77.3718 186.97 79.913 187.327C82.5574 187.699 85.6945 187.699 89.32 187.321C90.0213 187.248 90.6581 187.678 90.743 188.282C90.8279 188.886 90.3282 189.435 89.6274 189.508C85.7768 189.91 82.403 189.91 79.5012 189.502C76.4962 189.079 73.7013 187.939 71.1336 186.096C70.5909 185.706 70.5172 185.011 70.9694 184.544Z" fill="#00160A"/>
<path d="M98.1199 145.997C96.4693 144.859 92.9358 141.502 90.2612 138.544C88.8745 136.979 87.3226 133.792 86.3978 130.578C85.9687 129.127 85.5395 127.818 85.4403 127.647C85.3083 127.505 84.7799 125.485 84.2515 123.153C83.4592 119.852 83.627 118.789 82.9308 114.842C82.6362 113.17 82.3697 111.84 82.3697 111.84L83.228 110.89C83.7232 110.322 84.3498 109.38 84.582 108.842C85.6387 106.393 93.3982 98.7143 93.6294 98.9135C93.6954 98.9704 93.4315 100.307 92.9691 101.872C92.5399 103.437 92.0115 105.798 91.7803 107.135C91.4499 109.354 91.3179 109.61 90.2944 110.35C89.0065 111.289 86.563 114.305 86.563 114.93C86.563 115.784 88.0489 115.215 89.6008 113.821L91.186 112.399V113.963C91.186 114.987 90.9548 115.926 90.5256 116.666C89.7001 118.06 89.7001 119.539 90.4924 120.677C90.8888 121.246 91.252 122.612 91.4832 124.234C92.5067 131.573 94.6862 137.946 98.4171 144.347C99.3419 145.94 100.068 147.249 100.035 147.249C99.9695 147.249 99.1107 146.68 98.1199 145.997Z" fill="white"/>
<path fill-rule="evenodd" clip-rule="evenodd" d="M235.517 163.551L237.894 164.461C238.387 164.657 243.825 166.908 250.358 169.613C260.891 173.973 274.267 179.511 274.348 179.511C274.48 179.511 275.1 178.276 275.24 176.836C275.57 173.736 276.792 169.525 278.212 166.595C278.872 165.286 279.4 163.65 279.4 163.508C279.4 163.443 278.864 163.257 277.985 162.951C276.938 162.588 275.408 162.056 273.721 161.36C265.4 157.918 249.121 150.891 247.107 149.838C245.126 148.842 244.729 148.757 244.729 149.411C244.729 150.265 242.715 154.219 241.163 156.353C240.337 157.519 238.72 159.624 237.564 161.019L235.517 163.551ZM273.787 174.39C274.734 174.863 273.093 175.556 272.697 175.67C270.364 175.841 267.617 175.463 265.367 174.333C264.19 173.614 254.924 169.179 248.778 166.237C245.969 164.892 243.811 163.859 243.376 163.636C241.989 162.925 240.668 162.157 240.437 161.929C239.743 161.161 240.404 160.82 242.352 160.962C243.523 161.047 271.742 173.369 273.787 174.39Z" fill="white"/>
<path d="M211.808 166.111C210.95 165.855 210.025 165.286 209.431 164.632L208.44 163.579L211.94 160.592C217.322 156.04 221.285 151.065 224.851 145.518C226.04 143.668 229.573 136.21 230.003 135.385C230.663 134.191 231.158 133.736 232.578 133.053C234.262 132.199 236.177 131.915 237.002 132.398C238.588 133.309 238.588 136.182 237.002 141.132C235.253 146.567 232.908 150.464 228.054 156.068C227.295 156.922 225.875 158.6 224.851 159.767C222.111 162.896 220.327 164.404 217.917 165.57C215.539 166.709 214.153 166.851 211.808 166.111Z" fill="white"/>
<path d="M224.257 165.457L223.563 164.859C223.563 164.859 235.073 152.261 237.135 147.619C238.708 144.077 239.635 143.072 240.884 143.072C241.583 143.072 242.154 143.209 242.418 143.551C242.88 144.148 243.326 144.888 242.731 147.42C241.74 151.516 240.222 154.219 235.665 160.052C234.608 161.389 233.255 162.868 232.66 163.38C231.273 164.489 228.153 165.627 226.337 165.883C225.182 166.026 224.851 165.969 224.257 165.457Z" fill="white"/>
<path fill-rule="evenodd" clip-rule="evenodd" d="M243.589 152.283C244.255 150.97 244.729 149.826 244.729 149.411C244.729 148.757 245.126 148.842 247.107 149.838C249.121 150.891 265.4 157.918 273.721 161.36C276.825 162.64 279.4 163.366 279.4 163.508C279.4 163.65 242.883 153.675 243.589 152.283Z" fill="#E7EAEE"/>
<path fill-rule="evenodd" clip-rule="evenodd" d="M130.612 153.906C126.418 151.545 120.079 145.997 117.008 142.043C112.616 136.353 109.71 130.265 108.29 123.721C107.267 118.97 107.3 111.659 108.323 107.42C109.38 103.095 110.734 99.7954 113.144 95.6131C115.951 90.7769 118.923 87.2208 123.38 83.3801C127.752 79.6135 108.323 95.1887 113.144 123.056C117.008 146.409 133.611 155.609 130.612 153.906Z" fill="#E7EAEE"/>
<path d="M129.273 304.891H127.891V310H126.391V298.625H127.891V303.641H129.062L133.039 298.625H134.906L130.562 304.141L135.227 310H133.391L129.273 304.891ZM135.773 305.695C135.773 304.867 135.935 304.122 136.258 303.461C136.586 302.799 137.039 302.289 137.617 301.93C138.201 301.57 138.865 301.391 139.609 301.391C140.76 301.391 141.69 301.789 142.398 302.586C143.112 303.383 143.469 304.443 143.469 305.766V305.867C143.469 306.69 143.31 307.43 142.992 308.086C142.68 308.737 142.229 309.245 141.641 309.609C141.057 309.974 140.385 310.156 139.625 310.156C138.479 310.156 137.549 309.758 136.836 308.961C136.128 308.164 135.773 307.109 135.773 305.797V305.695ZM137.227 305.867C137.227 306.805 137.443 307.557 137.875 308.125C138.312 308.693 138.896 308.977 139.625 308.977C140.359 308.977 140.943 308.69 141.375 308.117C141.807 307.539 142.023 306.732 142.023 305.695C142.023 304.768 141.802 304.018 141.359 303.445C140.922 302.867 140.339 302.578 139.609 302.578C138.896 302.578 138.32 302.862 137.883 303.43C137.445 303.997 137.227 304.81 137.227 305.867ZM152.422 305.867C152.422 307.154 152.128 308.19 151.539 308.977C150.951 309.763 150.154 310.156 149.148 310.156C148.122 310.156 147.315 309.831 146.727 309.18V313.25H145.281V301.547H146.602L146.672 302.484C147.26 301.755 148.078 301.391 149.125 301.391C150.141 301.391 150.943 301.773 151.531 302.539C152.125 303.305 152.422 304.37 152.422 305.734V305.867ZM150.977 305.703C150.977 304.75 150.773 303.997 150.367 303.445C149.961 302.893 149.404 302.617 148.695 302.617C147.82 302.617 147.164 303.005 146.727 303.781V307.82C147.159 308.591 147.82 308.977 148.711 308.977C149.404 308.977 149.953 308.703 150.359 308.156C150.771 307.604 150.977 306.786 150.977 305.703ZM158.914 303.859C158.914 303.464 158.763 303.151 158.461 302.922C158.159 302.688 157.745 302.57 157.219 302.57C156.708 302.57 156.281 302.703 155.938 302.969C155.599 303.234 155.43 303.547 155.43 303.906H153.992C153.992 303.172 154.299 302.57 154.914 302.102C155.529 301.633 156.297 301.398 157.219 301.398C158.208 301.398 158.979 301.612 159.531 302.039C160.083 302.461 160.359 303.065 160.359 303.852C160.359 304.232 160.245 304.581 160.016 304.898C159.786 305.216 159.461 305.469 159.039 305.656C160.023 305.99 160.516 306.646 160.516 307.625C160.516 308.401 160.216 309.016 159.617 309.469C159.018 309.922 158.219 310.148 157.219 310.148C156.245 310.148 155.44 309.911 154.805 309.438C154.174 308.958 153.859 308.312 153.859 307.5H155.297C155.297 307.911 155.479 308.266 155.844 308.562C156.214 308.854 156.672 309 157.219 309C157.771 309 158.216 308.872 158.555 308.617C158.893 308.362 159.062 308.031 159.062 307.625C159.062 307.151 158.919 306.812 158.633 306.609C158.352 306.401 157.911 306.297 157.312 306.297H155.867V305.078H157.438C158.422 305.052 158.914 304.646 158.914 303.859ZM167.859 301.547H169.305V310H167.859V303.836L163.961 310H162.516V301.547H163.961V307.719L167.859 301.547ZM178.531 310H177.086V306.391H173.203V310H171.75V301.547H173.203V305.211H177.086V301.547H178.531V310ZM186.078 310C185.995 309.833 185.927 309.536 185.875 309.109C185.203 309.807 184.401 310.156 183.469 310.156C182.635 310.156 181.951 309.922 181.414 309.453C180.883 308.979 180.617 308.38 180.617 307.656C180.617 306.776 180.951 306.094 181.617 305.609C182.289 305.12 183.232 304.875 184.445 304.875H185.852V304.211C185.852 303.706 185.701 303.305 185.398 303.008C185.096 302.706 184.651 302.555 184.062 302.555C183.547 302.555 183.115 302.685 182.766 302.945C182.417 303.206 182.242 303.521 182.242 303.891H180.789C180.789 303.469 180.938 303.062 181.234 302.672C181.536 302.276 181.943 301.964 182.453 301.734C182.969 301.505 183.534 301.391 184.148 301.391C185.122 301.391 185.885 301.635 186.438 302.125C186.99 302.609 187.276 303.279 187.297 304.133V308.023C187.297 308.799 187.396 309.417 187.594 309.875V310H186.078ZM183.68 308.898C184.133 308.898 184.562 308.781 184.969 308.547C185.375 308.312 185.669 308.008 185.852 307.633V305.898H184.719C182.948 305.898 182.062 306.417 182.062 307.453C182.062 307.906 182.214 308.26 182.516 308.516C182.818 308.771 183.206 308.898 183.68 308.898ZM200.445 310H199V302.742H195.109V310H193.656V301.547H200.445V310ZM205.531 307.883L207.5 301.547H209.047L205.648 311.305C205.122 312.711 204.286 313.414 203.141 313.414L202.867 313.391L202.328 313.289V312.117L202.719 312.148C203.208 312.148 203.589 312.049 203.859 311.852C204.135 311.654 204.362 311.292 204.539 310.766L204.859 309.906L201.844 301.547H203.422L205.531 307.883ZM213.625 308.977C214.141 308.977 214.591 308.82 214.977 308.508C215.362 308.195 215.576 307.805 215.617 307.336H216.984C216.958 307.82 216.792 308.281 216.484 308.719C216.177 309.156 215.766 309.505 215.25 309.766C214.74 310.026 214.198 310.156 213.625 310.156C212.474 310.156 211.557 309.773 210.875 309.008C210.198 308.237 209.859 307.185 209.859 305.852V305.609C209.859 304.786 210.01 304.055 210.312 303.414C210.615 302.773 211.047 302.276 211.609 301.922C212.177 301.568 212.846 301.391 213.617 301.391C214.565 301.391 215.352 301.674 215.977 302.242C216.607 302.81 216.943 303.547 216.984 304.453H215.617C215.576 303.906 215.367 303.458 214.992 303.109C214.622 302.755 214.164 302.578 213.617 302.578C212.883 302.578 212.312 302.844 211.906 303.375C211.505 303.901 211.305 304.664 211.305 305.664V305.938C211.305 306.911 211.505 307.661 211.906 308.188C212.307 308.714 212.88 308.977 213.625 308.977ZM224.891 302.719H222.055V310H220.609V302.719H217.828V301.547H224.891V302.719ZM231.391 310C231.307 309.833 231.24 309.536 231.188 309.109C230.516 309.807 229.714 310.156 228.781 310.156C227.948 310.156 227.263 309.922 226.727 309.453C226.195 308.979 225.93 308.38 225.93 307.656C225.93 306.776 226.263 306.094 226.93 305.609C227.602 305.12 228.544 304.875 229.758 304.875H231.164V304.211C231.164 303.706 231.013 303.305 230.711 303.008C230.409 302.706 229.964 302.555 229.375 302.555C228.859 302.555 228.427 302.685 228.078 302.945C227.729 303.206 227.555 303.521 227.555 303.891H226.102C226.102 303.469 226.25 303.062 226.547 302.672C226.849 302.276 227.255 301.964 227.766 301.734C228.281 301.505 228.846 301.391 229.461 301.391C230.435 301.391 231.198 301.635 231.75 302.125C232.302 302.609 232.589 303.279 232.609 304.133V308.023C232.609 308.799 232.708 309.417 232.906 309.875V310H231.391ZM228.992 308.898C229.445 308.898 229.875 308.781 230.281 308.547C230.688 308.312 230.982 308.008 231.164 307.633V305.898H230.031C228.26 305.898 227.375 306.417 227.375 307.453C227.375 307.906 227.526 308.26 227.828 308.516C228.13 308.771 228.518 308.898 228.992 308.898Z" fill="#4E4B66"/>
</svg>
