<svg width="372" height="315" viewBox="0 0 372 315" fill="none" xmlns="http://www.w3.org/2000/svg">
<path d="M48.8667 267.481C49.7734 267.481 50.4934 267.566 51.0267 267.737C51.56 267.897 51.944 268.185 52.1787 268.601C52.424 269.017 52.5467 269.603 52.5467 270.361C52.5467 271.15 52.3974 271.753 52.0987 272.169C51.8107 272.585 51.336 272.825 50.6747 272.889V272.953C51.496 273.027 52.0667 273.315 52.3867 273.817C52.7174 274.318 52.8827 275.011 52.8827 275.897C52.8827 276.654 52.7654 277.241 52.5307 277.657C52.296 278.073 51.9174 278.366 51.3947 278.537C50.8827 278.697 50.2054 278.777 49.3627 278.777C48.7334 278.777 48.1894 278.771 47.7307 278.761C47.2827 278.761 46.8667 278.75 46.4827 278.729C46.0987 278.707 45.6987 278.681 45.2827 278.649V267.609C45.656 267.566 46.008 267.539 46.3387 267.529C46.68 267.507 47.048 267.497 47.4427 267.497C47.848 267.486 48.3227 267.481 48.8667 267.481ZM48.8027 268.681C48.376 268.681 47.9814 268.681 47.6187 268.681C47.2667 268.681 46.9467 268.681 46.6587 268.681V272.393H49.0267C49.56 272.382 49.9814 272.329 50.2907 272.233C50.6107 272.126 50.84 271.939 50.9787 271.673C51.1174 271.395 51.1867 271.011 51.1867 270.521C51.1867 270.019 51.112 269.635 50.9627 269.369C50.8134 269.102 50.5627 268.921 50.2107 268.825C49.8694 268.729 49.4 268.681 48.8027 268.681ZM49.0427 273.465H46.6587V277.561C47.3094 277.571 48.136 277.577 49.1387 277.577C49.7254 277.577 50.184 277.529 50.5147 277.433C50.856 277.326 51.096 277.134 51.2347 276.857C51.384 276.579 51.4587 276.179 51.4587 275.657C51.4587 275.081 51.384 274.638 51.2347 274.329C51.0854 274.019 50.8347 273.801 50.4827 273.673C50.1307 273.545 49.6507 273.475 49.0427 273.465ZM63.4671 270.665C63.8191 270.665 64.2297 270.691 64.6991 270.745C65.1684 270.787 65.5951 270.883 65.9791 271.033L65.8031 271.913C65.4511 271.881 65.0777 271.859 64.6831 271.849C64.2991 271.827 63.9684 271.817 63.6911 271.817C63.0831 271.817 62.5924 271.902 62.2191 272.073C61.8564 272.243 61.5951 272.542 61.4351 272.969C61.2751 273.395 61.1951 273.987 61.1951 274.745C61.1951 275.502 61.2751 276.099 61.4351 276.537C61.5951 276.963 61.8564 277.262 62.2191 277.433C62.5924 277.603 63.0831 277.689 63.6911 277.689C63.9364 277.689 64.2831 277.678 64.7311 277.657C65.1791 277.635 65.6004 277.593 65.9951 277.529L66.1231 278.441C65.7391 278.579 65.3124 278.681 64.8431 278.745C64.3844 278.809 63.9257 278.841 63.4671 278.841C62.5711 278.841 61.8511 278.707 61.3071 278.441C60.7631 278.174 60.3684 277.742 60.1231 277.145C59.8884 276.547 59.7711 275.747 59.7711 274.745C59.7711 273.742 59.8884 272.942 60.1231 272.345C60.3684 271.747 60.7631 271.321 61.3071 271.065C61.8511 270.798 62.5711 270.665 63.4671 270.665ZM75.4361 270.857V278.649H74.0921V271.961H70.0921V278.649H68.7641V270.857H75.4361ZM85.5652 270.857V278.649H84.3332V273.481C84.3332 273.31 84.3385 273.145 84.3492 272.985C84.3599 272.814 84.3705 272.633 84.3812 272.441H84.3492C84.2852 272.59 84.1999 272.75 84.0932 272.921C83.9972 273.081 83.9012 273.225 83.8052 273.353L79.8372 278.649H78.7172V270.857H79.9492V276.025C79.9492 276.195 79.9439 276.366 79.9332 276.537C79.9332 276.697 79.9225 276.873 79.9012 277.065H79.9332C80.1039 276.713 80.2905 276.414 80.4932 276.169L84.4612 270.857H85.5652ZM92.1858 270.665C92.5378 270.665 92.9485 270.691 93.4178 270.745C93.8871 270.787 94.3138 270.883 94.6978 271.033L94.5218 271.913C94.1698 271.881 93.7965 271.859 93.4018 271.849C93.0178 271.827 92.6871 271.817 92.4098 271.817C91.8018 271.817 91.3111 271.902 90.9378 272.073C90.5751 272.243 90.3138 272.542 90.1538 272.969C89.9938 273.395 89.9138 273.987 89.9138 274.745C89.9138 275.502 89.9938 276.099 90.1538 276.537C90.3138 276.963 90.5751 277.262 90.9378 277.433C91.3111 277.603 91.8018 277.689 92.4098 277.689C92.6551 277.689 93.0018 277.678 93.4498 277.657C93.8978 277.635 94.3191 277.593 94.7138 277.529L94.8418 278.441C94.4578 278.579 94.0311 278.681 93.5618 278.745C93.1031 278.809 92.6445 278.841 92.1858 278.841C91.2898 278.841 90.5698 278.707 90.0258 278.441C89.4818 278.174 89.0871 277.742 88.8418 277.145C88.6071 276.547 88.4898 275.747 88.4898 274.745C88.4898 273.742 88.6071 272.942 88.8418 272.345C89.0871 271.747 89.4818 271.321 90.0258 271.065C90.5698 270.798 91.2898 270.665 92.1858 270.665ZM98.8428 270.857V273.177C98.8428 273.486 98.8161 273.785 98.7628 274.073H99.8508C100.363 274.073 100.773 273.945 101.083 273.689C101.392 273.433 101.659 273.065 101.883 272.585C102.117 272.105 102.363 271.529 102.619 270.857H104.027C103.739 271.625 103.472 272.275 103.227 272.809C102.981 273.342 102.693 273.753 102.363 274.041C102.043 274.329 101.605 274.505 101.051 274.569V274.617C101.637 274.67 102.101 274.846 102.443 275.145C102.784 275.433 103.088 275.865 103.355 276.441C103.621 277.006 103.92 277.742 104.251 278.649H102.827C102.507 277.806 102.224 277.129 101.979 276.617C101.733 276.094 101.451 275.715 101.131 275.481C100.821 275.235 100.395 275.118 99.8508 275.129H98.7788C98.8215 275.395 98.8428 275.646 98.8428 275.881V278.649H97.4828V270.857H98.8428ZM109.948 270.665C111.122 270.665 111.97 270.878 112.492 271.305C113.026 271.731 113.298 272.366 113.308 273.209C113.308 273.902 113.159 274.446 112.86 274.841C112.572 275.225 112.103 275.417 111.452 275.417H107.82C107.863 276.035 107.975 276.51 108.156 276.841C108.348 277.161 108.615 277.385 108.956 277.513C109.298 277.63 109.735 277.689 110.268 277.689C110.695 277.689 111.154 277.673 111.644 277.641C112.146 277.598 112.594 277.55 112.988 277.497L113.116 278.409C112.882 278.505 112.583 278.585 112.22 278.649C111.858 278.713 111.484 278.761 111.1 278.793C110.727 278.825 110.391 278.841 110.092 278.841C109.207 278.841 108.487 278.707 107.932 278.441C107.388 278.163 106.994 277.726 106.748 277.129C106.503 276.521 106.38 275.721 106.38 274.729C106.38 273.705 106.503 272.899 106.748 272.313C107.004 271.715 107.394 271.294 107.916 271.049C108.439 270.793 109.116 270.665 109.948 270.665ZM110.012 271.817C109.468 271.817 109.036 271.891 108.716 272.041C108.407 272.19 108.178 272.451 108.028 272.825C107.89 273.187 107.81 273.699 107.788 274.361H111.1C111.442 274.361 111.666 274.243 111.772 274.009C111.89 273.763 111.943 273.497 111.932 273.209C111.932 272.707 111.788 272.35 111.5 272.137C111.212 271.923 110.716 271.817 110.012 271.817ZM123.652 270.665C124.825 270.665 125.673 270.878 126.196 271.305C126.729 271.731 127.001 272.366 127.012 273.209C127.012 273.902 126.862 274.446 126.564 274.841C126.276 275.225 125.806 275.417 125.156 275.417H121.524C121.566 276.035 121.678 276.51 121.86 276.841C122.052 277.161 122.318 277.385 122.66 277.513C123.001 277.63 123.438 277.689 123.972 277.689C124.398 277.689 124.857 277.673 125.348 277.641C125.849 277.598 126.297 277.55 126.692 277.497L126.82 278.409C126.585 278.505 126.286 278.585 125.924 278.649C125.561 278.713 125.188 278.761 124.804 278.793C124.43 278.825 124.094 278.841 123.796 278.841C122.91 278.841 122.19 278.707 121.636 278.441C121.092 278.163 120.697 277.726 120.452 277.129C120.206 276.521 120.084 275.721 120.084 274.729C120.084 273.705 120.206 272.899 120.452 272.313C120.708 271.715 121.097 271.294 121.62 271.049C122.142 270.793 122.82 270.665 123.652 270.665ZM123.716 271.817C123.172 271.817 122.74 271.891 122.42 272.041C122.11 272.19 121.881 272.451 121.732 272.825C121.593 273.187 121.513 273.699 121.492 274.361H124.804C125.145 274.361 125.369 274.243 125.476 274.009C125.593 273.763 125.646 273.497 125.636 273.209C125.636 272.707 125.492 272.35 125.204 272.137C124.916 271.923 124.42 271.817 123.716 271.817ZM131.17 270.857V277.561H134.402V270.857H135.634V277.561H138.898V270.857H140.21V277.561H141.282V280.953H140.37L140.226 278.649H129.858V270.857H131.17ZM147.027 270.665C148.2 270.665 149.048 270.878 149.571 271.305C150.104 271.731 150.376 272.366 150.387 273.209C150.387 273.902 150.237 274.446 149.939 274.841C149.651 275.225 149.181 275.417 148.531 275.417H144.899C144.941 276.035 145.053 276.51 145.235 276.841C145.427 277.161 145.693 277.385 146.035 277.513C146.376 277.63 146.813 277.689 147.347 277.689C147.773 277.689 148.232 277.673 148.723 277.641C149.224 277.598 149.672 277.55 150.067 277.497L150.195 278.409C149.96 278.505 149.661 278.585 149.299 278.649C148.936 278.713 148.563 278.761 148.179 278.793C147.805 278.825 147.469 278.841 147.171 278.841C146.285 278.841 145.565 278.707 145.011 278.441C144.467 278.163 144.072 277.726 143.827 277.129C143.581 276.521 143.459 275.721 143.459 274.729C143.459 273.705 143.581 272.899 143.827 272.313C144.083 271.715 144.472 271.294 144.995 271.049C145.517 270.793 146.195 270.665 147.027 270.665ZM147.091 271.817C146.547 271.817 146.115 271.891 145.795 272.041C145.485 272.19 145.256 272.451 145.107 272.825C144.968 273.187 144.888 273.699 144.867 274.361H148.179C148.52 274.361 148.744 274.243 148.851 274.009C148.968 273.763 149.021 273.497 149.011 273.209C149.011 272.707 148.867 272.35 148.579 272.137C148.291 271.923 147.795 271.817 147.091 271.817ZM158.874 270.857V273.993H162.97V270.857H164.314V278.649H162.97V275.033H158.874V278.649H157.53V270.857H158.874ZM170.792 270.665C171.966 270.665 172.814 270.878 173.336 271.305C173.87 271.731 174.142 272.366 174.152 273.209C174.152 273.902 174.003 274.446 173.704 274.841C173.416 275.225 172.947 275.417 172.296 275.417H168.664C168.707 276.035 168.819 276.51 169 276.841C169.192 277.161 169.459 277.385 169.8 277.513C170.142 277.63 170.579 277.689 171.112 277.689C171.539 277.689 171.998 277.673 172.488 277.641C172.99 277.598 173.438 277.55 173.832 277.497L173.96 278.409C173.726 278.505 173.427 278.585 173.064 278.649C172.702 278.713 172.328 278.761 171.944 278.793C171.571 278.825 171.235 278.841 170.936 278.841C170.051 278.841 169.331 278.707 168.776 278.441C168.232 278.163 167.838 277.726 167.592 277.129C167.347 276.521 167.224 275.721 167.224 274.729C167.224 273.705 167.347 272.899 167.592 272.313C167.848 271.715 168.238 271.294 168.76 271.049C169.283 270.793 169.96 270.665 170.792 270.665ZM170.856 271.817C170.312 271.817 169.88 271.891 169.56 272.041C169.251 272.19 169.022 272.451 168.872 272.825C168.734 273.187 168.654 273.699 168.632 274.361H171.944C172.286 274.361 172.51 274.243 172.616 274.009C172.734 273.763 172.787 273.497 172.776 273.209C172.776 272.707 172.632 272.35 172.344 272.137C172.056 271.923 171.56 271.817 170.856 271.817ZM182.83 270.857V271.977H180.014V278.649H178.654V271.977H175.822V270.857H182.83ZM190.921 270.857V273.993H195.017V270.857H196.361V278.649H195.017V275.033H190.921V278.649H189.577V270.857H190.921ZM206.487 270.857V278.649H205.255V273.481C205.255 273.31 205.26 273.145 205.271 272.985C205.282 272.814 205.292 272.633 205.303 272.441H205.271C205.207 272.59 205.122 272.75 205.015 272.921C204.919 273.081 204.823 273.225 204.727 273.353L200.759 278.649H199.639V270.857H200.871V276.025C200.871 276.195 200.866 276.366 200.855 276.537C200.855 276.697 200.844 276.873 200.823 277.065H200.855C201.026 276.713 201.212 276.414 201.415 276.169L205.383 270.857H206.487ZM217.404 270.665C218.3 270.665 219.015 270.798 219.548 271.065C220.082 271.331 220.466 271.769 220.7 272.377C220.946 272.974 221.068 273.769 221.068 274.761C221.068 275.753 220.946 276.553 220.7 277.161C220.466 277.758 220.082 278.19 219.548 278.457C219.015 278.723 218.3 278.857 217.404 278.857C216.508 278.857 215.788 278.723 215.244 278.457C214.711 278.19 214.322 277.758 214.076 277.161C213.842 276.553 213.724 275.753 213.724 274.761C213.724 273.769 213.842 272.974 214.076 272.377C214.322 271.769 214.711 271.331 215.244 271.065C215.788 270.798 216.508 270.665 217.404 270.665ZM217.404 271.817C216.839 271.817 216.391 271.907 216.06 272.089C215.73 272.259 215.495 272.558 215.356 272.985C215.218 273.411 215.148 274.003 215.148 274.761C215.148 275.518 215.218 276.11 215.356 276.537C215.495 276.963 215.73 277.267 216.06 277.449C216.391 277.619 216.839 277.705 217.404 277.705C217.97 277.705 218.412 277.619 218.732 277.449C219.063 277.267 219.298 276.963 219.436 276.537C219.575 276.11 219.644 275.518 219.644 274.761C219.644 274.003 219.575 273.411 219.436 272.985C219.298 272.558 219.063 272.259 218.732 272.089C218.412 271.907 217.97 271.817 217.404 271.817ZM231.3 277.561V280.953H230.404L230.276 278.649H223.988L223.86 280.953H222.98V277.561H223.876C224.26 276.782 224.537 275.982 224.708 275.161C224.878 274.329 224.99 273.491 225.044 272.649C225.129 271.454 225.79 270.857 227.028 270.857H230.228V277.561H231.3ZM226.276 272.873C226.212 273.779 226.089 274.617 225.908 275.385C225.737 276.153 225.465 276.878 225.092 277.561H228.932V271.929H227.252C226.654 271.929 226.329 272.243 226.276 272.873ZM235.264 270.857V273.993H239.36V270.857H240.704V278.649H239.36V275.033H235.264V278.649H233.92V270.857H235.264ZM247.295 270.665C248.191 270.665 248.905 270.798 249.439 271.065C249.972 271.331 250.356 271.769 250.591 272.377C250.836 272.974 250.959 273.769 250.959 274.761C250.959 275.753 250.836 276.553 250.591 277.161C250.356 277.758 249.972 278.19 249.439 278.457C248.905 278.723 248.191 278.857 247.295 278.857C246.399 278.857 245.679 278.723 245.135 278.457C244.601 278.19 244.212 277.758 243.967 277.161C243.732 276.553 243.615 275.753 243.615 274.761C243.615 273.769 243.732 272.974 243.967 272.377C244.212 271.769 244.601 271.331 245.135 271.065C245.679 270.798 246.399 270.665 247.295 270.665ZM247.295 271.817C246.729 271.817 246.281 271.907 245.951 272.089C245.62 272.259 245.385 272.558 245.247 272.985C245.108 273.411 245.039 274.003 245.039 274.761C245.039 275.518 245.108 276.11 245.247 276.537C245.385 276.963 245.62 277.267 245.951 277.449C246.281 277.619 246.729 277.705 247.295 277.705C247.86 277.705 248.303 277.619 248.623 277.449C248.953 277.267 249.188 276.963 249.327 276.537C249.465 276.11 249.535 275.518 249.535 274.761C249.535 274.003 249.465 273.411 249.327 272.985C249.188 272.558 248.953 272.259 248.623 272.089C248.303 271.907 247.86 271.817 247.295 271.817ZM260.721 270.857V278.649H259.489V273.481C259.489 273.31 259.495 273.145 259.505 272.985C259.516 272.814 259.527 272.633 259.537 272.441H259.505C259.441 272.59 259.356 272.75 259.249 272.921C259.153 273.081 259.057 273.225 258.961 273.353L254.993 278.649H253.873V270.857H255.105V276.025C255.105 276.195 255.1 276.366 255.089 276.537C255.089 276.697 255.079 276.873 255.057 277.065H255.089C255.26 276.713 255.447 276.414 255.649 276.169L259.617 270.857H260.721ZM258.609 267.401H259.649C259.692 268.019 259.495 268.542 259.057 268.969C258.631 269.395 258.033 269.609 257.265 269.609C256.487 269.609 255.879 269.395 255.441 268.969C255.004 268.542 254.807 268.019 254.849 267.401H255.889C255.889 267.859 256.007 268.217 256.241 268.473C256.487 268.718 256.828 268.841 257.265 268.841C257.692 268.841 258.023 268.718 258.257 268.473C258.492 268.217 258.609 267.859 258.609 267.401ZM270.359 270.729C271.223 270.729 271.911 270.787 272.423 270.905C272.935 271.011 273.303 271.214 273.527 271.513C273.761 271.811 273.879 272.243 273.879 272.809C273.879 273.363 273.756 273.79 273.511 274.089C273.276 274.387 272.849 274.563 272.231 274.617V274.665C272.924 274.718 273.415 274.91 273.703 275.241C274.001 275.571 274.151 276.067 274.151 276.729C274.151 277.273 274.039 277.694 273.815 277.993C273.591 278.291 273.233 278.499 272.743 278.617C272.252 278.734 271.607 278.793 270.807 278.793C270.327 278.793 269.815 278.771 269.271 278.729C268.727 278.697 268.209 278.638 267.719 278.553L267.831 277.513C268.183 277.545 268.62 277.577 269.143 277.609C269.676 277.63 270.199 277.641 270.711 277.641C271.5 277.641 272.033 277.561 272.311 277.401C272.599 277.23 272.743 276.91 272.743 276.441C272.743 275.95 272.599 275.619 272.311 275.449C272.023 275.267 271.5 275.177 270.743 275.177H268.871V274.185L270.727 274.169C271.42 274.169 271.895 274.089 272.151 273.929C272.407 273.758 272.535 273.443 272.535 272.985C272.535 272.526 272.38 272.227 272.071 272.089C271.761 271.95 271.196 271.881 270.375 271.881C269.959 271.881 269.543 271.891 269.127 271.913C268.711 271.934 268.359 271.966 268.071 272.009L267.959 270.969C268.396 270.862 268.823 270.798 269.239 270.777C269.665 270.745 270.039 270.729 270.359 270.729ZM280.71 270.665C281.574 270.665 282.23 270.846 282.678 271.209C283.137 271.561 283.366 272.211 283.366 273.161V278.649H282.294L282.134 277.369C281.931 277.571 281.67 277.785 281.35 278.009C281.03 278.222 280.662 278.409 280.246 278.569C279.841 278.718 279.398 278.793 278.918 278.793C278.225 278.793 277.665 278.606 277.238 278.233C276.811 277.859 276.598 277.321 276.598 276.617V275.769C276.598 275.161 276.785 274.691 277.158 274.361C277.542 274.019 278.075 273.849 278.758 273.849H282.006V273.161C281.995 272.681 281.883 272.339 281.67 272.137C281.457 271.923 281.041 271.817 280.422 271.817C280.006 271.817 279.489 271.838 278.87 271.881C278.262 271.923 277.659 271.971 277.062 272.025L276.934 271.017C277.478 270.931 278.097 270.851 278.79 270.777C279.483 270.702 280.123 270.665 280.71 270.665ZM279.19 277.625C279.574 277.635 280.022 277.545 280.534 277.353C281.057 277.15 281.547 276.846 282.006 276.441V274.873L278.998 274.889C278.625 274.899 278.358 275.001 278.198 275.193C278.049 275.374 277.974 275.63 277.974 275.961V276.457C277.974 276.862 278.07 277.161 278.262 277.353C278.465 277.534 278.774 277.625 279.19 277.625ZM294.112 277.561V280.953H293.216L293.088 278.649H286.8L286.672 280.953H285.792V277.561H286.688C287.072 276.782 287.35 275.982 287.52 275.161C287.691 274.329 287.803 273.491 287.856 272.649C287.942 271.454 288.603 270.857 289.84 270.857H293.04V277.561H294.112ZM289.088 272.873C289.024 273.779 288.902 274.617 288.72 275.385C288.55 276.153 288.278 276.878 287.904 277.561H291.744V271.929H290.064C289.467 271.929 289.142 272.243 289.088 272.873ZM300.429 270.665C301.293 270.665 301.949 270.846 302.397 271.209C302.855 271.561 303.085 272.211 303.085 273.161V278.649H302.013L301.853 277.369C301.65 277.571 301.389 277.785 301.069 278.009C300.749 278.222 300.381 278.409 299.965 278.569C299.559 278.718 299.117 278.793 298.637 278.793C297.943 278.793 297.383 278.606 296.957 278.233C296.53 277.859 296.317 277.321 296.317 276.617V275.769C296.317 275.161 296.503 274.691 296.877 274.361C297.261 274.019 297.794 273.849 298.477 273.849H301.725V273.161C301.714 272.681 301.602 272.339 301.389 272.137C301.175 271.923 300.759 271.817 300.141 271.817C299.725 271.817 299.207 271.838 298.589 271.881C297.981 271.923 297.378 271.971 296.781 272.025L296.653 271.017C297.197 270.931 297.815 270.851 298.509 270.777C299.202 270.702 299.842 270.665 300.429 270.665ZM298.909 277.625C299.293 277.635 299.741 277.545 300.253 277.353C300.775 277.15 301.266 276.846 301.725 276.441V274.873L298.717 274.889C298.343 274.899 298.077 275.001 297.917 275.193C297.767 275.374 297.693 275.63 297.693 275.961V276.457C297.693 276.862 297.789 277.161 297.981 277.353C298.183 277.534 298.493 277.625 298.909 277.625ZM307.271 270.857V273.785C307.271 274.169 307.351 274.441 307.511 274.601C307.682 274.75 307.954 274.825 308.327 274.825C308.754 274.825 309.17 274.787 309.575 274.713C309.98 274.627 310.428 274.483 310.919 274.281V270.857H312.279V278.649H310.919V275.369C310.386 275.561 309.842 275.705 309.287 275.801C308.743 275.897 308.274 275.945 307.879 275.945C306.578 275.945 305.927 275.374 305.927 274.233V270.857H307.271ZM322.425 270.857V278.649H321.193V273.481C321.193 273.31 321.198 273.145 321.209 272.985C321.219 272.814 321.23 272.633 321.241 272.441H321.209C321.145 272.59 321.059 272.75 320.953 272.921C320.857 273.081 320.761 273.225 320.665 273.353L316.697 278.649H315.577V270.857H316.809V276.025C316.809 276.195 316.803 276.366 316.793 276.537C316.793 276.697 316.782 276.873 316.761 277.065H316.793C316.963 276.713 317.15 276.414 317.353 276.169L321.321 270.857H322.425ZM326.501 276.761C326.693 276.761 326.827 276.798 326.901 276.873C326.976 276.947 327.013 277.081 327.013 277.273V278.137C327.013 278.329 326.976 278.462 326.901 278.537C326.827 278.611 326.693 278.649 326.501 278.649H326.053C325.872 278.649 325.739 278.611 325.653 278.537C325.579 278.462 325.541 278.329 325.541 278.137V277.273C325.541 277.081 325.579 276.947 325.653 276.873C325.739 276.798 325.872 276.761 326.053 276.761H326.501ZM5.42137 295.481C6.32804 295.481 7.04804 295.566 7.58137 295.737C8.11471 295.897 8.49871 296.185 8.73337 296.601C8.97871 297.017 9.10137 297.603 9.10137 298.361C9.10137 299.15 8.95204 299.753 8.65337 300.169C8.36537 300.585 7.89071 300.825 7.22937 300.889V300.953C8.05071 301.027 8.62137 301.315 8.94137 301.817C9.27204 302.318 9.43737 303.011 9.43737 303.897C9.43737 304.654 9.32004 305.241 9.08537 305.657C8.85071 306.073 8.47204 306.366 7.94937 306.537C7.43737 306.697 6.76004 306.777 5.91737 306.777C5.28804 306.777 4.74404 306.771 4.28537 306.761C3.83737 306.761 3.42137 306.75 3.03737 306.729C2.65337 306.707 2.25337 306.681 1.83737 306.649V295.609C2.21071 295.566 2.56271 295.539 2.89337 295.529C3.23471 295.507 3.60271 295.497 3.99737 295.497C4.40271 295.486 4.87737 295.481 5.42137 295.481ZM5.35737 296.681C4.93071 296.681 4.53604 296.681 4.17337 296.681C3.82137 296.681 3.50137 296.681 3.21337 296.681V300.393H5.58137C6.11471 300.382 6.53604 300.329 6.84537 300.233C7.16537 300.126 7.39471 299.939 7.53337 299.673C7.67204 299.395 7.74137 299.011 7.74137 298.521C7.74137 298.019 7.66671 297.635 7.51737 297.369C7.36804 297.102 7.11737 296.921 6.76537 296.825C6.42404 296.729 5.95471 296.681 5.35737 296.681ZM5.59737 301.465H3.21337V305.561C3.86404 305.571 4.69071 305.577 5.69337 305.577C6.28004 305.577 6.73871 305.529 7.06937 305.433C7.41071 305.326 7.65071 305.134 7.78937 304.857C7.93871 304.579 8.01337 304.179 8.01337 303.657C8.01337 303.081 7.93871 302.638 7.78937 302.329C7.64004 302.019 7.38937 301.801 7.03737 301.673C6.68537 301.545 6.20537 301.475 5.59737 301.465ZM15.6932 298.665C16.5892 298.665 17.3039 298.798 17.8372 299.065C18.3706 299.331 18.7546 299.769 18.9892 300.377C19.2346 300.974 19.3572 301.769 19.3572 302.761C19.3572 303.753 19.2346 304.553 18.9892 305.161C18.7546 305.758 18.3706 306.19 17.8372 306.457C17.3039 306.723 16.5892 306.857 15.6932 306.857C14.7972 306.857 14.0772 306.723 13.5332 306.457C12.9999 306.19 12.6106 305.758 12.3652 305.161C12.1306 304.553 12.0132 303.753 12.0132 302.761C12.0132 301.769 12.1306 300.974 12.3652 300.377C12.6106 299.769 12.9999 299.331 13.5332 299.065C14.0772 298.798 14.7972 298.665 15.6932 298.665ZM15.6932 299.817C15.1279 299.817 14.6799 299.907 14.3492 300.089C14.0186 300.259 13.7839 300.558 13.6452 300.985C13.5066 301.411 13.4372 302.003 13.4372 302.761C13.4372 303.518 13.5066 304.11 13.6452 304.537C13.7839 304.963 14.0186 305.267 14.3492 305.449C14.6799 305.619 15.1279 305.705 15.6932 305.705C16.2586 305.705 16.7012 305.619 17.0212 305.449C17.3519 305.267 17.5866 304.963 17.7252 304.537C17.8639 304.11 17.9332 303.518 17.9332 302.761C17.9332 302.003 17.8639 301.411 17.7252 300.985C17.5866 300.558 17.3519 300.259 17.0212 300.089C16.7012 299.907 16.2586 299.817 15.6932 299.817ZM25.5999 298.665C25.9519 298.665 26.3625 298.691 26.8319 298.745C27.3012 298.787 27.7279 298.883 28.1119 299.033L27.9359 299.913C27.5839 299.881 27.2105 299.859 26.8159 299.849C26.4319 299.827 26.1012 299.817 25.8239 299.817C25.2159 299.817 24.7252 299.902 24.3519 300.073C23.9892 300.243 23.7279 300.542 23.5679 300.969C23.4079 301.395 23.3279 301.987 23.3279 302.745C23.3279 303.502 23.4079 304.099 23.5679 304.537C23.7279 304.963 23.9892 305.262 24.3519 305.433C24.7252 305.603 25.2159 305.689 25.8239 305.689C26.0692 305.689 26.4159 305.678 26.8639 305.657C27.3119 305.635 27.7332 305.593 28.1279 305.529L28.2559 306.441C27.8719 306.579 27.4452 306.681 26.9759 306.745C26.5172 306.809 26.0585 306.841 25.5999 306.841C24.7039 306.841 23.9839 306.707 23.4399 306.441C22.8959 306.174 22.5012 305.742 22.2559 305.145C22.0212 304.547 21.9039 303.747 21.9039 302.745C21.9039 301.742 22.0212 300.942 22.2559 300.345C22.5012 299.747 22.8959 299.321 23.4399 299.065C23.9839 298.798 24.7039 298.665 25.5999 298.665ZM37.5689 298.857V306.649H36.2249V299.961H32.2249V306.649H30.8969V298.857H37.5689ZM44.162 298.665C45.058 298.665 45.7727 298.798 46.306 299.065C46.8393 299.331 47.2233 299.769 47.458 300.377C47.7033 300.974 47.826 301.769 47.826 302.761C47.826 303.753 47.7033 304.553 47.458 305.161C47.2233 305.758 46.8393 306.19 46.306 306.457C45.7727 306.723 45.058 306.857 44.162 306.857C43.266 306.857 42.546 306.723 42.002 306.457C41.4687 306.19 41.0793 305.758 40.834 305.161C40.5993 304.553 40.482 303.753 40.482 302.761C40.482 301.769 40.5993 300.974 40.834 300.377C41.0793 299.769 41.4687 299.331 42.002 299.065C42.546 298.798 43.266 298.665 44.162 298.665ZM44.162 299.817C43.5967 299.817 43.1487 299.907 42.818 300.089C42.4873 300.259 42.2527 300.558 42.114 300.985C41.9753 301.411 41.906 302.003 41.906 302.761C41.906 303.518 41.9753 304.11 42.114 304.537C42.2527 304.963 42.4873 305.267 42.818 305.449C43.1487 305.619 43.5967 305.705 44.162 305.705C44.7273 305.705 45.17 305.619 45.49 305.449C45.8207 305.267 46.0553 304.963 46.194 304.537C46.3327 304.11 46.402 303.518 46.402 302.761C46.402 302.003 46.3327 301.411 46.194 300.985C46.0553 300.558 45.8207 300.259 45.49 300.089C45.17 299.907 44.7273 299.817 44.162 299.817ZM57.0636 298.857V306.649H55.7036V299.929H54.0076C53.677 299.929 53.437 300.003 53.2876 300.153C53.149 300.291 53.053 300.542 52.9996 300.905C52.9143 301.609 52.8183 302.334 52.7116 303.081C52.605 303.817 52.4503 304.457 52.2476 305.001C51.853 306.142 51.037 306.718 49.7996 306.729L49.6556 305.689C50.093 305.582 50.4023 305.443 50.5836 305.273C50.7756 305.102 50.925 304.878 51.0316 304.601C51.1703 304.259 51.2823 303.854 51.3676 303.385C51.453 302.915 51.5223 302.441 51.5756 301.961C51.6396 301.47 51.6876 301.043 51.7196 300.681C51.7943 300.083 51.9863 299.63 52.2956 299.321C52.6156 299.011 53.101 298.857 53.7516 298.857H57.0636ZM63.518 301.881C64.318 301.881 64.942 301.955 65.39 302.105C65.8487 302.254 66.174 302.51 66.366 302.873C66.558 303.225 66.654 303.705 66.654 304.313C66.654 304.942 66.5527 305.438 66.35 305.801C66.158 306.153 65.8433 306.398 65.406 306.537C64.9793 306.675 64.4193 306.745 63.726 306.745C63.214 306.745 62.7713 306.739 62.398 306.729C62.0247 306.729 61.6833 306.718 61.374 306.697C61.0647 306.686 60.7393 306.67 60.398 306.649H60.35V298.857H61.678V301.881H63.518ZM63.518 302.889H61.678V305.657C62.1793 305.667 62.7927 305.673 63.518 305.673C64.158 305.673 64.606 305.582 64.862 305.401C65.1287 305.219 65.262 304.841 65.262 304.265C65.262 303.753 65.1447 303.395 64.91 303.193C64.6753 302.99 64.2113 302.889 63.518 302.889ZM71.382 298.729C72.246 298.729 72.934 298.787 73.446 298.905C73.958 299.011 74.326 299.214 74.55 299.513C74.7847 299.811 74.902 300.243 74.902 300.809C74.902 301.363 74.7793 301.79 74.534 302.089C74.2993 302.387 73.8727 302.563 73.254 302.617V302.665C73.9473 302.718 74.438 302.91 74.726 303.241C75.0247 303.571 75.174 304.067 75.174 304.729C75.174 305.273 75.062 305.694 74.838 305.993C74.614 306.291 74.2567 306.499 73.766 306.617C73.2753 306.734 72.63 306.793 71.83 306.793C71.35 306.793 70.838 306.771 70.294 306.729C69.75 306.697 69.2327 306.638 68.742 306.553L68.854 305.513C69.206 305.545 69.6433 305.577 70.166 305.609C70.6993 305.63 71.222 305.641 71.734 305.641C72.5233 305.641 73.0567 305.561 73.334 305.401C73.622 305.23 73.766 304.91 73.766 304.441C73.766 303.95 73.622 303.619 73.334 303.449C73.046 303.267 72.5233 303.177 71.766 303.177H69.894V302.185L71.75 302.169C72.4433 302.169 72.918 302.089 73.174 301.929C73.43 301.758 73.558 301.443 73.558 300.985C73.558 300.526 73.4033 300.227 73.094 300.089C72.7847 299.95 72.2193 299.881 71.398 299.881C70.982 299.881 70.566 299.891 70.15 299.913C69.734 299.934 69.382 299.966 69.094 300.009L68.982 298.969C69.4193 298.862 69.846 298.798 70.262 298.777C70.6887 298.745 71.062 298.729 71.382 298.729ZM78.4557 298.857L80.5197 304.665C80.5731 304.825 80.6211 304.985 80.6637 305.145C80.7171 305.294 80.7651 305.449 80.8077 305.609H81.0317C81.0851 305.449 81.1384 305.289 81.1917 305.129C81.2451 304.958 81.2984 304.803 81.3517 304.665L83.3997 298.857H84.8557L81.7517 307.081C81.6237 307.411 81.4424 307.801 81.2077 308.249C80.9731 308.697 80.6637 309.065 80.2797 309.353C79.8851 309.651 79.4424 309.827 78.9517 309.881C78.4717 309.945 77.9491 309.939 77.3837 309.865L77.5117 308.921C77.8531 308.931 78.1837 308.915 78.5037 308.873C78.8344 308.841 79.1277 308.739 79.3837 308.569C79.6077 308.409 79.8104 308.185 79.9917 307.897C80.1837 307.619 80.3437 307.315 80.4717 306.985L80.6157 306.649H80.3117C80.0664 306.649 79.9011 306.531 79.8157 306.297L76.9997 298.857H78.4557ZM94.0574 298.857V306.649H92.8254V301.481C92.8254 301.31 92.8307 301.145 92.8414 300.985C92.852 300.814 92.8627 300.633 92.8734 300.441H92.8414C92.7774 300.59 92.692 300.75 92.5854 300.921C92.4894 301.081 92.3934 301.225 92.2974 301.353L88.3294 306.649H87.2094V298.857H88.4414V304.025C88.4414 304.195 88.436 304.366 88.4254 304.537C88.4254 304.697 88.4147 304.873 88.3934 305.065H88.4254C88.596 304.713 88.7827 304.414 88.9854 304.169L92.9534 298.857H94.0574ZM91.9454 295.401H92.9854C93.028 296.019 92.8307 296.542 92.3934 296.969C91.9667 297.395 91.3694 297.609 90.6014 297.609C89.8227 297.609 89.2147 297.395 88.7774 296.969C88.34 296.542 88.1427 296.019 88.1854 295.401H89.2254C89.2254 295.859 89.3427 296.217 89.5774 296.473C89.8227 296.718 90.164 296.841 90.6014 296.841C91.028 296.841 91.3587 296.718 91.5934 296.473C91.828 296.217 91.9454 295.859 91.9454 295.401ZM100.678 298.665C101.03 298.665 101.441 298.691 101.91 298.745C102.379 298.787 102.806 298.883 103.19 299.033L103.014 299.913C102.662 299.881 102.289 299.859 101.894 299.849C101.51 299.827 101.179 299.817 100.902 299.817C100.294 299.817 99.8033 299.902 99.43 300.073C99.0673 300.243 98.806 300.542 98.646 300.969C98.486 301.395 98.406 301.987 98.406 302.745C98.406 303.502 98.486 304.099 98.646 304.537C98.806 304.963 99.0673 305.262 99.43 305.433C99.8033 305.603 100.294 305.689 100.902 305.689C101.147 305.689 101.494 305.678 101.942 305.657C102.39 305.635 102.811 305.593 103.206 305.529L103.334 306.441C102.95 306.579 102.523 306.681 102.054 306.745C101.595 306.809 101.137 306.841 100.678 306.841C99.782 306.841 99.062 306.707 98.518 306.441C97.974 306.174 97.5793 305.742 97.334 305.145C97.0993 304.547 96.982 303.747 96.982 302.745C96.982 301.742 97.0993 300.942 97.334 300.345C97.5793 299.747 97.974 299.321 98.518 299.065C99.062 298.798 99.782 298.665 100.678 298.665ZM108.695 298.777C109.282 298.777 109.767 298.782 110.151 298.793C110.535 298.793 110.876 298.803 111.175 298.825C111.484 298.835 111.804 298.857 112.135 298.889V306.649H110.807V303.769C110.54 303.769 110.231 303.769 109.879 303.769C109.538 303.769 109.148 303.769 108.711 303.769C107.954 303.769 107.5 304.035 107.351 304.569L106.759 306.649H105.351L106.055 304.313C106.162 303.971 106.364 303.731 106.663 303.593C106.972 303.443 107.276 303.353 107.575 303.321V303.257C106.924 303.171 106.466 302.942 106.199 302.569C105.932 302.195 105.799 301.699 105.799 301.081C105.799 300.59 105.884 300.174 106.055 299.833C106.226 299.491 106.519 299.23 106.935 299.049C107.362 298.867 107.948 298.777 108.695 298.777ZM108.775 302.745H110.807V299.881C110.53 299.87 110.215 299.865 109.863 299.865C109.511 299.865 109.132 299.865 108.727 299.865C108.076 299.865 107.644 299.977 107.431 300.201C107.228 300.414 107.127 300.771 107.127 301.273C107.127 301.795 107.234 302.174 107.447 302.409C107.671 302.633 108.114 302.745 108.775 302.745ZM124.845 295.449V298.681C125.869 298.723 126.69 298.889 127.309 299.177C127.928 299.465 128.376 299.902 128.653 300.489C128.941 301.075 129.085 301.833 129.085 302.761C129.085 303.689 128.941 304.446 128.653 305.033C128.376 305.609 127.928 306.041 127.309 306.329C126.69 306.617 125.869 306.782 124.845 306.825V309.865H123.581V306.825C122.557 306.782 121.73 306.617 121.101 306.329C120.482 306.041 120.034 305.609 119.757 305.033C119.48 304.446 119.341 303.689 119.341 302.761C119.341 301.833 119.48 301.081 119.757 300.505C120.034 299.918 120.482 299.481 121.101 299.193C121.73 298.894 122.557 298.723 123.581 298.681V295.449H124.845ZM120.653 302.761C120.653 303.454 120.749 304.009 120.941 304.425C121.133 304.841 121.442 305.145 121.869 305.337C122.306 305.529 122.893 305.641 123.629 305.673V299.833C122.893 299.865 122.306 299.977 121.869 300.169C121.442 300.361 121.133 300.665 120.941 301.081C120.749 301.497 120.653 302.057 120.653 302.761ZM127.757 302.761C127.757 302.067 127.661 301.513 127.469 301.097C127.288 300.681 126.978 300.377 126.541 300.185C126.114 299.982 125.533 299.865 124.797 299.833V305.673C125.533 305.641 126.114 305.529 126.541 305.337C126.978 305.145 127.288 304.841 127.469 304.425C127.661 304.009 127.757 303.454 127.757 302.761ZM135.287 298.665C136.183 298.665 136.898 298.798 137.431 299.065C137.964 299.331 138.348 299.769 138.583 300.377C138.828 300.974 138.951 301.769 138.951 302.761C138.951 303.753 138.828 304.553 138.583 305.161C138.348 305.758 137.964 306.19 137.431 306.457C136.898 306.723 136.183 306.857 135.287 306.857C134.391 306.857 133.671 306.723 133.127 306.457C132.594 306.19 132.204 305.758 131.959 305.161C131.724 304.553 131.607 303.753 131.607 302.761C131.607 301.769 131.724 300.974 131.959 300.377C132.204 299.769 132.594 299.331 133.127 299.065C133.671 298.798 134.391 298.665 135.287 298.665ZM135.287 299.817C134.722 299.817 134.274 299.907 133.943 300.089C133.612 300.259 133.378 300.558 133.239 300.985C133.1 301.411 133.031 302.003 133.031 302.761C133.031 303.518 133.1 304.11 133.239 304.537C133.378 304.963 133.612 305.267 133.943 305.449C134.274 305.619 134.722 305.705 135.287 305.705C135.852 305.705 136.295 305.619 136.615 305.449C136.946 305.267 137.18 304.963 137.319 304.537C137.458 304.11 137.527 303.518 137.527 302.761C137.527 302.003 137.458 301.411 137.319 300.985C137.18 300.558 136.946 300.259 136.615 300.089C136.295 299.907 135.852 299.817 135.287 299.817ZM142.986 298.857L143.114 300.089C143.54 299.651 144.042 299.305 144.618 299.049C145.204 298.793 145.775 298.665 146.33 298.665C147.29 298.665 147.978 299.017 148.394 299.721C148.81 300.414 149.018 301.438 149.018 302.793C149.018 303.795 148.911 304.595 148.698 305.193C148.484 305.779 148.159 306.201 147.722 306.457C147.284 306.713 146.735 306.841 146.074 306.841C145.562 306.841 145.055 306.777 144.554 306.649C144.063 306.51 143.604 306.307 143.178 306.041C143.199 306.307 143.215 306.563 143.226 306.809C143.236 307.065 143.236 307.331 143.226 307.609V309.865H141.882V298.857H142.986ZM145.898 299.849C145.471 299.849 145.05 299.95 144.634 300.153C144.228 300.345 143.759 300.643 143.226 301.049V305.193C143.716 305.321 144.148 305.433 144.522 305.529C144.906 305.614 145.306 305.657 145.722 305.657C146.18 305.657 146.543 305.577 146.81 305.417C147.087 305.257 147.29 304.969 147.418 304.553C147.546 304.137 147.61 303.55 147.61 302.793C147.61 301.683 147.476 300.915 147.21 300.489C146.954 300.062 146.516 299.849 145.898 299.849ZM160.696 298.857C161.037 298.857 161.208 299.027 161.208 299.369L161.544 306.649H160.28L159.976 299.897H159.704L157.72 305.353C157.677 305.491 157.613 305.603 157.528 305.689C157.442 305.763 157.325 305.801 157.176 305.801H156.12C155.97 305.801 155.853 305.763 155.768 305.689C155.693 305.603 155.629 305.491 155.576 305.353L153.592 299.897H153.32L153.032 306.649H151.784L152.104 299.369C152.104 299.027 152.28 298.857 152.632 298.857H154.04C154.306 298.857 154.482 299.006 154.568 299.305L156.184 303.785C156.258 303.977 156.322 304.163 156.376 304.345C156.429 304.526 156.477 304.713 156.52 304.905H156.776C156.829 304.702 156.882 304.51 156.936 304.329C156.989 304.147 157.048 303.966 157.112 303.785L158.728 299.305C158.824 299.006 159.005 298.857 159.272 298.857H160.696ZM167.928 298.665C168.824 298.665 169.538 298.798 170.072 299.065C170.605 299.331 170.989 299.769 171.224 300.377C171.469 300.974 171.592 301.769 171.592 302.761C171.592 303.753 171.469 304.553 171.224 305.161C170.989 305.758 170.605 306.19 170.072 306.457C169.538 306.723 168.824 306.857 167.928 306.857C167.032 306.857 166.312 306.723 165.768 306.457C165.234 306.19 164.845 305.758 164.6 305.161C164.365 304.553 164.248 303.753 164.248 302.761C164.248 301.769 164.365 300.974 164.6 300.377C164.845 299.769 165.234 299.331 165.768 299.065C166.312 298.798 167.032 298.665 167.928 298.665ZM167.928 299.817C167.362 299.817 166.914 299.907 166.584 300.089C166.253 300.259 166.018 300.558 165.88 300.985C165.741 301.411 165.672 302.003 165.672 302.761C165.672 303.518 165.741 304.11 165.88 304.537C166.018 304.963 166.253 305.267 166.584 305.449C166.914 305.619 167.362 305.705 167.928 305.705C168.493 305.705 168.936 305.619 169.256 305.449C169.586 305.267 169.821 304.963 169.96 304.537C170.098 304.11 170.168 303.518 170.168 302.761C170.168 302.003 170.098 301.411 169.96 300.985C169.821 300.558 169.586 300.259 169.256 300.089C168.936 299.907 168.493 299.817 167.928 299.817ZM181.354 298.857V306.649H180.122V301.481C180.122 301.31 180.128 301.145 180.138 300.985C180.149 300.814 180.16 300.633 180.17 300.441H180.138C180.074 300.59 179.989 300.75 179.882 300.921C179.786 301.081 179.69 301.225 179.594 301.353L175.626 306.649H174.506V298.857H175.738V304.025C175.738 304.195 175.733 304.366 175.722 304.537C175.722 304.697 175.712 304.873 175.69 305.065H175.722C175.893 304.713 176.08 304.414 176.282 304.169L180.25 298.857H181.354ZM179.242 295.401H180.282C180.325 296.019 180.128 296.542 179.69 296.969C179.264 297.395 178.666 297.609 177.898 297.609C177.12 297.609 176.512 297.395 176.074 296.969C175.637 296.542 175.44 296.019 175.482 295.401H176.522C176.522 295.859 176.64 296.217 176.874 296.473C177.12 296.718 177.461 296.841 177.898 296.841C178.325 296.841 178.656 296.718 178.89 296.473C179.125 296.217 179.242 295.859 179.242 295.401ZM192.127 298.777C192.938 298.777 193.578 298.835 194.047 298.953C194.527 299.07 194.874 299.278 195.087 299.577C195.301 299.875 195.407 300.302 195.407 300.857C195.407 301.411 195.274 301.833 195.007 302.121C194.751 302.398 194.325 302.563 193.727 302.617V302.665C194.453 302.718 194.959 302.921 195.247 303.273C195.535 303.614 195.679 304.099 195.679 304.729C195.679 305.262 195.573 305.678 195.359 305.977C195.157 306.265 194.826 306.467 194.367 306.585C193.919 306.702 193.317 306.761 192.559 306.761C192.015 306.761 191.541 306.755 191.135 306.745C190.73 306.745 190.357 306.734 190.015 306.713C189.685 306.702 189.333 306.686 188.959 306.665V298.873C189.29 298.841 189.605 298.819 189.903 298.809C190.202 298.798 190.527 298.793 190.879 298.793C191.231 298.782 191.647 298.777 192.127 298.777ZM192.079 299.849C191.717 299.849 191.381 299.849 191.071 299.849C190.762 299.838 190.485 299.838 190.239 299.849V302.153H192.287C192.959 302.153 193.429 302.073 193.695 301.913C193.973 301.753 194.111 301.438 194.111 300.969C194.111 300.521 193.962 300.222 193.663 300.073C193.365 299.923 192.837 299.849 192.079 299.849ZM192.287 303.129H190.239V305.673C190.527 305.683 190.847 305.689 191.199 305.689C191.562 305.689 191.951 305.689 192.367 305.689C193.093 305.689 193.599 305.609 193.887 305.449C194.175 305.278 194.319 304.942 194.319 304.441C194.319 303.939 194.17 303.598 193.871 303.417C193.573 303.225 193.045 303.129 192.287 303.129ZM201.737 301.881C202.515 301.881 203.123 301.955 203.561 302.105C203.998 302.254 204.307 302.51 204.489 302.873C204.681 303.225 204.777 303.705 204.777 304.313C204.777 304.942 204.681 305.438 204.489 305.801C204.297 306.153 203.993 306.398 203.577 306.537C203.161 306.675 202.617 306.745 201.945 306.745C201.433 306.745 200.99 306.739 200.617 306.729C200.243 306.729 199.902 306.718 199.593 306.697C199.283 306.686 198.958 306.67 198.617 306.649H198.569V298.857H199.897V301.881H201.737ZM207.577 298.857V306.649H206.201V298.857H207.577ZM201.737 302.889H199.897V305.657C200.398 305.667 201.011 305.673 201.737 305.673C202.355 305.673 202.787 305.582 203.033 305.401C203.278 305.219 203.401 304.841 203.401 304.265C203.401 303.753 203.283 303.395 203.049 303.193C202.825 302.99 202.387 302.889 201.737 302.889ZM212.178 298.857V305.561H215.41V298.857H216.642V305.561H219.89V298.857H221.202V306.649H210.85V298.857H212.178ZM227.691 298.665C228.864 298.665 229.712 298.878 230.235 299.305C230.768 299.731 231.04 300.366 231.051 301.209C231.051 301.902 230.901 302.446 230.603 302.841C230.315 303.225 229.845 303.417 229.195 303.417H225.563C225.605 304.035 225.717 304.51 225.899 304.841C226.091 305.161 226.357 305.385 226.699 305.513C227.04 305.63 227.477 305.689 228.011 305.689C228.437 305.689 228.896 305.673 229.387 305.641C229.888 305.598 230.336 305.55 230.731 305.497L230.859 306.409C230.624 306.505 230.325 306.585 229.963 306.649C229.6 306.713 229.227 306.761 228.843 306.793C228.469 306.825 228.133 306.841 227.835 306.841C226.949 306.841 226.229 306.707 225.675 306.441C225.131 306.163 224.736 305.726 224.491 305.129C224.245 304.521 224.123 303.721 224.123 302.729C224.123 301.705 224.245 300.899 224.491 300.313C224.747 299.715 225.136 299.294 225.659 299.049C226.181 298.793 226.859 298.665 227.691 298.665ZM227.755 299.817C227.211 299.817 226.779 299.891 226.459 300.041C226.149 300.19 225.92 300.451 225.771 300.825C225.632 301.187 225.552 301.699 225.531 302.361H228.843C229.184 302.361 229.408 302.243 229.515 302.009C229.632 301.763 229.685 301.497 229.675 301.209C229.675 300.707 229.531 300.35 229.243 300.137C228.955 299.923 228.459 299.817 227.755 299.817ZM234.649 304.761C234.841 304.761 234.969 304.798 235.033 304.873C235.108 304.947 235.145 305.081 235.145 305.273V306.297C235.135 307.203 234.948 308.025 234.585 308.761L233.945 308.569C233.999 308.238 234.036 307.934 234.057 307.657C234.089 307.379 234.105 307.043 234.105 306.649C233.849 306.649 233.721 306.499 233.721 306.201V305.273C233.732 305.081 233.78 304.947 233.865 304.873C233.951 304.798 234.079 304.761 234.249 304.761H234.649ZM243.544 298.857V301.785C243.544 302.169 243.624 302.441 243.784 302.601C243.955 302.75 244.227 302.825 244.6 302.825C245.027 302.825 245.443 302.787 245.848 302.713C246.254 302.627 246.702 302.483 247.192 302.281V298.857H248.552V306.649H247.192V303.369C246.659 303.561 246.115 303.705 245.56 303.801C245.016 303.897 244.547 303.945 244.152 303.945C242.851 303.945 242.2 303.374 242.2 302.233V298.857H243.544ZM258.01 298.857V299.977H255.194V306.649H253.834V299.977H251.002V298.857H258.01ZM263.631 298.665C264.527 298.665 265.241 298.798 265.775 299.065C266.308 299.331 266.692 299.769 266.927 300.377C267.172 300.974 267.295 301.769 267.295 302.761C267.295 303.753 267.172 304.553 266.927 305.161C266.692 305.758 266.308 306.19 265.775 306.457C265.241 306.723 264.527 306.857 263.631 306.857C262.735 306.857 262.015 306.723 261.471 306.457C260.937 306.19 260.548 305.758 260.303 305.161C260.068 304.553 259.951 303.753 259.951 302.761C259.951 301.769 260.068 300.974 260.303 300.377C260.548 299.769 260.937 299.331 261.471 299.065C262.015 298.798 262.735 298.665 263.631 298.665ZM263.631 299.817C263.065 299.817 262.617 299.907 262.287 300.089C261.956 300.259 261.721 300.558 261.583 300.985C261.444 301.411 261.375 302.003 261.375 302.761C261.375 303.518 261.444 304.11 261.583 304.537C261.721 304.963 261.956 305.267 262.287 305.449C262.617 305.619 263.065 305.705 263.631 305.705C264.196 305.705 264.639 305.619 264.959 305.449C265.289 305.267 265.524 304.963 265.663 304.537C265.801 304.11 265.871 303.518 265.871 302.761C265.871 302.003 265.801 301.411 265.663 300.985C265.524 300.558 265.289 300.259 264.959 300.089C264.639 299.907 264.196 299.817 263.631 299.817ZM276.513 294.857L276.833 295.913C276.407 296.179 276.012 296.366 275.649 296.473C275.297 296.579 274.945 296.659 274.593 296.713C274.252 296.766 273.879 296.851 273.473 296.969C272.929 297.118 272.503 297.331 272.193 297.609C271.895 297.886 271.676 298.195 271.537 298.537C271.399 298.878 271.303 299.235 271.249 299.609C271.207 299.854 271.175 300.078 271.153 300.281C271.132 300.483 271.116 300.638 271.105 300.745H271.137C271.255 300.478 271.415 300.222 271.617 299.977C271.82 299.721 272.119 299.513 272.513 299.353C272.908 299.182 273.441 299.097 274.113 299.097C275.265 299.097 276.071 299.39 276.529 299.977C276.988 300.563 277.217 301.523 277.217 302.857C277.217 303.678 277.121 304.387 276.929 304.985C276.737 305.582 276.38 306.041 275.857 306.361C275.345 306.681 274.609 306.841 273.649 306.841C272.817 306.841 272.156 306.718 271.665 306.473C271.185 306.227 270.833 305.886 270.609 305.449C270.385 305.011 270.241 304.494 270.177 303.897C270.113 303.299 270.081 302.649 270.081 301.945C270.081 300.814 270.145 299.849 270.273 299.049C270.412 298.249 270.689 297.593 271.105 297.081C271.532 296.569 272.172 296.185 273.025 295.929C273.441 295.801 273.831 295.71 274.193 295.657C274.567 295.593 274.94 295.513 275.313 295.417C275.687 295.31 276.087 295.123 276.513 294.857ZM273.761 300.249C273.121 300.249 272.636 300.35 272.305 300.553C271.985 300.755 271.767 301.049 271.649 301.433C271.543 301.817 271.489 302.291 271.489 302.857C271.489 303.571 271.559 304.137 271.697 304.553C271.836 304.969 272.065 305.262 272.385 305.433C272.705 305.603 273.132 305.689 273.665 305.689C274.188 305.689 274.604 305.603 274.913 305.433C275.223 305.262 275.447 304.974 275.585 304.569C275.724 304.153 275.793 303.582 275.793 302.857C275.793 302.185 275.729 301.662 275.601 301.289C275.484 300.905 275.276 300.638 274.977 300.489C274.689 300.329 274.284 300.249 273.761 300.249ZM283.315 301.881C284.094 301.881 284.702 301.955 285.139 302.105C285.576 302.254 285.886 302.51 286.067 302.873C286.259 303.225 286.355 303.705 286.355 304.313C286.355 304.942 286.259 305.438 286.067 305.801C285.875 306.153 285.571 306.398 285.155 306.537C284.739 306.675 284.195 306.745 283.523 306.745C283.011 306.745 282.568 306.739 282.195 306.729C281.822 306.729 281.48 306.718 281.171 306.697C280.862 306.686 280.536 306.67 280.195 306.649H280.147V298.857H281.475V301.881H283.315ZM289.155 298.857V306.649H287.779V298.857H289.155ZM283.315 302.889H281.475V305.657C281.976 305.667 282.59 305.673 283.315 305.673C283.934 305.673 284.366 305.582 284.611 305.401C284.856 305.219 284.979 304.841 284.979 304.265C284.979 303.753 284.862 303.395 284.627 303.193C284.403 302.99 283.966 302.889 283.315 302.889ZM304.261 305.561V308.953H303.365L303.237 306.649H296.949L296.821 308.953H295.941V305.561H296.837C297.221 304.782 297.498 303.982 297.669 303.161C297.839 302.329 297.951 301.491 298.005 300.649C298.09 299.454 298.751 298.857 299.989 298.857H303.189V305.561H304.261ZM299.237 300.873C299.173 301.779 299.05 302.617 298.869 303.385C298.698 304.153 298.426 304.878 298.053 305.561H301.893V299.929H300.213C299.615 299.929 299.29 300.243 299.237 300.873ZM310.131 298.665C311.027 298.665 311.741 298.798 312.275 299.065C312.808 299.331 313.192 299.769 313.427 300.377C313.672 300.974 313.795 301.769 313.795 302.761C313.795 303.753 313.672 304.553 313.427 305.161C313.192 305.758 312.808 306.19 312.275 306.457C311.741 306.723 311.027 306.857 310.131 306.857C309.235 306.857 308.515 306.723 307.971 306.457C307.437 306.19 307.048 305.758 306.803 305.161C306.568 304.553 306.451 303.753 306.451 302.761C306.451 301.769 306.568 300.974 306.803 300.377C307.048 299.769 307.437 299.331 307.971 299.065C308.515 298.798 309.235 298.665 310.131 298.665ZM310.131 299.817C309.565 299.817 309.117 299.907 308.787 300.089C308.456 300.259 308.221 300.558 308.083 300.985C307.944 301.411 307.875 302.003 307.875 302.761C307.875 303.518 307.944 304.11 308.083 304.537C308.221 304.963 308.456 305.267 308.787 305.449C309.117 305.619 309.565 305.705 310.131 305.705C310.696 305.705 311.139 305.619 311.459 305.449C311.789 305.267 312.024 304.963 312.163 304.537C312.301 304.11 312.371 303.518 312.371 302.761C312.371 302.003 312.301 301.411 312.163 300.985C312.024 300.558 311.789 300.259 311.459 300.089C311.139 299.907 310.696 299.817 310.131 299.817ZM323.013 294.857L323.333 295.913C322.907 296.179 322.512 296.366 322.149 296.473C321.797 296.579 321.445 296.659 321.093 296.713C320.752 296.766 320.379 296.851 319.973 296.969C319.429 297.118 319.003 297.331 318.693 297.609C318.395 297.886 318.176 298.195 318.037 298.537C317.899 298.878 317.803 299.235 317.749 299.609C317.707 299.854 317.675 300.078 317.653 300.281C317.632 300.483 317.616 300.638 317.605 300.745H317.637C317.755 300.478 317.915 300.222 318.117 299.977C318.32 299.721 318.619 299.513 319.013 299.353C319.408 299.182 319.941 299.097 320.613 299.097C321.765 299.097 322.571 299.39 323.029 299.977C323.488 300.563 323.717 301.523 323.717 302.857C323.717 303.678 323.621 304.387 323.429 304.985C323.237 305.582 322.88 306.041 322.357 306.361C321.845 306.681 321.109 306.841 320.149 306.841C319.317 306.841 318.656 306.718 318.165 306.473C317.685 306.227 317.333 305.886 317.109 305.449C316.885 305.011 316.741 304.494 316.677 303.897C316.613 303.299 316.581 302.649 316.581 301.945C316.581 300.814 316.645 299.849 316.773 299.049C316.912 298.249 317.189 297.593 317.605 297.081C318.032 296.569 318.672 296.185 319.525 295.929C319.941 295.801 320.331 295.71 320.693 295.657C321.067 295.593 321.44 295.513 321.813 295.417C322.187 295.31 322.587 295.123 323.013 294.857ZM320.261 300.249C319.621 300.249 319.136 300.35 318.805 300.553C318.485 300.755 318.267 301.049 318.149 301.433C318.043 301.817 317.989 302.291 317.989 302.857C317.989 303.571 318.059 304.137 318.197 304.553C318.336 304.969 318.565 305.262 318.885 305.433C319.205 305.603 319.632 305.689 320.165 305.689C320.688 305.689 321.104 305.603 321.413 305.433C321.723 305.262 321.947 304.974 322.085 304.569C322.224 304.153 322.293 303.582 322.293 302.857C322.293 302.185 322.229 301.662 322.101 301.289C321.984 300.905 321.776 300.638 321.477 300.489C321.189 300.329 320.784 300.249 320.261 300.249ZM330.343 298.665C331.207 298.665 331.863 298.846 332.311 299.209C332.77 299.561 332.999 300.211 332.999 301.161V306.649H331.927L331.767 305.369C331.564 305.571 331.303 305.785 330.983 306.009C330.663 306.222 330.295 306.409 329.879 306.569C329.474 306.718 329.031 306.793 328.551 306.793C327.858 306.793 327.298 306.606 326.871 306.233C326.444 305.859 326.231 305.321 326.231 304.617V303.769C326.231 303.161 326.418 302.691 326.791 302.361C327.175 302.019 327.708 301.849 328.391 301.849H331.639V301.161C331.628 300.681 331.516 300.339 331.303 300.137C331.09 299.923 330.674 299.817 330.055 299.817C329.639 299.817 329.122 299.838 328.503 299.881C327.895 299.923 327.292 299.971 326.695 300.025L326.567 299.017C327.111 298.931 327.73 298.851 328.423 298.777C329.116 298.702 329.756 298.665 330.343 298.665ZM328.823 305.625C329.207 305.635 329.655 305.545 330.167 305.353C330.69 305.15 331.18 304.846 331.639 304.441V302.873L328.631 302.889C328.258 302.899 327.991 303.001 327.831 303.193C327.682 303.374 327.607 303.63 327.607 303.961V304.457C327.607 304.862 327.703 305.161 327.895 305.353C328.098 305.534 328.407 305.625 328.823 305.625ZM339.393 298.777C340.204 298.777 340.844 298.835 341.313 298.953C341.793 299.07 342.14 299.278 342.353 299.577C342.566 299.875 342.673 300.302 342.673 300.857C342.673 301.411 342.54 301.833 342.273 302.121C342.017 302.398 341.59 302.563 340.993 302.617V302.665C341.718 302.718 342.225 302.921 342.513 303.273C342.801 303.614 342.945 304.099 342.945 304.729C342.945 305.262 342.838 305.678 342.625 305.977C342.422 306.265 342.092 306.467 341.633 306.585C341.185 306.702 340.582 306.761 339.825 306.761C339.281 306.761 338.806 306.755 338.401 306.745C337.996 306.745 337.622 306.734 337.281 306.713C336.95 306.702 336.598 306.686 336.225 306.665V298.873C336.556 298.841 336.87 298.819 337.169 298.809C337.468 298.798 337.793 298.793 338.145 298.793C338.497 298.782 338.913 298.777 339.393 298.777ZM339.345 299.849C338.982 299.849 338.646 299.849 338.337 299.849C338.028 299.838 337.75 299.838 337.505 299.849V302.153H339.553C340.225 302.153 340.694 302.073 340.961 301.913C341.238 301.753 341.377 301.438 341.377 300.969C341.377 300.521 341.228 300.222 340.929 300.073C340.63 299.923 340.102 299.849 339.345 299.849ZM339.553 303.129H337.505V305.673C337.793 305.683 338.113 305.689 338.465 305.689C338.828 305.689 339.217 305.689 339.633 305.689C340.358 305.689 340.865 305.609 341.153 305.449C341.441 305.278 341.585 304.942 341.585 304.441C341.585 303.939 341.436 303.598 341.137 303.417C340.838 303.225 340.31 303.129 339.553 303.129ZM352.682 298.857V306.649H351.45V301.481C351.45 301.31 351.456 301.145 351.466 300.985C351.477 300.814 351.488 300.633 351.498 300.441H351.466C351.402 300.59 351.317 300.75 351.21 300.921C351.114 301.081 351.018 301.225 350.922 301.353L346.954 306.649H345.834V298.857H347.066V304.025C347.066 304.195 347.061 304.366 347.05 304.537C347.05 304.697 347.04 304.873 347.018 305.065H347.05C347.221 304.713 347.408 304.414 347.61 304.169L351.578 298.857H352.682ZM362.135 298.857V299.977H359.319V306.649H357.959V299.977H355.127V298.857H362.135ZM367.737 301.881C368.537 301.881 369.161 301.955 369.609 302.105C370.067 302.254 370.393 302.51 370.585 302.873C370.777 303.225 370.873 303.705 370.873 304.313C370.873 304.942 370.771 305.438 370.569 305.801C370.377 306.153 370.062 306.398 369.625 306.537C369.198 306.675 368.638 306.745 367.945 306.745C367.433 306.745 366.99 306.739 366.617 306.729C366.243 306.729 365.902 306.718 365.593 306.697C365.283 306.686 364.958 306.67 364.617 306.649H364.569V298.857H365.897V301.881H367.737ZM367.737 302.889H365.897V305.657C366.398 305.667 367.011 305.673 367.737 305.673C368.377 305.673 368.825 305.582 369.081 305.401C369.347 305.219 369.481 304.841 369.481 304.265C369.481 303.753 369.363 303.395 369.129 303.193C368.894 302.99 368.43 302.889 367.737 302.889Z" fill="#4E4B66"/>
<g clip-path="url(#clip0)">
<path fill-rule="evenodd" clip-rule="evenodd" d="M208.816 240.839C244.672 240.839 276.138 214.167 258.467 177.94C240.796 141.713 306.455 142.883 325.743 117.846C349.264 87.3114 342.453 -42.3027 191.452 36.7163C167.264 49.3743 105.143 23.6943 84.5366 36.4362C60.2814 51.4347 26.1557 82.1471 60.2814 113.607C77.0911 129.104 16.8245 169.326 43.2201 205.355C68.9755 240.509 87.0298 206.997 126.242 214.167C165.454 221.338 182.187 240.839 208.816 240.839Z" fill="#DED3FF"/>
<path d="M167.199 177.814C167.199 177.814 175.455 173.931 178.537 171.229C181.619 168.527 185.451 161.814 185.451 161.814C185.451 161.814 227.542 192.212 254.986 187.876C261.309 186.877 273.631 182.674 274.416 175.268C276.562 155.046 246.877 149.878 253.361 139.623C257.319 133.364 269.615 142.68 269.615 142.68L320.614 167.765C320.614 167.765 302.995 211.196 260.239 212.936C207.643 215.077 167.199 177.814 167.199 177.814Z" fill="white"/>
<path fill-rule="evenodd" clip-rule="evenodd" d="M126.765 7.73036C126.286 7.54244 123.716 4.39487 120.452 3.822C118.969 3.56167 120.315 5.45001 118.683 5.46699C113.822 5.51759 105.923 4.60437 104.459 5.46699C103.372 6.10605 105.767 8.33868 104.459 8.44115C92.1218 9.40823 73.3004 21.7267 69.2168 27.703C67.9172 29.6049 78.4278 26.378 76.7532 27.3183C74.8736 28.3736 72.789 35.2838 71.5426 40.6208C70.6798 44.296 70.1365 49.0257 69.9448 54.1709C69.785 58.613 69.8489 59.3481 70.488 61.7768C71.2231 64.4932 71.7983 65.2922 72.789 64.909C73.1406 64.7808 73.3004 64.3016 73.3004 63.407C73.3004 62.7036 73.6838 60.5947 74.1632 58.709L74.9941 55.3214L75.3457 56.7278C75.7931 58.3575 78.4136 63.407 80.7785 67.0818C80.9061 67.2768 81.4548 67.0288 81.9497 65.8328C82.4006 64.7427 82.2176 63.0016 82.9836 61.1358C84.7285 56.8848 88.1545 51.3575 92.1219 46.9336C97.9852 40.3952 99.9303 32.8282 105.427 26.754C115.684 15.4183 128.557 8.43383 126.765 7.73036Z" fill="white"/>
<path fill-rule="evenodd" clip-rule="evenodd" d="M76.8989 28.8607C75.2536 30.1837 72.8113 40.9155 72.7694 41.0949C71.9065 44.7701 71.0747 57.5327 71.9249 59.9491C72.7751 62.3654 75.1558 53.655 75.1558 53.655C75.1558 53.655 78.7542 62.9986 81.9337 65.5605C82.0695 65.6699 78.1544 54.0006 76.8989 47.1879C75.2417 38.195 77.8354 28.1076 76.8989 28.8607Z" fill="#E7EAEE"/>
<path fill-rule="evenodd" clip-rule="evenodd" d="M138.226 216.813C141.294 216.142 146.47 213.805 148.453 213.006C150.434 212.206 156.474 203.678 158.647 194.059C160.213 186.964 161.012 176.865 160.117 175.171C159.985 174.931 159.502 170.339 160.788 171.838C163.649 175.171 167.044 180.404 177.757 171.028C180.675 168.474 184.543 165.178 183.525 162.264C180.675 154.112 168.324 137.696 166.442 136.453C164.19 134.965 152.811 136.229 135.877 131.231C116.672 125.562 108.676 108.871 101.16 111.044C95.0827 112.801 80.5208 123.599 76.8662 130.437C59.6131 162.72 80.5208 185.341 85.2822 191.838L89.9055 193.835L90.0649 197.958L90.2887 200.546C90.7045 205.5 90.8639 205.947 93.101 207.609C98.6936 211.859 109.719 215.822 119.69 217.228C124.324 217.867 134.391 217.644 138.226 216.813Z" fill="white"/>
<path fill-rule="evenodd" clip-rule="evenodd" d="M91.7238 196.449L91.9471 199.037C92.3629 203.991 92.5223 204.438 94.7595 206.1C98.059 208.607 103.249 211.014 108.998 212.856C112.994 214.136 117.26 215.143 121.349 215.719C125.983 216.358 136.05 216.134 139.884 215.304C141.78 214.893 126.188 202.643 117.002 206.1C109.948 208.754 93.3223 188.507 100.082 183.217C107.665 177.283 93.7699 153.879 93.3223 148.798C92.8748 143.717 91.1129 142.503 91.0614 142.681C91.01 142.86 91.01 143.467 91.1486 144.932C91.7446 151.246 91.7238 196.449 91.7238 196.449Z" fill="#E7EAEE"/>
<path fill-rule="evenodd" clip-rule="evenodd" d="M90.059 147.348C90.7298 147.217 91.3798 147.655 91.51 148.326C93.9218 160.717 104.124 169.107 122.368 173.493C140.719 177.906 153.22 177.668 159.806 172.958C160.362 172.56 159.948 175.965 159.541 176.226C155.245 178.981 140.639 183.092 123.209 179.376C100.924 174.626 90.4605 155.888 89.0803 148.799C88.9501 148.128 89.3877 147.478 90.059 147.348Z" fill="#5F2EEA"/>
<path fill-rule="evenodd" clip-rule="evenodd" d="M80.7655 124.99C81.3588 124.651 103.493 150.019 133.869 155.761C164.246 161.503 171.6 157.851 172.782 150.019C172.884 149.343 173.515 148.878 174.191 148.98C174.866 149.082 175.332 149.712 175.23 150.388C173.731 160.315 159.676 162.676 133.453 158.201C107.559 153.782 89.807 143.284 80.3059 126.679C79.9665 126.086 80.1722 125.33 80.7655 124.99Z" fill="#5F2EEA"/>
<path fill-rule="evenodd" clip-rule="evenodd" d="M208.259 123.584C207.428 123.296 206.533 122.657 205.958 121.922L204.999 120.739L208.387 117.384C213.596 112.27 217.591 107.029 221.042 100.798C222.193 98.7204 225.101 91.7857 225.101 91.1144C225.101 90.8907 225.453 89.9956 225.868 89.0689C226.507 87.7268 226.986 87.2154 228.36 86.4486C229.99 85.4897 231.844 85.1704 232.643 85.7134C234.177 86.7362 234.177 89.9639 232.643 95.5243C230.949 101.628 228.68 106.007 223.982 112.303C223.247 113.261 221.873 115.147 220.882 116.457C218.23 119.972 216.504 121.666 214.171 122.976C211.87 124.255 210.528 124.414 208.259 123.584ZM231.205 120.707L233.506 121.73C233.983 121.95 239.247 124.479 245.569 127.517C255.762 132.415 268.708 138.636 268.787 138.636C268.915 138.636 269.515 137.249 269.65 135.632C269.97 132.149 271.152 127.418 272.526 124.127C273.165 122.657 273.677 120.819 273.677 120.66C273.677 120.587 273.157 120.377 272.307 120.034C271.294 119.626 269.813 119.028 268.18 118.247C260.127 114.38 244.371 106.486 242.422 105.304C240.505 104.185 240.121 104.089 240.121 104.824C240.121 105.783 238.172 110.225 236.669 112.622C235.871 113.932 234.305 116.297 233.186 117.863L231.205 120.707ZM268.244 132.883C269.16 133.414 267.573 134.194 267.19 134.321C264.931 134.513 262.273 134.089 260.095 132.819C258.956 132.012 249.988 127.03 244.04 123.725C241.32 122.214 239.232 121.054 238.811 120.804C237.468 120.005 236.19 119.142 235.966 118.886C235.296 118.023 235.935 117.64 237.82 117.799C238.954 117.895 266.264 131.736 268.244 132.883ZM138.335 216.55C140.8 216.01 144.627 214.395 147.063 213.367C147.659 213.115 148.172 212.899 148.561 212.742C150.544 211.943 156.583 203.415 158.756 193.795C160.322 186.701 161.121 176.602 160.226 174.908C159.687 173.927 162.892 177.218 165.279 179.669C166.003 180.411 166.651 181.077 167.097 181.523C181.031 195.361 201.771 206.483 223.311 211.692C234.049 214.312 241.687 215.239 251.946 215.239C269.171 215.239 282.753 211.852 295.089 204.406C295.675 204.052 296.224 203.727 296.747 203.417C301.047 200.871 303.609 199.354 310.62 191.462C318.485 182.61 325.481 162.061 327.814 154.966C328.836 151.77 331.329 139.059 331.329 135.888C331.329 132.132 330.019 130.359 328.229 128.537C325.065 125.437 320.783 124.319 317.236 125.661L315.574 126.3L315.062 124.606C314.327 122.05 312.794 120.005 310.429 118.47C306.913 116.138 306.402 115.978 303.238 115.978C300.777 115.978 300.106 116.106 298.54 116.841L296.718 117.671L296.335 116.521C295.6 114.156 293.135 110.859 291.222 109.906C289.525 109.06 286.589 108.982 284.543 109.362C280.068 110.193 276.873 112.27 275.562 115.179C275.179 116.073 274.7 116.777 274.508 116.777C274.348 116.777 268.053 115.018 260.542 111.695C259.275 111.132 258.085 110.605 256.968 110.109C243.482 104.132 240.558 102.836 240.824 101.213C241.048 99.8387 240.984 99.0718 240.601 97.8897C239.929 95.908 239.162 95.3649 236.989 95.3649C235.263 95.3649 235.263 95.3649 235.455 94.5021C236.478 89.6124 236.446 86.8001 235.359 85.0105C234.624 83.8278 233.761 83.3486 231.78 83.061C230.629 82.9011 230.086 82.9971 228.808 83.7001C227.945 84.1476 227.21 84.4669 227.146 84.403C227.082 84.3392 227.306 82.5817 227.658 80.5045C230.278 65.1327 228.254 51.8882 221.574 37.8267C221.51 37.6922 221.436 37.533 221.352 37.3509C219.321 32.9916 211.156 15.4624 187.806 6.61745C186.749 6.2171 185.749 5.83002 184.788 5.45804V5.45795C176.834 2.37917 171.546 0.33244 158.788 0.353679C144.488 0.377486 139.645 2.39899 130.217 6.71334C128.907 7.32052 127.757 7.67205 127.661 7.54423C127.565 7.38443 126.958 7.00092 126.351 6.68136C125.744 6.36176 124.433 5.56285 123.474 4.92367C120.726 3.07011 119.032 2.30312 118.169 2.49487C117.179 2.75053 117.179 3.58144 118.169 3.96493C118.585 4.12472 119.064 4.668 119.256 5.21129C119.671 6.36176 120.151 6.48963 120.438 5.53087C120.566 5.17934 120.758 4.92367 120.854 4.98759C120.89 5.00577 121.012 5.06273 121.198 5.14964V5.14968C121.665 5.36834 122.537 5.77661 123.474 6.23393C124.785 6.87309 126.223 7.54423 126.606 7.70403C127.309 7.95968 127.086 8.15141 124.05 9.94106C112.193 16.9079 102.542 27.7417 97.1411 40.0774C96.31 41.931 95.5753 43.0815 94.808 43.7207C92.8585 45.3505 89.0238 49.9842 88.1288 51.806C87.6496 52.7966 86.6268 54.3308 85.8278 55.2253C85.0609 56.1204 84.23 57.2709 83.9423 57.7501C83.6867 58.2615 83.431 58.6129 83.3352 58.5491C83.2712 58.4535 83.3671 56.8872 83.5908 55.0659C84.0702 50.8154 84.0702 49.6968 83.6867 49.6009C83.1114 49.4411 82.2806 51.6783 81.929 54.4585C81.6733 56.1525 81.6094 58.709 81.7692 61.3293L81.9609 65.4842L79.6919 61.809C78.9117 60.5798 78.1434 59.3511 77.5977 58.4783L77.5975 58.4778H77.5973L77.597 58.4773L77.5959 58.4753L77.5954 58.4748L77.5951 58.4743L77.5949 58.4738L77.5946 58.4733L77.5937 58.4719C77.2474 57.9179 76.9913 57.5085 76.8797 57.3347C76.0487 56.1204 75.5694 54.2986 75.9209 53.6917C76.1126 53.3402 76.0807 53.1803 75.7611 53.1803C75.09 53.1803 73.7797 55.3214 72.9168 57.7822C72.5014 58.9327 72.0859 59.8912 71.9581 59.8912C71.4787 59.8912 71.7024 48.4505 72.2138 44.7753C73.2684 37.5208 76.0487 28.5726 77.2951 28.5726C77.5508 28.5726 77.7745 28.4447 77.7745 28.253C77.7745 27.6777 76.9436 27.9015 76.2724 28.6365C74.7704 30.2664 72.789 35.2837 71.5427 40.6207C70.6798 44.2959 70.1365 49.0257 69.9448 54.1709C69.785 58.6129 69.8489 59.3481 70.488 61.7768C71.2231 64.4931 71.7983 65.2922 72.789 64.909C73.1406 64.7808 73.3004 64.3016 73.3004 63.407C73.3004 62.7035 73.6839 60.5946 74.1632 58.709L74.9941 55.3214L75.3457 56.7278C75.7931 58.3575 78.4136 63.407 80.7785 67.0817C82.4084 69.5748 82.4404 69.7342 82.9836 73.6332C83.2712 75.8382 84.166 81.202 86.2431 89.4525C88.0788 96.7426 98.3966 103.974 100.973 105.78L100.975 105.781C101.313 106.018 101.518 106.161 101.551 106.199C101.871 106.55 102.318 106.742 102.574 106.646C102.861 106.55 103.021 106.678 103.021 107.029C103.021 107.349 103.245 107.764 103.501 107.956C103.82 108.18 104.044 109.043 104.108 110.545C104.268 113.549 106.505 119.301 108.23 121.187C109.349 122.401 111.682 122.912 114.27 122.465C115.964 122.209 116.444 122.018 116.284 121.634C116.188 121.379 116.795 121.698 117.626 122.337C127.341 129.752 137.184 134.194 148.242 136.111C152.524 136.846 159.619 137.261 163.486 136.974C166.906 136.751 166.905 136.751 166.746 137.421C166.522 138.316 166.809 138.859 171.507 146.817C175.246 153.113 175.566 153.528 179.72 157.779C188.541 166.887 198.16 173.95 209.058 179.414C219.316 184.527 235.695 188.778 250.667 190.12C265.64 191.462 276.393 177.72 276.361 174.205C276.298 169.379 275.626 166.215 273.997 163.148C272.399 160.175 271.344 159.153 266.55 155.957C261.213 152.41 257.922 149.502 255.749 146.402C254.374 144.452 253.863 142.247 253.863 141.064C253.863 140.298 254.854 138.572 256.324 138.22C257.666 137.869 257.922 137.901 259.424 138.636C260.318 139.052 262.652 140.138 264.569 141.064C266.518 141.959 268.404 142.855 268.787 143.046C269.918 143.36 270.396 145.573 270.655 146.773C270.713 147.041 270.76 147.258 270.801 147.392C271.248 149.054 273.365 151.2 274.732 151.93C277.13 153.213 283.041 153.385 284.671 151.627C285.087 151.18 286.464 150.63 286.748 150.796C287.032 150.963 288.058 152.346 288.058 153.464C288.09 155.382 289.081 157.14 291.19 158.897C295.185 162.221 298.285 163.02 301.416 161.55C303.046 160.783 304.382 160.483 304.382 160.483C304.382 160.483 305.714 162.183 305.795 162.764C306.422 167.305 313.145 169.208 314.935 169.4C315.345 169.441 316.143 169.265 316.954 169.087C318.038 168.849 319.144 168.606 319.377 168.868C319.833 169.383 311.739 182.77 310.62 184.463C299.978 200.443 279.269 210.222 253.927 211.245C237.468 211.915 217.239 207.313 199.694 198.941C188.477 193.54 178.538 186.924 167.896 177.656C166.043 176.058 163.901 174.237 163.134 173.598C162.367 172.991 160.546 170.913 159.14 168.996C156.775 165.8 155.432 164.65 155.432 165.736C155.432 166.215 156.966 169.156 158.724 172.064C159.427 173.214 159.874 174.013 159.715 173.886C159.555 173.757 159.044 176.058 158.564 178.999C156.998 188.426 154.41 197.726 151.789 203.51C150.351 206.643 147.594 208.981 146.762 209.62C143.695 211.954 139.102 213.002 132.742 213.641C124.689 214.44 112.832 212.651 103.788 209.263C101.392 208.368 95.2233 205.78 94.808 205.492C94.7832 205.467 94.6416 204.548 94.4441 203.264C94.3882 202.903 94.3283 202.512 94.2649 202.105C93.1144 194.211 91.5164 163.819 91.5164 149.757C91.5164 143.941 91.4525 142.662 91.0689 142.662C90.2699 142.662 89.9506 143.43 89.5991 146.178C88.8001 152.442 88.96 185.135 89.8228 192.005L90.0144 193.572L88.9278 192.964C87.2659 192.006 80.9383 185.582 78.7332 182.61C76.8664 180.069 75.7569 176.815 74.9268 174.38C74.7337 173.814 74.5557 173.292 74.3869 172.834C69.753 159.987 71.3829 145.571 77.7745 132.596C83.2073 121.538 89.8867 115.403 99.6659 112.43C101.263 111.951 102.67 111.44 102.83 111.312C103.437 110.737 99.5377 111.024 97.3966 111.695C90.4298 113.837 83.1434 119.685 78.1899 127.163C71.2231 137.645 68.0912 153.113 70.2963 166.311C70.8076 169.443 72.8849 176.218 73.4602 176.698C73.511 176.749 73.7739 177.3 74.1714 178.134C75.2706 180.44 77.3994 184.906 78.925 186.924C80.7785 189.449 86.3713 194.946 88.704 196.64L90.1743 197.694L90.3981 200.283C90.8134 205.236 90.9733 205.684 93.21 207.346C98.803 211.596 109.828 215.558 119.799 216.965C124.433 217.604 134.5 217.38 138.335 216.55ZM246.353 186.541C227.785 184.911 205.351 176.058 189.116 162.38C182.277 156.596 173.393 145.347 169.877 139.115C169.142 137.837 168.599 137.23 167.96 137.07C167.289 136.878 167.864 136.686 170.612 136.239C182.213 134.257 193.494 129.432 202.603 122.561L203.945 121.57L204.328 122.497C205.191 124.574 208.514 126.684 210.975 126.684C211.966 126.684 215.29 125.182 217.303 123.807L218.677 122.881L219.796 123.999C220.818 125.022 221.01 125.086 222.928 125.086C225.133 125.086 227.785 124.095 229.256 122.689L230.054 121.954L232.323 123.456C233.538 124.319 236.925 126.204 239.833 127.706C244.18 129.943 248.782 132.532 253.16 135.216L253.863 135.664L253.192 136.558C252.489 137.517 251.179 139.339 251.179 142.119C251.179 145.251 254.436 150.878 260.67 154.743C265.568 157.779 273.997 163.751 273.677 172.479C273.638 173.534 272.462 176.155 270.897 178.519C269.874 180.021 267.03 182.258 264.441 183.569C260.031 185.774 252.265 187.052 246.353 186.541ZM75.9529 43.0815C76.8157 43.2732 77.3909 43.5609 77.2631 43.6887C76.8477 44.1041 74.6426 43.9124 74.1312 43.4011C73.3323 42.6341 73.5241 42.0908 74.6426 41.8671C75.2178 41.7712 76.0807 41.2919 76.5601 40.8125C77.0394 40.3331 77.4549 40.1094 77.4549 40.2692C77.4549 40.6847 75.857 42.1547 75.058 42.4743C74.5467 42.698 74.7065 42.7939 75.9529 43.0815ZM88.6723 43.5928C89.5991 43.0815 89.407 42.73 88.3209 42.8898C87.2342 43.0495 87.1704 42.9217 87.8733 41.8351C88.1609 41.4197 88.3208 40.8125 88.2565 40.4929C88.1609 40.0774 87.9372 40.2692 87.4258 41.2919C87.0421 42.0269 86.4991 42.6341 86.2431 42.6341C85.4444 42.6341 85.3805 43.2732 86.1476 43.5609C87.1382 43.9763 87.905 43.9763 88.6723 43.5928ZM77.6147 26.1438C76.8477 26.2716 74.4508 27.2303 72.3416 28.285C70.2004 29.3076 68.3788 30.1705 68.251 30.1385C64.9913 29.787 69.5293 24.3541 77.7745 18.7934C85.6679 13.4565 91.005 10.6441 95.9585 9.20606C99.0585 8.31121 102.542 8.18339 103.533 8.91844C104.076 9.33389 103.884 9.36582 101.519 9.3978C96.406 9.3978 90.4936 12.0183 80.8744 18.4419C75.889 21.7655 70.1046 26.5273 70.1046 27.2943C70.1046 27.454 71.0313 27.1345 72.1818 26.6231C74.6426 25.5046 77.1673 24.9294 78.2858 25.185C79.4682 25.5046 79.2126 25.9201 77.6147 26.1438ZM89.9822 28.8922C92.9867 28.285 93.1144 28.253 93.1144 27.9334C93.1144 27.7736 91.9639 27.6138 90.5258 27.5499L87.9372 27.454L90.3337 24.7376C91.6441 23.2356 93.1783 21.7336 93.7213 21.3821C94.904 20.615 94.9679 20.0718 94.009 19.7522L93.2743 19.5285L94.0728 19.2409C94.5204 19.0811 95.3515 19.0172 95.9268 19.113C96.7897 19.2409 96.9812 19.177 96.8852 18.7295C96.7897 18.2821 96.4382 18.1862 94.8718 18.2182C90.302 18.2821 88.3525 19.4965 91.9317 20.0718C92.9223 20.2316 93.7535 20.4872 93.7535 20.647C93.7535 20.7748 93.5936 20.9026 93.402 20.9026C92.7946 20.9026 87.6496 26.1118 87.0105 27.3901C86.0199 29.2757 86.5629 29.5633 89.9822 28.8922ZM111.075 16.4924C110.148 16.5564 109.924 16.7162 109.988 17.1636L109.998 17.2287C110.034 17.4651 110.055 17.6009 110.002 17.6421C109.93 17.6978 109.724 17.5811 109.241 17.307L109.157 17.2594C108.55 16.9399 108.486 16.7801 108.838 16.5244C109.061 16.3326 109.668 16.045 110.148 15.9492L111.043 15.7255L110.372 15.0224C110.02 14.607 109.828 14.2234 109.924 14.0956C110.18 13.8399 113.312 14.1915 113.759 14.543C113.951 14.7028 114.239 14.6709 114.43 14.4791C114.878 14.0317 115.485 14.3832 115.485 15.0863C115.485 15.4698 115.389 15.5018 115.102 15.2141C114.846 14.9585 114.622 14.9585 114.334 15.1822C114.079 15.4059 113.887 15.4059 113.727 15.1502C113.631 14.9904 113.024 14.8307 112.385 14.8307C111.795 14.8307 111.516 14.8307 111.459 14.943C111.408 15.0438 111.536 15.235 111.778 15.5976C112.288 16.3941 112.257 16.3966 111.086 16.4916L111.075 16.4924ZM106.217 7.99166C106.217 7.57616 105.834 6.84116 105.354 6.36176L104.459 5.46696L109.253 5.65869C111.906 5.78656 114.909 6.07418 115.964 6.36176C117.019 6.61745 118.233 6.80918 118.681 6.80918C119.352 6.80918 119.224 6.68136 117.978 6.01022C115.805 4.89171 113.024 4.34843 107.687 3.96493C101.296 3.51752 98.0679 4.12472 98.6748 5.7226C98.7708 6.0422 99.2822 6.202 100.049 6.202C101.615 6.202 104.172 7.12879 105.035 7.99166C105.961 8.91844 106.217 8.91844 106.217 7.99166ZM90.6213 92.6164C93.21 95.9402 96.6298 99.711 98.2278 100.989C99.1862 101.757 100.017 102.396 100.081 102.396C100.113 102.396 99.41 100.925 98.5154 99.1357C94.904 91.9451 92.7946 84.7867 91.804 76.5417C91.5803 74.7199 91.2288 73.1857 90.8451 72.5466C90.0783 71.2684 90.0783 69.6065 90.8773 68.0407C91.2926 67.21 91.5164 66.155 91.5164 65.0045V63.2471L89.9822 64.8451C88.4803 66.411 87.0421 67.0501 87.0421 66.0912C87.0421 65.3882 89.407 62.0006 90.6535 60.9461C91.6441 60.1149 91.7718 59.8273 92.0916 57.3347C92.3154 55.8327 92.8268 53.1803 93.2421 51.4223C93.6897 49.6648 93.9451 48.1628 93.8812 48.0989C93.6575 47.8752 86.1476 56.5006 85.1248 59.252C84.9003 59.8565 84.2939 60.9139 83.8145 61.553L82.9836 62.6199C82.9836 62.6199 83.2417 64.1139 83.5269 65.9917C83.815 67.8882 83.9502 69.1922 84.0707 70.3535C84.2317 71.9075 84.3663 73.2055 84.8052 75.3273C85.3165 77.9476 85.8278 80.2169 85.9555 80.3763C86.0515 80.5684 86.4669 82.0382 86.8827 83.6679C87.7773 87.2793 89.2793 90.8585 90.6213 92.6164ZM220.307 122.849L219.636 122.177C219.636 122.177 230.775 108.025 232.771 102.811C234.294 98.8317 235.19 97.703 236.4 97.703C237.076 97.703 237.628 97.8575 237.884 98.2412C238.331 98.9119 238.762 99.7431 238.187 102.587C237.229 107.189 235.758 110.225 231.348 116.777C230.326 118.279 229.015 119.941 228.44 120.516C227.098 121.762 224.078 123.04 222.32 123.328C221.202 123.488 220.882 123.424 220.307 122.849Z" fill="#00160A"/>
<path d="M308.799 154.112C312.775 143.279 312.173 140.971 311.483 140.745C311.483 140.745 309.965 141.608 309.294 143.43C308.048 146.849 303.781 155.797 302.184 157.395C300.298 159.281 300.298 159.281 298.38 159.281C296.463 159.281 290.933 156.393 290.18 153.547C288.975 148.993 294.162 133.171 294.29 132.276L293.427 131.669C292.852 132.212 285.369 154.903 275.531 148.99C274.404 148.313 272.015 145.123 271.823 143.43C270.758 138.508 275.645 121.299 276.475 117.764C277.219 114.6 281.091 111.663 285.853 111.663C293.171 111.663 292.188 118.06 295.466 120.315C296.919 121.313 299.306 119.503 300.042 119.365C304.165 118.598 305.745 119.491 308.767 121.89C311.1 123.741 312.826 127.406 314.726 128.697C315.781 129.414 316.901 128.434 317.268 128.25C318.771 127.495 321.998 128.058 322.892 128.697C324.204 129.269 327.419 132.359 327.926 134.156C330.228 142.302 322.96 160.36 320.216 163.748C315.675 169.355 304.823 164.945 308.799 154.112Z" fill="white"/>
<path fill-rule="evenodd" clip-rule="evenodd" d="M125.072 124.429C133.829 129.958 142.858 133.569 153.148 134.56C161.265 135.327 172.21 134.272 180.072 131.715C186.687 129.574 195.636 123.643 201.611 118.625C213.212 108.91 220.531 93.7347 223.727 77.6283C224.174 75.359 224.856 69.6555 224.824 63.9991C224.824 57.4154 221.927 39.4251 213.149 29.0519C195.043 7.65724 165.28 -1.98046 140.267 6.25432C131.245 9.22487 121.638 14.6069 114.383 21.6377C105.243 30.554 98.5001 42.698 95.8154 55.0976C93.0035 68.2006 96.6614 83.86 103.021 96.707C108.103 106.934 116.476 118.964 125.072 124.429ZM210.4 85.8095C204.392 103.865 188.733 117.352 169.047 121.443C166.043 122.05 163.965 122.273 159.747 122.337C156.775 122.433 153.803 122.401 153.195 122.337C139.421 120.675 128.939 115.594 119.288 105.943C115.069 101.693 113.28 99.3916 110.659 94.8535C106.537 87.6629 104.332 80.3124 103.66 71.46C101.359 41.132 123.059 15.8533 153.611 13.2327C165.595 12.2101 178.89 15.8853 188.988 23.0438C192.727 25.6964 199.503 32.4075 201.611 35.5394C202.474 36.7858 210.848 49.0257 212.317 56.0565C214.203 65.1966 213.468 76.6372 210.4 85.8095Z" fill="white"/>
<path fill-rule="evenodd" clip-rule="evenodd" d="M224.836 63.9991C224.836 85.4496 214.689 108.901 201.594 118.916C195.347 123.694 187.182 129.48 180.072 131.715C169.653 134.991 153.148 134.56 153.148 134.56C153.148 134.56 169.986 132.309 176.225 129.798C194.118 122.597 203.886 111.544 209.917 100.938C221.822 80.0025 224.836 63.4778 224.836 63.9991Z" fill="#E7EAEE"/>
<path fill-rule="evenodd" clip-rule="evenodd" d="M153.515 118.503C144.982 117.416 136.513 114.38 129.674 109.874C125.615 107.221 119.48 100.989 116.507 96.5471C112.257 90.1555 109.445 83.3164 108.071 75.9664C107.08 70.6293 107.112 62.4159 108.103 57.6546C109.125 52.7966 110.436 49.0897 112.768 44.3918C115.485 38.959 118.361 34.9642 122.675 30.6499C130.026 23.2996 138.558 18.6337 148.721 16.3966C152.013 15.6935 163.933 15.1183 164.349 15.6616C164.445 15.8214 165.084 16.2368 165.755 16.5884C166.426 16.9718 168.215 18.3141 169.686 19.6244C171.891 21.5418 172.881 22.7562 174.799 25.7603C176.109 27.8056 177.164 29.6592 177.164 29.819C177.164 30.1705 178.186 30.8097 178.761 30.8097C179.56 30.8097 180.104 28.4128 180.264 24.1944C180.359 21.8614 180.552 19.944 180.679 19.944C181.127 19.944 186.048 22.6604 188.349 24.1944C192.855 27.1984 197.361 31.4169 200.685 35.8271C202.187 37.8085 202.41 38.3198 202.41 39.5342C202.41 40.6527 202.73 41.5156 203.721 43.2413C206.213 47.5876 208.163 53.0526 209.346 59.0927C210.112 63.1511 210.112 70.8209 209.313 75.0714C207.14 86.7679 200.685 98.4006 192.28 105.783C185.154 112.015 177.579 115.85 168.631 117.735C165.563 118.407 156.359 118.854 153.515 118.503ZM130.665 96.6432C130.953 96.3234 131.144 95.8442 131.049 95.6204C131.02 95.5531 130.619 95.365 130.034 95.0897C128.668 94.4481 126.295 93.3318 125.266 92.1689C121.175 87.5031 119.673 84.0199 118.747 76.8293C117.852 69.8303 118.604 65.0991 120.216 57.4947C121.004 53.7852 123.095 50.7209 124.396 48.8146C125.281 47.5184 125.801 46.7575 125.296 46.6928C124.05 46.501 123.858 46.5969 122.548 47.8433C119.735 50.5278 118.457 52.6689 117.115 56.7917C115.038 63.2471 114.636 80.6932 118.747 88.5575C122.856 96.4224 129.93 97.4739 130.665 96.6432ZM176.109 69.7986C175.566 74.763 173.265 81.9427 170.58 85.0744C169.334 86.5442 164.759 89.0689 160.897 88.5575C157.167 88.064 154.25 86.3209 151.757 82.5818C149.616 79.3541 148.51 75.4357 147.762 70.5016C146.471 61.9808 152.109 52.0615 154.538 49.6009C156.998 47.0763 158.756 46.1814 160.993 46.1495C163.166 46.1495 164.572 46.6289 166.777 48.1948C170.804 51.007 177.164 60.1511 176.109 69.7986ZM133.03 43.3692C133.669 42.6341 133.765 42.2826 133.573 40.9084C133.445 39.6301 133.19 39.1188 132.518 38.5754C131.336 37.6167 129.866 37.6167 128.779 38.6394C128.012 39.3744 127.916 39.63 128.012 41.3878C128.108 43.2733 128.172 43.4011 129.227 43.9763C130.633 44.7434 132.007 44.5197 133.03 43.3692ZM152.972 23.6511C147.219 27.7737 144.726 29.4674 142.138 31.0653C140.093 32.3437 139.454 32.3756 139.454 31.2251C139.454 30.6179 139.901 29.9468 141.051 28.8922L142.649 27.4221L139.549 27.0067C136.066 26.5593 132.678 25.6005 131.943 24.8655C130.729 23.6191 131.783 23.3315 135.235 23.9706C136.769 24.2263 139.741 24.5459 141.85 24.6098L145.685 24.7696L148.465 22.7562C154.569 18.346 160.897 15.8533 163.933 16.6203C165.819 17.0677 165.595 17.5791 163.454 17.8347C160.993 18.1223 159.491 18.9533 152.972 23.6511Z" fill="white"/>
<path d="M161.185 84.1793C161.185 84.0199 161.376 83.86 161.632 83.86C161.888 83.86 162.207 84.0199 162.304 84.1793C162.399 84.3714 162.207 84.4991 161.856 84.4991C161.472 84.4991 161.185 84.3714 161.185 84.1793Z" fill="white"/>
<path d="M163.102 83.8916C163.102 83.5401 163.901 83.2208 164.796 83.2208C165.499 83.2525 165.499 83.2525 164.892 83.7C164.189 84.2431 163.102 84.3392 163.102 83.8916Z" fill="white"/>
<path d="M158.149 83.0609C158.053 82.8055 157.925 82.358 157.829 82.102C157.733 81.7827 157.893 81.6228 158.308 81.6228C158.66 81.6228 158.948 81.8144 158.948 82.0703C158.948 82.3258 159.044 82.7411 159.14 83.0287C159.267 83.3807 159.171 83.5401 158.82 83.5401C158.532 83.5401 158.213 83.3164 158.149 83.0609Z" fill="white"/>
<path d="M159.843 82.262C159.683 81.3031 160.034 80.9838 161.185 80.9838C161.536 80.9838 161.824 81.3031 161.952 81.8466C162.208 82.7734 161.792 83.2209 160.673 83.2209C160.162 83.2209 159.938 82.9971 159.843 82.262Z" fill="white"/>
<path d="M156.583 82.4218C155.976 81.9426 155.976 81.9426 156.647 81.9426C157.062 81.9426 157.35 82.1342 157.35 82.4218C157.35 82.9971 157.35 82.9971 156.583 82.4218Z" fill="white"/>
<path d="M163.007 82.3897C162.591 81.9744 162.783 80.7279 163.294 80.5363C164.221 80.1848 164.636 80.3447 164.828 81.1754C164.956 81.6551 165.02 82.0704 164.956 82.1021C164.7 82.3897 163.198 82.5818 163.007 82.3897Z" fill="white"/>
<path d="M165.851 81.7189C165.755 81.6229 165.659 81.2075 165.659 80.8238C165.659 80.2808 165.914 80.057 166.682 79.8971C167.353 79.7694 167.768 79.8332 167.96 80.0887C168.279 80.6001 168.279 81.2392 167.992 81.3991C167.416 81.7189 166.074 81.9105 165.851 81.7189Z" fill="white"/>
<path d="M155.113 80.7278C155.113 80.3446 155.401 80.0248 155.816 79.9293C156.647 79.7055 156.615 79.6734 156.775 80.5045C156.839 80.9837 156.679 81.1753 156.007 81.2392C155.305 81.3352 155.113 81.2075 155.113 80.7278Z" fill="white"/>
<path d="M157.542 80.76C157.094 80.2808 157.382 79.3857 157.989 79.3857C158.405 79.3857 158.628 79.6095 158.628 79.9932C158.628 80.6001 157.893 81.1115 157.542 80.76Z" fill="white"/>
<path d="M159.459 79.801C159.204 79.1941 159.747 78.7466 160.801 78.7466C161.281 78.7466 161.505 78.9382 161.505 79.354C161.505 79.7055 161.217 80.0248 160.801 80.1525C159.747 80.4085 159.683 80.4085 159.459 79.801Z" fill="white"/>
<path d="M168.695 79.7055C168.791 79.5456 168.951 79.3857 169.047 79.3857C169.142 79.3857 169.11 79.5456 169.014 79.7055C168.919 79.8971 168.759 80.0248 168.663 80.0248C168.567 80.0248 168.599 79.8971 168.695 79.7055Z" fill="white"/>
<path d="M162.335 79.1619C162.08 78.5228 162.399 78.2035 163.422 78.0436C163.997 77.9798 164.253 78.1075 164.317 78.555C164.54 79.6094 162.719 80.1847 162.335 79.1619Z" fill="white"/>
<path d="M154.665 78.6189C154.378 77.5639 154.442 77.4684 155.273 77.4684C155.72 77.4684 156.071 77.5961 156.071 77.756C156.071 77.9159 156.167 78.2674 156.263 78.5228C156.359 78.8426 156.167 79.0342 155.624 79.1303C155.017 79.258 154.793 79.1303 154.665 78.6189Z" fill="white"/>
<path d="M165.339 78.2674C165.339 77.6922 165.563 77.4362 166.17 77.2763C167.065 77.053 167.576 77.5001 167.576 78.5229C167.576 78.9382 167.321 79.0664 166.458 79.0664C165.467 79.0664 165.339 78.9704 165.339 78.2674Z" fill="white"/>
<path d="M153.706 78.2674C153.611 78.0115 153.675 77.7877 153.834 77.7877C154.026 77.7877 154.154 78.0115 154.154 78.2674C154.154 78.5229 154.09 78.7466 154.026 78.7466C153.962 78.7466 153.834 78.5229 153.706 78.2674Z" fill="white"/>
<path d="M156.934 78.5228C156.487 78.1074 156.743 77.2124 157.318 77.053C157.669 76.9569 158.021 76.9886 158.117 77.0847C158.501 77.4362 158.277 78.3629 157.797 78.555C157.19 78.7787 157.19 78.7787 156.934 78.5228Z" fill="white"/>
<path d="M168.344 78.2991C167.992 77.3723 168.375 76.6694 169.27 76.5733C169.941 76.4778 170.133 76.6055 170.133 77.1169C170.133 78.1713 169.782 78.7466 169.142 78.7466C168.791 78.7466 168.439 78.555 168.344 78.2991Z" fill="white"/>
<path d="M159.171 77.8837C158.788 77.5322 158.916 76.8931 159.459 76.701C160.066 76.4778 161.345 77.1169 160.993 77.4684C160.546 77.8515 159.395 78.1392 159.171 77.8837Z" fill="white"/>
<path d="M161.952 77.0847C161.664 76.6372 162.687 75.8704 163.518 75.8704C163.901 75.8704 164.061 76.0619 163.997 76.4134C163.869 77.053 162.239 77.5639 161.952 77.0847Z" fill="white"/>
<path d="M153.195 76.8609C153.195 76.701 153.1 76.3495 153.004 76.0619C152.907 75.7743 152.94 75.5505 153.131 75.5505C153.547 75.5505 153.866 76.7654 153.483 77.0208C153.323 77.1169 153.195 77.053 153.195 76.8609Z" fill="white"/>
<path d="M154.058 76.1259C153.866 75.4229 154.25 74.9115 154.985 74.9115C155.401 74.9115 155.816 76.158 155.56 76.5734C155.208 77.117 154.218 76.7972 154.058 76.1259Z" fill="white"/>
<path d="M156.295 76.2857C155.816 75.8065 156.104 74.656 156.743 74.4961C157.222 74.3683 157.478 74.5282 157.733 75.1035C157.925 75.5188 158.021 75.9342 157.957 75.998C157.638 76.2857 156.487 76.5094 156.295 76.2857Z" fill="white"/>
<path d="M164.924 76.2857C164.508 75.8703 164.7 75.6149 165.659 75.2634C166.458 75.0075 166.682 75.0396 166.841 75.4228C167.129 76.1901 165.531 76.9248 164.924 76.2857Z" fill="white"/>
<path d="M167.736 75.5511C167.417 75.0397 167.864 74.5922 168.695 74.5922C169.686 74.5922 169.973 75.4229 169.078 75.6788C168.12 75.9342 167.96 75.9026 167.736 75.5511Z" fill="white"/>
<path d="M170.453 74.7837C170.453 74.3045 171.028 73.7931 171.284 74.0486C171.508 74.2723 171.06 75.2312 170.74 75.2312C170.58 75.2312 170.453 75.0397 170.453 74.7837Z" fill="white"/>
<path d="M152.78 74.3684C152.652 74.2723 152.556 73.857 152.588 73.5055C152.588 72.8981 152.62 72.8981 152.907 73.6015C153.227 74.3684 153.163 74.752 152.78 74.3684Z" fill="white"/>
<path d="M153.387 73.8892C153.1 72.7704 153.131 72.6748 153.962 72.6748C154.889 72.6748 155.464 73.857 154.761 74.3045C154.026 74.752 153.611 74.6238 153.387 73.8892Z" fill="white"/>
<path d="M164.381 74.5283C164.381 74.4322 164.541 73.9209 164.732 73.3456C165.18 72.0674 166.17 72.0035 166.394 73.2501C166.49 73.7293 166.522 74.1446 166.49 74.1768C166.33 74.3684 164.381 74.656 164.381 74.5283Z" fill="white"/>
<path d="M155.656 73.7293C155.528 73.6332 155.432 73.2501 155.432 72.8981C155.432 72.3872 155.528 72.355 155.912 72.6748C156.167 72.8981 156.391 73.2818 156.391 73.5055C156.391 73.9847 156.007 74.1129 155.656 73.7293Z" fill="white"/>
<path d="M167.161 73.0901C166.969 72.0995 167.385 71.652 168.375 71.7797C168.854 71.8436 169.014 72.1312 169.014 72.8342C169.014 73.6332 168.887 73.8253 168.184 73.8892C167.481 73.9847 167.321 73.8253 167.161 73.0901Z" fill="white"/>
<path d="M170.293 73.2179C169.877 71.9397 170.005 71.556 170.868 71.46C171.635 71.3644 171.731 71.46 171.731 72.2912C171.731 72.9941 171.539 73.2818 171.06 73.4095C170.708 73.5055 170.357 73.4095 170.293 73.2179Z" fill="white"/>
<path d="M152.301 71.3961C152.301 70.7892 152.364 70.5333 152.46 70.8531C152.524 71.1407 152.524 71.6521 152.46 71.9714C152.364 72.259 152.301 72.0036 152.301 71.3961Z" fill="white"/>
<path d="M153.1 71.8119C152.684 71.4283 152.876 70.1817 153.387 69.9902C154.122 69.7025 154.474 70.054 154.474 71.1085C154.474 71.7798 154.314 72.0352 153.899 72.0352C153.579 72.0352 153.195 71.9397 153.1 71.8119Z" fill="white"/>
<path d="M155.017 70.9491C154.889 70.4694 154.825 69.958 154.953 69.8624C155.272 69.5426 155.464 70.054 155.368 70.9808L155.272 71.8758L155.017 70.9491Z" fill="white"/>
<path d="M165.339 70.7253C165.339 70.3739 165.499 70.1818 165.659 70.2778C165.851 70.3739 165.978 70.6932 165.978 70.9491C165.978 71.2045 165.851 71.3961 165.659 71.3961C165.499 71.3961 165.339 71.1085 165.339 70.7253Z" fill="white"/>
<path d="M166.777 71.1407C166.33 70.6615 166.682 69.7986 167.416 69.6066C168.344 69.3828 168.375 69.3828 168.663 70.3095C168.855 70.8848 168.727 71.013 167.896 71.1407C167.385 71.2368 166.873 71.2046 166.777 71.1407Z" fill="white"/>
<path d="M169.717 70.5333C169.366 70.214 169.462 69.159 169.813 69.159C170.005 69.159 170.133 69.0313 170.133 68.8397C170.133 68.6798 169.941 68.5199 169.686 68.5199C169.142 68.5199 168.695 66.9541 169.142 66.5065C169.717 65.9313 170.356 66.5387 170.74 68.1045C170.964 68.9357 171.188 69.8941 171.284 70.2139C171.411 70.6293 171.284 70.757 170.676 70.757C170.261 70.757 169.813 70.6615 169.717 70.5333Z" fill="white"/>
<path d="M171.443 68.8396C171.22 67.8807 170.645 65.9634 170.229 64.5575C169.59 62.5119 169.526 62.0005 169.877 61.7768C170.101 61.6169 170.389 61.4891 170.485 61.4891C170.836 61.4891 172.114 68.0406 171.987 69.3188L171.891 70.597L171.443 68.8396Z" fill="white"/>
<path d="M151.981 68.6798C151.981 68.1684 152.045 67.9768 152.141 68.2961C152.205 68.5837 152.205 69.0313 152.141 69.255C152.045 69.4466 151.981 69.2233 151.981 68.6798Z" fill="white"/>
<path d="M152.62 68.6159C152.748 67.4976 153.675 67.2416 153.93 68.2644C154.154 69.0951 154.218 68.9995 153.259 69.3188C152.588 69.5109 152.524 69.4466 152.62 68.6159Z" fill="white"/>
<path d="M166.107 68.3283C165.851 67.4016 166.394 66.8585 167.416 66.9863C168.184 67.0818 168.471 68.4561 167.832 68.8714C167.033 69.3828 166.298 69.159 166.107 68.3283Z" fill="white"/>
<path d="M154.474 68.0729C154.474 67.5293 154.633 67.2417 154.985 67.2417C155.305 67.2417 155.432 67.4655 155.368 67.9447C155.208 68.9674 154.474 69.0635 154.474 68.0729Z" fill="white"/>
<path d="M151.629 66.7303C151.629 66.3788 151.725 66.2832 151.821 66.5387C151.917 66.7624 151.885 67.0501 151.789 67.1461C151.693 67.2738 151.598 67.0817 151.629 66.7303Z" fill="white"/>
<path d="M152.237 66.6347C152.237 66.155 152.428 65.9634 152.907 65.9634C153.355 65.9634 153.515 66.1233 153.451 66.5064C153.291 67.3376 152.237 67.4332 152.237 66.6347Z" fill="white"/>
<path d="M153.994 66.3471C153.77 65.7718 153.77 65.7718 154.729 65.5159C155.305 65.3243 155.432 65.4204 155.432 65.8996C155.432 66.6664 154.282 67.0501 153.994 66.3471Z" fill="white"/>
<path d="M165.563 65.8995C165.339 65.1005 165.755 64.6852 166.873 64.6852C167.416 64.6852 167.576 64.8768 167.576 65.4842C167.576 65.9634 167.385 66.2827 167.129 66.2827C166.873 66.2827 166.458 66.3787 166.202 66.4748C165.914 66.5703 165.691 66.3787 165.563 65.8995Z" fill="white"/>
<path d="M168.344 65.1645C168.088 64.5254 168.471 64.0461 169.206 64.0461C169.654 64.0461 169.813 64.2699 169.813 64.8451C169.813 65.4204 169.654 65.6437 169.174 65.6437C168.823 65.6437 168.439 65.4204 168.344 65.1645Z" fill="white"/>
<path d="M151.917 64.7169C151.917 64.0461 152.652 63.2788 152.972 63.6303C153.1 63.7263 153.195 64.1738 153.195 64.5892C153.195 65.1005 153.004 65.3243 152.556 65.3243C152.141 65.3243 151.917 65.1006 151.917 64.7169Z" fill="white"/>
<path d="M153.675 64.3337C153.419 63.5347 153.707 63.1832 154.793 63.0233C155.784 62.8956 156.104 63.95 155.241 64.5892C154.41 65.1966 153.899 65.1005 153.675 64.3337Z" fill="white"/>
<path d="M165.244 64.1417C165.02 63.9501 164.924 62.7675 165.116 62.7675C165.148 62.7675 165.627 62.6397 166.202 62.4798C167.161 62.1922 167.225 62.2244 167.193 63.0873C167.161 63.7264 166.969 64.0462 166.49 64.1739C165.627 64.3977 165.499 64.3977 165.244 64.1417Z" fill="white"/>
<path d="M164.061 63.407C164.061 63.1832 164.157 63.0872 164.285 63.1832C164.381 63.3109 164.381 63.5025 164.285 63.6302C164.157 63.7263 164.061 63.6302 164.061 63.407Z" fill="white"/>
<path d="M167.64 62.8956C167.736 62.3521 168.727 61.553 168.951 61.809C169.047 61.9045 169.206 62.2882 169.302 62.7035C169.526 63.3427 169.43 63.407 168.535 63.407C167.768 63.407 167.545 63.2788 167.64 62.8956Z" fill="white"/>
<path d="M152.237 62.8635C152.237 62.7036 152.397 62.3843 152.556 62.1283C152.812 61.7452 152.876 61.7769 152.876 62.3843C152.876 62.7675 152.748 63.0873 152.556 63.0873C152.397 63.0873 152.237 62.9912 152.237 62.8635Z" fill="white"/>
<path d="M153.195 62.1605C153.195 61.2654 153.866 60.9778 154.378 61.6491C154.697 62.1283 154.697 62.2882 154.378 62.512C153.706 62.9273 153.195 62.7996 153.195 62.1605Z" fill="white"/>
<path d="M162.91 61.7451C162.335 61.106 162.335 61.0738 162.879 61.2654C163.198 61.3936 163.613 61.4892 163.773 61.4892C163.933 61.4892 164.061 61.7129 164.061 61.9689C164.061 62.6397 163.613 62.5758 162.91 61.7451Z" fill="white"/>
<path d="M156.04 61.713C154.665 60.6585 154.474 58.2937 155.752 58.2937C156.615 58.2937 157.414 59.6358 157.286 60.8823C157.19 62.0328 156.807 62.2883 156.04 61.713Z" fill="white"/>
<path d="M164.796 61.9045C164.924 61.809 165.115 61.809 165.244 61.9045C165.339 62.0328 165.244 62.1283 165.02 62.1283C164.796 62.1283 164.7 62.0328 164.796 61.9045Z" fill="white"/>
<path d="M169.622 60.6584C169.717 60.3708 169.813 60.0832 169.813 60.0193C169.813 59.9555 169.973 59.8911 170.133 59.8911C170.325 59.8911 170.453 60.1787 170.453 60.5307C170.453 60.9139 170.229 61.1698 169.941 61.1698C169.59 61.1698 169.494 61.0099 169.622 60.6584Z" fill="white"/>
<path d="M152.876 60.5624C152.876 59.8273 153.547 58.6129 153.93 58.6129C154.602 58.6129 154.122 60.6585 153.419 60.7862C153.131 60.85 152.876 60.754 152.876 60.5624Z" fill="white"/>
<path d="M160.066 60.2109L159.107 59.9872L159.97 59.7634C160.865 59.508 161.505 59.6996 161.505 60.2431C161.505 60.5624 161.472 60.5624 160.066 60.2109Z" fill="white"/>
<path d="M158.948 58.6767C158.948 57.3668 159.683 57.1748 160.354 58.3253C160.802 59.0926 160.833 59.252 160.418 59.252C160.162 59.252 159.747 59.348 159.459 59.4441C159.076 59.6035 158.948 59.4119 158.948 58.6767Z" fill="white"/>
<path d="M164.508 59.1243C163.07 58.4852 162.144 56.7917 162.144 54.7783C162.144 53.3402 162.271 52.9887 163.134 52.1897C163.677 51.6783 164.221 51.2629 164.381 51.2629C165.084 51.2629 167.672 53.7233 168.535 55.2575L169.526 57.0154L168.471 58.1337C167.257 59.4119 165.914 59.7634 164.508 59.1243Z" fill="white"/>
<path d="M157.829 58.2937C157.733 58.1338 157.797 57.9739 157.957 57.9739C158.149 57.9739 158.308 58.1338 158.308 58.2937C158.308 58.4853 158.245 58.613 158.181 58.613C158.085 58.613 157.925 58.4853 157.829 58.2937Z" fill="white"/>
<path d="M153.643 57.7822C153.739 57.4946 153.835 57.207 153.835 57.1431C153.835 57.0792 154.122 57.0154 154.474 57.0154C155.273 57.0154 155.305 57.5263 154.505 57.9738C153.643 58.4213 153.419 58.3891 153.643 57.7822Z" fill="white"/>
<path d="M156.167 57.3986C155.432 57.3031 155.208 56.8872 155.688 56.5996C155.816 56.5041 156.391 56.3441 156.966 56.2164C157.829 56.0243 157.989 56.0882 157.989 56.6318C157.989 57.3031 157.318 57.5907 156.167 57.3986Z" fill="white"/>
<path d="M158.628 56.3119C158.628 55.9288 158.66 55.705 158.724 55.7689C158.756 55.8327 159.011 56.1525 159.235 56.4718C159.619 56.9194 159.587 57.0154 159.14 57.0154C158.82 57.0154 158.628 56.7595 158.628 56.3119Z" fill="white"/>
<path d="M154.154 56.0882C154.154 55.8966 154.314 55.6729 154.474 55.5773C154.665 55.4813 154.793 55.609 154.793 55.865C154.793 56.1526 154.665 56.3759 154.474 56.3759C154.314 56.3759 154.154 56.2481 154.154 56.0882Z" fill="white"/>
<path d="M155.337 55.6089C155.081 54.9698 157.35 54.2668 157.733 54.8738C158.021 55.3852 157.733 55.6089 156.519 55.8649C155.784 56.0243 155.464 55.9604 155.337 55.6089Z" fill="white"/>
<path d="M158.341 54.5862C158.341 54.2347 158.436 54.1392 158.532 54.3946C158.628 54.6184 158.596 54.906 158.501 55.0021C158.405 55.1298 158.308 54.9377 158.341 54.5862Z" fill="white"/>
<path d="M155.624 54.0748C156.007 53.3718 157.126 52.2213 157.414 52.2213C157.733 52.2213 157.765 53.7233 157.446 53.9154C157.286 53.9792 156.775 54.1391 156.295 54.2669C155.592 54.4268 155.432 54.3946 155.624 54.0748Z" fill="white"/>
<path d="M158.181 53.3402C157.829 52.3812 157.989 51.9659 158.756 51.8382C159.555 51.6783 159.555 51.6783 159.044 52.6689C158.405 53.9471 158.436 53.9471 158.181 53.3402Z" fill="white"/>
<path d="M157.989 51.4223C157.989 51.3584 158.628 50.9109 159.427 50.4639C160.386 49.8886 161.057 49.6968 161.536 49.8246C162.111 50.0164 161.952 50.1441 160.546 50.8154C158.98 51.5183 157.989 51.7738 157.989 51.4223Z" fill="white"/>
<path d="M175.726 23.1078C174.863 21.8615 173.041 19.8481 171.731 18.6337C170.421 17.4193 169.558 16.4286 169.813 16.4286C170.516 16.4286 175.886 17.8986 177.228 18.4739C178.346 18.9533 178.378 19.0172 178.091 20.0079C177.931 20.5831 177.803 22.0213 177.803 23.2037C177.803 24.4181 177.707 25.3768 177.579 25.3768C177.419 25.3768 176.62 24.3542 175.726 23.1078Z" fill="white"/>
<path d="M110.691 119.909C109.381 119.237 109.093 118.854 107.432 115.563C105.035 110.896 104.971 109.81 107.24 112.463C108.135 113.517 110.212 115.69 111.842 117.288C114.622 119.972 114.75 120.164 113.823 120.036C113.152 119.941 112.896 120.005 113.056 120.26C113.44 120.835 112.225 120.675 110.691 119.909Z" fill="white"/>
<path fill-rule="evenodd" clip-rule="evenodd" d="M164.249 178.133C163.984 177.503 164.28 176.777 164.909 176.512L165.598 176.22C172.292 173.356 176.135 171.635 178.746 168.903C181.357 166.171 181.669 162.158 182.159 159.716C182.294 159.046 183.811 160.223 184.481 160.358C185.152 160.492 185.586 161.145 185.451 161.814C184.861 164.751 183.273 167.55 180.716 170.207C178.168 172.855 173.235 175.693 165.87 178.794C165.24 179.059 164.514 178.763 164.249 178.133Z" fill="#00160A"/>
<path fill-rule="evenodd" clip-rule="evenodd" d="M194.521 50.6208C195.109 50.2713 195.868 50.4639 196.218 51.051C199.719 56.9317 201.594 63.6545 201.594 70.6486C201.594 91.8377 184.417 109.015 163.228 109.015C157.597 109.015 152.136 107.801 147.136 105.487C146.515 105.2 144.172 102.914 146.532 103.844C148.892 104.773 158.024 106.859 163.294 106.859C183.115 106.859 197.139 90.4708 197.139 70.6486C197.139 64.103 194.521 58.2936 194.091 52.3174C194.041 51.6243 193.934 50.9703 194.521 50.6208Z" fill="#00160A"/>
<path fill-rule="evenodd" clip-rule="evenodd" d="M71.95 144.29C72.3874 143.765 73.1678 142.704 73.693 143.141C75.8475 144.936 78.1467 147.015 80.6061 147.416C83.1653 147.834 86.2016 147.834 89.7105 147.409C90.3892 147.327 91.0055 147.81 91.0877 148.489C91.1699 149.167 90.6867 149.784 90.008 149.866C86.2813 150.317 83.016 150.317 80.2074 149.859C77.299 149.384 74.5943 148.103 72.1088 146.033C71.5836 145.596 71.5125 144.815 71.95 144.29Z" fill="#00160A"/>
<path d="M98.2278 100.989C96.6298 99.711 93.21 95.9402 90.6213 92.6164C89.2793 90.8585 87.7773 87.2793 86.8822 83.6679C86.4669 82.0382 86.0515 80.5684 85.9555 80.3763C85.8278 80.2169 85.3165 77.9476 84.8052 75.3273C84.0382 71.6199 84.2004 70.4258 83.5269 65.9916C83.2417 64.1139 82.9836 62.6199 82.9836 62.6199L83.8145 61.553C84.2939 60.9139 84.9003 59.8565 85.1248 59.252C86.1476 56.5006 93.6575 47.8752 93.8812 48.0989C93.9451 48.1628 93.6897 49.6648 93.2421 51.4223C92.8268 53.1803 92.3154 55.8327 92.0916 57.3347C91.7718 59.8273 91.6441 60.1149 90.6535 60.9461C89.407 62.0006 87.0421 65.3882 87.0421 66.0912C87.0421 67.0501 88.4802 66.411 89.9822 64.8451L91.5164 63.2471V65.0045C91.5164 66.155 91.2926 67.21 90.8773 68.0407C90.0783 69.6065 90.0783 71.2684 90.8451 72.5466C91.2288 73.1857 91.5802 74.7199 91.804 76.5417C92.7946 84.7867 94.904 91.9451 98.5154 99.1357C99.41 100.925 100.113 102.396 100.081 102.396C100.017 102.396 99.1862 101.757 98.2278 100.989Z" fill="white"/>
<path fill-rule="evenodd" clip-rule="evenodd" d="M231.205 120.707L233.506 121.73C233.983 121.95 239.247 124.479 245.569 127.517C255.762 132.415 268.708 138.636 268.787 138.636C268.915 138.636 269.515 137.249 269.65 135.632C269.97 132.149 271.152 127.418 272.526 124.127C273.165 122.657 273.677 120.819 273.677 120.66C273.677 120.587 273.157 120.377 272.307 120.034C271.294 119.626 269.813 119.028 268.18 118.247C260.127 114.38 244.371 106.486 242.422 105.304C240.505 104.185 240.121 104.089 240.121 104.824C240.121 105.783 238.171 110.225 236.669 112.622C235.871 113.932 234.305 116.297 233.186 117.863L231.205 120.707ZM268.244 132.883C269.16 133.414 267.573 134.194 267.19 134.321C264.931 134.513 262.273 134.089 260.095 132.819C258.956 132.012 249.988 127.03 244.04 123.725C241.32 122.214 239.232 121.054 238.811 120.804C237.468 120.005 236.19 119.142 235.966 118.886C235.296 118.023 235.935 117.64 237.82 117.799C238.954 117.895 266.264 131.736 268.244 132.883Z" fill="white"/>
<path d="M208.259 123.584C207.428 123.296 206.533 122.657 205.958 121.922L204.999 120.739L208.387 117.384C213.596 112.27 217.431 106.682 220.882 100.451C222.033 98.3734 225.452 89.9957 225.868 89.0689C226.507 87.7269 226.986 87.2155 228.36 86.4486C229.99 85.4897 231.844 85.1704 232.643 85.7135C234.177 86.7363 234.177 89.964 232.643 95.5244C230.949 101.628 228.68 106.007 223.982 112.303C223.247 113.262 221.873 115.147 220.882 116.457C218.23 119.972 216.504 121.666 214.171 122.976C211.87 124.255 210.528 124.414 208.259 123.584Z" fill="white"/>
<path d="M220.307 122.849L219.636 122.177C219.636 122.177 230.775 108.025 232.771 102.811C234.294 98.8317 235.19 97.703 236.4 97.703C237.076 97.703 237.628 97.8575 237.884 98.2411C238.331 98.9119 238.762 99.7431 238.187 102.587C237.228 107.189 235.758 110.225 231.348 116.777C230.326 118.279 229.015 119.941 228.44 120.516C227.098 121.762 224.078 123.04 222.32 123.328C221.202 123.488 220.882 123.424 220.307 122.849Z" fill="white"/>
<path fill-rule="evenodd" clip-rule="evenodd" d="M239.017 108.05C239.662 106.576 240.121 105.29 240.121 104.824C240.121 104.089 240.505 104.185 242.422 105.304C244.371 106.486 260.127 114.38 268.18 118.247C271.184 119.685 273.677 120.5 273.677 120.66C273.677 120.819 238.334 109.613 239.017 108.05Z" fill="#E7EAEE"/>
<path fill-rule="evenodd" clip-rule="evenodd" d="M129.674 109.874C125.615 107.221 119.48 100.989 116.507 96.5471C112.257 90.1555 109.445 83.3164 108.071 75.9664C107.08 70.6293 107.112 62.4159 108.103 57.6545C109.125 52.7966 110.436 49.0895 112.768 44.3917C115.485 38.9589 118.361 34.9642 122.675 30.6498C126.906 26.4191 108.103 43.915 112.768 75.2194C116.507 101.452 132.577 111.786 129.674 109.874Z" fill="#E7EAEE"/>
</g>
<defs>
<clipPath id="clip0">
<rect width="300" height="240.594" fill="white" transform="translate(36.0001 0.351562)"/>
</clipPath>
</defs>
</svg>
